<svg id="visual" viewBox="0 0 960 300" width="960" height="300" xmlns="http://www.w3.org/2000/svg" xmlns:xlink="http://www.w3.org/1999/xlink" version="1.1"><rect x="0" y="0" width="960" height="300" fill="#ffffff"></rect><defs><linearGradient id="grad1_0" x1="68.8%" y1="0%" x2="100%" y2="100%"><stop offset="-14.000000000000007%" stop-color="#ffffff" stop-opacity="1"></stop><stop offset="114.00000000000001%" stop-color="#ffffff" stop-opacity="1"></stop></linearGradient></defs><defs><linearGradient id="grad2_0" x1="0%" y1="0%" x2="31.3%" y2="100%"><stop offset="-14.000000000000007%" stop-color="#ffffff" stop-opacity="1"></stop><stop offset="114.00000000000001%" stop-color="#ffffff" stop-opacity="1"></stop></linearGradient></defs><g transform="translate(960, 0)"><path d="M0 270C-31.5 251.7 -63.1 233.3 -89.5 216.2C-116 199.1 -137.4 183.1 -166.2 166.2C-194.9 149.2 -230.9 131.2 -249.4 103.3C-268 75.5 -269 37.7 -270 0L0 0Z" fill="#e11d48"></path></g><g transform="translate(0, 300)"><path d="M0 -270C31.1 -250.1 62.2 -230.2 88 -212.5C113.8 -194.8 134.2 -179.4 163.3 -163.3C192.4 -147.3 230.2 -130.6 249.4 -103.3C268.7 -76 269.3 -38 270 0L0 0Z" fill="#e11d48"></path></g></svg>