<svg xmlns="http://www.w3.org/2000/svg" xmlns:xlink="http://www.w3.org/1999/xlink" width="500" zoomAndPan="magnify" viewBox="0 0 375 374.999991" height="500" preserveAspectRatio="xMidYMid meet" version="1.0"><defs><clipPath id="58b99134a0"><path d="M 226 65 L 355.527344 65 L 355.527344 229 L 226 229 Z M 226 65 " clip-rule="nonzero"/></clipPath><clipPath id="ae6948d16e"><path d="M 19.527344 156 L 140 156 L 140 263 L 19.527344 263 Z M 19.527344 156 " clip-rule="nonzero"/></clipPath><clipPath id="929920b1ff"><path d="M 19.527344 217 L 44 217 L 44 240 L 19.527344 240 Z M 19.527344 217 " clip-rule="nonzero"/></clipPath><clipPath id="6ec83a3570"><path d="M 19.527344 226 L 36 226 L 36 240 L 19.527344 240 Z M 19.527344 226 " clip-rule="nonzero"/></clipPath></defs><path fill="#413757" d="M 169.546875 332.992188 C 169.546875 332.992188 186.480469 309.507812 143.261719 282.132812 C 143.261719 282.132812 123.539062 295.625 120.304688 307.25 C 117.511719 317.300781 130.6875 340.035156 144.460938 340.941406 C 158.234375 341.855469 169.546875 332.992188 169.546875 332.992188 Z M 169.546875 332.992188 " fill-opacity="1" fill-rule="nonzero"/><path fill="#ffffff" d="M 131.6875 334.277344 C 134.660156 336.445312 137.847656 337.859375 141.070312 338.0625 C 154.84375 338.964844 166.15625 330.101562 166.15625 330.101562 C 166.15625 330.101562 178.988281 312.304688 153.796875 289.640625 C 183.484375 313.660156 169.546875 332.992188 169.546875 332.992188 C 169.546875 332.992188 158.234375 341.855469 144.460938 340.953125 C 139.964844 340.65625 135.527344 338.027344 131.6875 334.277344 Z M 131.6875 334.277344 " fill-opacity="0.6" fill-rule="nonzero"/><path fill="#000000" d="M 146.472656 342.976562 C 145.769531 342.976562 145.054688 342.953125 144.332031 342.902344 C 137.871094 342.476562 130.960938 337.730469 125.382812 329.851562 C 119.628906 321.726562 116.820312 312.433594 118.414062 306.722656 C 121.804688 294.554688 141.320312 281.085938 142.152344 280.515625 L 143.210938 279.789062 L 144.308594 280.480469 C 161.800781 291.554688 171.875 303.40625 174.242188 315.695312 C 176.371094 326.710938 171.339844 333.839844 171.128906 334.136719 L 170.960938 334.363281 L 170.746094 334.527344 C 170.292969 334.898438 159.816406 342.976562 146.472656 342.976562 Z M 143.320312 284.5 C 139.277344 287.4375 124.789062 298.46875 122.183594 307.785156 C 120.9375 312.269531 123.625 320.609375 128.582031 327.59375 C 133.398438 334.386719 139.382812 338.65625 144.59375 339.003906 C 156.367188 339.773438 166.453125 332.839844 168.105469 331.625 C 168.867188 330.425781 172.054688 324.761719 170.390625 316.324219 C 168.261719 305.582031 158.914062 294.601562 143.320312 284.5 Z M 143.320312 284.5 " fill-opacity="1" fill-rule="nonzero"/><path fill="#371a45" d="M 146.472656 342.976562 C 145.769531 342.976562 145.054688 342.953125 144.332031 342.902344 C 137.871094 342.476562 130.960938 337.730469 125.382812 329.851562 C 119.628906 321.726562 116.820312 312.433594 118.414062 306.722656 C 121.804688 294.554688 141.320312 281.085938 142.152344 280.515625 C 142.796875 280.074219 143.652344 280.0625 144.308594 280.480469 C 161.800781 291.554688 171.875 303.40625 174.242188 315.695312 C 176.371094 326.710938 171.339844 333.839844 171.128906 334.136719 C 171.019531 334.289062 170.890625 334.421875 170.746094 334.527344 C 170.292969 334.898438 159.816406 342.976562 146.472656 342.976562 Z M 143.320312 284.5 C 139.277344 287.4375 124.789062 298.46875 122.183594 307.785156 C 120.9375 312.269531 123.625 320.609375 128.582031 327.59375 C 133.398438 334.386719 139.382812 338.65625 144.59375 339.003906 C 156.367188 339.773438 166.453125 332.839844 168.105469 331.625 C 168.867188 330.425781 172.054688 324.761719 170.390625 316.324219 C 168.261719 305.582031 158.914062 294.601562 143.320312 284.5 Z M 169.546875 332.992188 Z M 169.546875 332.992188 Z M 169.546875 332.992188 " fill-opacity="1" fill-rule="nonzero"/><path fill="#371a45" d="M 129.890625 332.625 C 122.921875 324.855469 118.425781 313.625 120.175781 307.355469 C 123.421875 295.730469 143.128906 282.238281 143.128906 282.238281 C 147.542969 285.035156 151.3125 287.785156 154.546875 290.472656 C 154.238281 290.28125 153.929688 290.09375 153.609375 289.890625 C 153.609375 289.890625 132.019531 304.917969 127.90625 317.265625 C 126.585938 321.238281 127.488281 326.984375 129.890625 332.625 Z M 129.890625 332.625 " fill-opacity="0.4" fill-rule="nonzero"/><path fill="#ea7344" d="M 124.539062 217.257812 C 118.664062 216.757812 104.796875 211.710938 101.023438 219.078125 C 97.253906 226.441406 81.210938 285.941406 105.746094 298.148438 C 130.285156 310.351562 157.628906 290.605469 157.628906 290.605469 C 157.628906 290.605469 164.46875 220.671875 124.539062 217.257812 Z M 124.539062 217.257812 " fill-opacity="1" fill-rule="nonzero"/><path fill="#ffffff" d="M 142.925781 225.835938 C 138.964844 223.015625 134.195312 221.160156 128.476562 220.671875 C 122.601562 220.171875 108.734375 215.128906 104.960938 222.492188 C 101.535156 229.164062 88.050781 278.636719 103.796875 296.945312 C 81.625 282.941406 97.039062 225.988281 100.714844 218.804688 C 104.488281 211.4375 118.355469 216.484375 124.230469 216.996094 C 132.175781 217.660156 138.265625 220.96875 142.925781 225.835938 Z M 142.925781 225.835938 " fill-opacity="0.6" fill-rule="nonzero"/><path fill="#371a45" d="M 157.617188 290.617188 C 157.617188 290.617188 130.273438 310.378906 105.734375 298.171875 C 93.890625 292.28125 91.5 275.363281 92.628906 258.625 C 93.542969 270.1875 97.171875 280.21875 105.734375 284.476562 C 130.273438 296.683594 157.617188 276.933594 157.617188 276.933594 C 157.617188 276.933594 157.78125 275.246094 157.914062 272.363281 C 158.378906 282.835938 157.617188 290.617188 157.617188 290.617188 Z M 157.617188 290.617188 " fill-opacity="0.4" fill-rule="nonzero"/><path fill="#371a45" d="M 123.277344 304.117188 C 117.285156 304.117188 111.003906 302.953125 104.855469 299.894531 C 99.371094 297.171875 95.386719 292.125 93.019531 284.929688 C 85.609375 262.382812 95.875 224.8125 99.277344 218.171875 C 102.878906 211.128906 112.789062 213.082031 120.03125 214.507812 C 121.816406 214.867188 123.515625 215.199219 124.707031 215.292969 C 133.414062 216.03125 140.679688 219.839844 146.304688 226.609375 C 163.597656 247.394531 159.734375 289.007812 159.566406 290.78125 C 159.507812 291.339844 159.222656 291.851562 158.769531 292.175781 C 157.878906 292.816406 141.953125 304.117188 123.277344 304.117188 Z M 109.589844 217.066406 C 106.507812 217.066406 103.890625 217.769531 102.761719 219.96875 C 99.621094 226.097656 89.796875 262.597656 96.742188 283.703125 C 98.777344 289.867188 102.097656 294.136719 106.605469 296.386719 C 127.621094 306.84375 151.3125 292.414062 155.738281 289.496094 C 156.199219 283.3125 158.199219 247.023438 143.285156 229.117188 C 138.359375 223.195312 131.996094 219.863281 124.359375 219.207031 C 122.945312 219.089844 121.246094 218.757812 119.257812 218.363281 C 116.261719 217.769531 112.691406 217.066406 109.589844 217.066406 Z M 157.617188 290.59375 Z M 157.617188 290.59375 " fill-opacity="1" fill-rule="nonzero"/><path fill="#1297e0" d="M 88.917969 271.617188 C 88.917969 271.617188 99.132812 266.691406 108.886719 268.890625 C 108.886719 268.890625 110.574219 285.558594 113.109375 292.007812 C 113.109375 292.007812 102.132812 295.777344 97.253906 295.933594 C 92.378906 296.089844 88.132812 277.957031 88.917969 271.617188 Z M 88.917969 271.617188 " fill-opacity="1" fill-rule="nonzero"/><path fill="#ffffff" d="M 92.472656 274.542969 C 91.890625 279.300781 94.125 290.710938 97.351562 296.039062 C 97.316406 296.039062 97.277344 296.039062 97.242188 296.039062 C 92.367188 296.195312 88.132812 278.050781 88.917969 271.710938 C 88.917969 271.710938 99.132812 266.785156 108.875 268.984375 C 108.875 268.984375 108.957031 269.878906 109.136719 271.328125 C 100.515625 270.675781 92.472656 274.542969 92.472656 274.542969 Z M 92.472656 274.542969 " fill-opacity="0.6" fill-rule="nonzero"/><path fill="#371a45" d="M 113.191406 292.007812 C 113.191406 292.007812 102.214844 295.777344 97.339844 295.945312 C 96.078125 295.980469 94.863281 294.804688 93.769531 292.921875 C 99.121094 292.125 107.675781 289.1875 107.675781 289.1875 C 105.710938 284.203125 104.261719 273.113281 103.714844 268.332031 C 105.4375 268.332031 107.222656 268.5 108.980469 268.890625 C 108.96875 268.890625 110.660156 285.558594 113.191406 292.007812 Z M 113.191406 292.007812 " fill-opacity="0.4" fill-rule="nonzero"/><path fill="#371a45" d="M 97.183594 297.898438 C 95.875 297.898438 94.636719 297.265625 93.496094 296.015625 C 89.226562 291.339844 86.265625 277.027344 86.96875 271.367188 C 87.050781 270.699219 87.464844 270.128906 88.0625 269.84375 C 88.5 269.628906 99.015625 264.65625 109.304688 266.976562 C 110.125 267.164062 110.730469 267.855469 110.824219 268.6875 C 110.835938 268.855469 112.515625 285.167969 114.929688 291.28125 C 115.121094 291.78125 115.109375 292.339844 114.882812 292.816406 C 114.65625 293.304688 114.238281 293.671875 113.738281 293.851562 C 113.277344 294.007812 102.417969 297.71875 97.316406 297.886719 C 97.265625 297.898438 97.21875 297.898438 97.183594 297.898438 Z M 90.773438 272.949219 C 90.59375 278.597656 93.292969 289.855469 96.316406 293.304688 C 96.816406 293.863281 97.125 293.984375 97.183594 293.984375 C 100.324219 293.875 106.828125 291.984375 110.613281 290.769531 C 108.78125 284.667969 107.519531 274.363281 107.078125 270.542969 C 100.265625 269.496094 93.316406 271.914062 90.773438 272.949219 Z M 90.773438 272.949219 " fill-opacity="1" fill-rule="nonzero"/><path fill="#413757" d="M 353.484375 137.757812 C 353.484375 137.757812 344.683594 157.257812 332.730469 173.378906 C 320.789062 189.5 307.894531 179.171875 307.894531 179.171875 C 273.9375 238.515625 239.042969 228.953125 232.378906 218.695312 C 229.8125 214.757812 228.253906 208.605469 228.097656 202.363281 C 228.039062 200.015625 228.183594 197.648438 228.539062 195.390625 C 229.691406 188.023438 233.164062 181.683594 239.671875 180.207031 C 253.503906 177.054688 267.335938 166.050781 270.167969 157.042969 C 272.996094 148.039062 280.539062 139.640625 280.539062 139.640625 L 271.738281 124.542969 C 271.761719 123.71875 271.820312 122.875 271.925781 122.03125 C 272.867188 114.25 277.019531 105.316406 281.929688 97.070312 C 290.683594 82.363281 301.910156 69.824219 301.910156 69.824219 L 309.464844 79.390625 C 311.972656 75.441406 317.636719 81.449219 317.636719 81.449219 L 321.40625 76.09375 Z M 353.484375 137.757812 " fill-opacity="1" fill-rule="nonzero"/><path fill="#ffffff" d="M 292.800781 131.273438 C 292.800781 131.273438 286.867188 134.570312 284.664062 142.410156 C 283.070312 148.097656 280.027344 148.714844 277.445312 153.675781 C 273.902344 160.496094 273.652344 167.882812 267.039062 172.570312 C 262.910156 175.507812 246.820312 185.90625 228.527344 195.402344 C 229.679688 188.035156 233.152344 181.695312 239.660156 180.21875 C 253.492188 177.066406 267.324219 166.0625 270.15625 157.054688 C 272.984375 148.050781 278.835938 144.421875 280.527344 139.652344 C 284.546875 128.359375 292.800781 131.273438 292.800781 131.273438 Z M 292.800781 131.273438 " fill-opacity="0.6" fill-rule="nonzero"/><path fill="#371a45" d="M 353.484375 137.757812 C 353.484375 137.757812 344.683594 157.257812 332.730469 173.378906 C 320.789062 189.5 307.894531 179.171875 307.894531 179.171875 C 273.9375 238.515625 239.042969 228.953125 232.378906 218.695312 C 229.8125 214.757812 228.253906 208.605469 228.097656 202.363281 C 258.214844 221.695312 300.746094 179.160156 300.746094 179.160156 L 296.179688 172.558594 L 290.789062 172.558594 C 297.75 154.128906 287.9375 116.535156 281.941406 97.058594 C 290.695312 82.351562 301.921875 69.8125 301.921875 69.8125 L 309.476562 79.378906 C 311.984375 75.429688 317.648438 81.4375 317.648438 81.4375 L 321.417969 76.082031 Z M 353.484375 137.757812 " fill-opacity="0.4" fill-rule="nonzero"/><path fill="#5f77e6" d="M 317.183594 181.503906 C 311.746094 181.339844 307.894531 178.257812 307.894531 178.257812 C 298.855469 169.273438 298.070312 157.28125 298.070312 157.28125 C 301.136719 145.207031 296.179688 132.046875 290.777344 129.964844 C 285.378906 127.882812 280.539062 138.722656 280.539062 138.722656 L 271.738281 123.625 C 272.367188 101.925781 304.078125 67.957031 304.078125 67.957031 L 309.464844 78.488281 C 309.464844 78.488281 331.835938 124.066406 336.402344 137.378906 C 336.402344 137.378906 306.597656 175.769531 317.183594 181.503906 Z M 317.183594 181.503906 " fill-opacity="1" fill-rule="nonzero"/><path fill="#371a45" d="M 317.183594 181.515625 C 313.472656 181.410156 310.5 179.933594 308.988281 179.007812 C 306.824219 171.890625 317.8125 154.699219 324.785156 144.777344 C 328.207031 139.914062 328.863281 133.617188 326.507812 128.15625 C 318.644531 109.871094 303.253906 78.5 303.253906 78.5 L 300.140625 72.40625 C 302.53125 69.609375 304.066406 67.96875 304.066406 67.96875 L 309.464844 78.5 C 309.464844 78.5 331.824219 124.078125 336.402344 137.390625 C 336.402344 137.378906 306.597656 175.769531 317.183594 181.515625 Z M 317.183594 181.515625 " fill-opacity="0.3" fill-rule="nonzero"/><path fill="#ffffff" d="M 287.792969 95.261719 C 288.816406 96.152344 288.386719 98.59375 286.78125 100.792969 C 285.570312 102.460938 284.023438 103.53125 282.835938 103.648438 C 279.398438 109.941406 276.671875 116.238281 275.484375 121.804688 L 283.273438 133.75 C 281.464844 136.152344 280.3125 138.734375 280.3125 138.734375 L 271.511719 123.636719 C 272.140625 101.9375 303.851562 67.96875 303.851562 67.96875 L 305.21875 71.691406 C 300.804688 76.796875 293.90625 85.613281 287.792969 95.261719 Z M 287.792969 95.261719 " fill-opacity="0.6" fill-rule="nonzero"/><path fill="#371a45" d="M 316.933594 181.503906 C 311.5 181.339844 307.65625 178.257812 307.65625 178.257812 C 298.617188 169.273438 297.832031 157.28125 297.832031 157.28125 C 300.328125 147.441406 297.5 136.878906 293.457031 132.179688 C 294.679688 131.429688 296.023438 131.121094 297.402344 131.644531 C 302.804688 133.726562 307.75 146.894531 304.695312 158.960938 C 304.695312 158.960938 305.480469 170.964844 314.519531 179.933594 C 314.519531 179.933594 315.183594 180.457031 316.339844 181.089844 C 316.515625 181.253906 316.71875 181.386719 316.933594 181.503906 Z M 316.933594 181.503906 " fill-opacity="0.2" fill-rule="nonzero"/><path fill="#ffffff" d="M 346.882812 137.007812 L 317.195312 181.515625 L 317.183594 181.515625 C 306.597656 175.769531 336.414062 137.390625 336.414062 137.390625 C 331.835938 124.089844 309.476562 78.5 309.476562 78.5 C 311.996094 74.546875 317.660156 80.558594 317.660156 80.558594 Z M 346.882812 137.007812 " fill-opacity="1" fill-rule="nonzero"/><path fill="#5f77e6" d="M 353.484375 136.84375 C 353.484375 136.84375 344.683594 156.34375 332.730469 172.464844 C 327.304688 179.769531 321.703125 181.648438 317.183594 181.503906 L 346.871094 136.996094 L 317.636719 80.558594 L 321.40625 75.214844 Z M 353.484375 136.84375 " fill-opacity="1" fill-rule="nonzero"/><g clip-path="url(#58b99134a0)"><path fill="#371a45" d="M 250.445312 228.308594 C 240.671875 228.308594 233.535156 224.085938 230.738281 219.765625 C 225.71875 212.035156 224.636719 197.6875 228.382812 188.441406 C 230.632812 182.910156 234.378906 179.398438 239.230469 178.292969 C 253.324219 175.09375 265.863281 164.21875 268.300781 156.460938 C 270.65625 148.988281 275.984375 142.042969 278.148438 139.425781 L 270.046875 125.527344 C 269.859375 125.207031 269.773438 124.851562 269.785156 124.480469 C 270.429688 102.316406 301.316406 68.089844 302.625 66.636719 C 303.066406 66.148438 303.71875 65.921875 304.363281 66.019531 C 305.003906 66.113281 305.5625 66.53125 305.847656 67.125 L 310.203125 76.355469 C 310.59375 76.214844 310.988281 76.144531 311.320312 76.105469 C 313.53125 75.90625 315.804688 77.285156 317.324219 78.511719 L 319.824219 74.976562 C 320.214844 74.417969 320.871094 74.109375 321.558594 74.15625 C 322.238281 74.203125 322.84375 74.597656 323.164062 75.203125 L 355.230469 136.84375 C 355.503906 137.378906 355.527344 138.007812 355.277344 138.554688 C 355.195312 138.757812 346.25 158.4375 334.324219 174.535156 C 330.0625 180.28125 325.175781 183.539062 319.800781 184.242188 C 314.898438 184.871094 310.832031 183.183594 308.574219 181.921875 C 285.402344 221.457031 262.886719 227.964844 251.421875 228.285156 C 251.089844 228.296875 250.769531 228.308594 250.445312 228.308594 Z M 273.722656 124.054688 L 282.238281 138.652344 C 282.667969 139.390625 282.574219 140.316406 282 140.949219 C 281.929688 141.03125 274.699219 149.15625 272.035156 157.640625 C 268.871094 167.691406 254.253906 178.898438 240.101562 182.125 C 236.496094 182.945312 233.785156 185.5625 232.011719 189.929688 C 228.382812 198.863281 230.15625 211.699219 234.023438 217.636719 C 236.246094 221.050781 242.585938 224.621094 251.304688 224.382812 C 262.113281 224.074219 283.617188 217.671875 306.195312 178.210938 C 306.480469 177.710938 306.964844 177.363281 307.527344 177.257812 C 308.085938 177.152344 308.667969 177.292969 309.121094 177.652344 C 309.15625 177.6875 313.613281 181.125 319.324219 180.363281 C 323.59375 179.792969 327.566406 177.054688 331.160156 172.214844 C 341.445312 158.339844 349.464844 141.734375 351.292969 137.804688 L 321.15625 79.867188 L 319.242188 82.589844 C 318.90625 83.066406 318.359375 83.375 317.777344 83.410156 C 317.195312 83.460938 316.613281 83.234375 316.21875 82.804688 C 315.054688 81.566406 312.816406 79.914062 311.6875 80.019531 C 311.570312 80.035156 311.378906 80.046875 311.128906 80.449219 C 310.75 81.054688 310.070312 81.402344 309.355469 81.355469 C 308.644531 81.304688 308.011719 80.878906 307.703125 80.234375 L 303.589844 71.503906 C 296.808594 79.367188 274.675781 106.375 273.722656 124.054688 Z M 273.722656 124.054688 " fill-opacity="1" fill-rule="nonzero"/></g><path fill="#371a45" d="M 307.894531 181.125 C 307.394531 181.125 306.894531 180.933594 306.515625 180.554688 C 297.058594 171.15625 296.15625 158.839844 296.121094 158.316406 C 296.109375 158.117188 296.121094 157.902344 296.179688 157.710938 C 299.023438 146.515625 294.453125 134.390625 290.089844 132.703125 C 287.355469 131.644531 283.617188 137.570312 282.335938 140.4375 C 281.894531 141.421875 280.730469 141.863281 279.742188 141.421875 C 278.753906 140.984375 278.3125 139.828125 278.753906 138.839844 C 279.324219 137.558594 284.546875 126.386719 291.480469 129.050781 C 297.988281 131.558594 303.160156 145.503906 300.042969 158.339844 C 300.234375 160.136719 301.625 170.191406 309.273438 177.78125 C 310.046875 178.542969 310.046875 179.78125 309.285156 180.554688 C 308.90625 180.933594 308.394531 181.125 307.894531 181.125 Z M 307.894531 181.125 " fill-opacity="1" fill-rule="nonzero"/><path fill="#371a45" d="M 317.183594 184.382812 C 316.875 184.382812 316.554688 184.3125 316.253906 184.148438 C 314.625 183.265625 313.554688 181.777344 313.140625 179.839844 C 310.902344 169.226562 329.839844 143.660156 334.203125 137.9375 C 329.03125 123.753906 307.929688 80.710938 307.703125 80.257812 C 307.226562 79.285156 307.632812 78.117188 308.597656 77.640625 C 309.570312 77.164062 310.738281 77.570312 311.210938 78.535156 C 312.128906 80.402344 333.679688 124.375 338.246094 137.640625 C 338.460938 138.269531 338.34375 138.960938 337.9375 139.484375 C 331.527344 147.742188 315.257812 170.953125 316.957031 179.019531 C 317.183594 180.078125 317.683594 180.46875 318.097656 180.683594 C 319.050781 181.195312 319.40625 182.386719 318.894531 183.335938 C 318.550781 184.003906 317.875 184.382812 317.183594 184.382812 Z M 317.183594 184.382812 " fill-opacity="1" fill-rule="nonzero"/><path fill="#371a45" d="M 317.183594 184.382812 C 316.816406 184.382812 316.433594 184.277344 316.101562 184.050781 C 315.195312 183.457031 314.960938 182.230469 315.554688 181.339844 L 344.609375 137.792969 L 315.898438 82.363281 C 315.398438 81.402344 315.78125 80.222656 316.730469 79.722656 C 317.695312 79.222656 318.871094 79.605469 319.371094 80.558594 L 348.605469 137.007812 C 348.941406 137.640625 348.890625 138.402344 348.5 138.996094 L 318.8125 183.503906 C 318.433594 184.074219 317.8125 184.382812 317.183594 184.382812 Z M 317.183594 184.382812 " fill-opacity="1" fill-rule="nonzero"/><path fill="#413757" d="M 136.078125 242.347656 C 114.859375 291.589844 44.113281 227.214844 44.113281 227.214844 L 41.925781 230.902344 L 41.28125 231.972656 C 41.28125 231.972656 37.726562 234.164062 33.742188 235.792969 C 30.199219 237.246094 26.308594 238.253906 24.308594 236.875 C 22.207031 235.425781 21.597656 231.640625 21.539062 228.203125 C 21.480469 224.714844 21.957031 221.585938 21.957031 221.585938 L 23.3125 219.078125 L 29.816406 207.097656 C 28.03125 197.148438 30.613281 191.046875 34.207031 187.3125 C 39.152344 182.171875 46.003906 181.515625 46.003906 181.515625 L 47.644531 178.6875 L 57.328125 162.019531 C 57.328125 162.019531 61.097656 155.832031 70.066406 160.019531 C 79.023438 164.207031 76.023438 173.378906 76.023438 173.378906 L 68.175781 188.476562 C 75.597656 192.402344 77.605469 203.957031 95.222656 206.277344 C 96.933594 206.5 98.777344 206.871094 100.703125 207.359375 C 108.457031 209.332031 117.449219 213.355469 124.5625 218.53125 C 133.710938 225.191406 139.773438 233.757812 136.078125 242.347656 Z M 136.078125 242.347656 " fill-opacity="1" fill-rule="nonzero"/><path fill="#ffffff" d="M 100.691406 207.359375 C 108.445312 209.332031 117.4375 213.355469 124.550781 218.53125 C 109.554688 219.566406 88.796875 215.664062 73.894531 200.351562 C 59.933594 186.003906 43.996094 185.65625 34.207031 187.324219 C 39.152344 182.183594 46.003906 181.527344 46.003906 181.527344 L 47.644531 178.699219 L 57.328125 162.03125 C 57.328125 162.03125 61.097656 155.84375 70.066406 160.03125 C 79.023438 164.21875 76.023438 173.390625 76.023438 173.390625 L 68.175781 188.488281 C 75.597656 192.414062 77.605469 203.96875 95.222656 206.289062 C 96.933594 206.5 98.777344 206.871094 100.691406 207.359375 Z M 100.691406 207.359375 " fill-opacity="0.6" fill-rule="nonzero"/><path fill="#371a45" d="M 136.078125 242.347656 C 114.859375 291.589844 44.113281 227.214844 44.113281 227.214844 L 41.925781 230.902344 L 41.28125 231.972656 C 41.28125 231.972656 37.726562 234.164062 33.742188 235.792969 C 30.199219 237.246094 26.308594 238.253906 24.308594 236.875 C 22.207031 235.425781 21.597656 231.640625 21.539062 228.203125 C 21.480469 224.714844 21.957031 221.585938 21.957031 221.585938 L 23.3125 219.078125 L 29.816406 207.097656 C 25.570312 183.46875 46.003906 181.515625 46.003906 181.515625 L 47.644531 178.6875 C 51 180.328125 53.332031 181.515625 53.332031 181.515625 C 53.332031 181.515625 48.429688 197.554688 69.648438 209.738281 L 61.253906 209.738281 C 61.253906 209.738281 76.796875 255.386719 102.296875 242.40625 C 117.285156 234.78125 109.589844 219.042969 100.703125 207.359375 C 118.414062 211.878906 142.652344 227.082031 136.078125 242.347656 Z M 136.078125 242.347656 " fill-opacity="0.4" fill-rule="nonzero"/><path fill="#5eb545" d="M 76.011719 172.582031 L 68.164062 187.679688 C 68.164062 187.679688 64.605469 186.039062 60.574219 185.5625 C 57.078125 185.144531 53.210938 185.632812 51.023438 188.847656 C 48.40625 192.6875 49.714844 197.351562 51.390625 200.730469 C 52.738281 203.445312 54.332031 205.347656 54.332031 205.347656 L 44.101562 226.40625 L 41.914062 230.082031 C 40.4375 227.523438 38.785156 225.5 37.058594 223.90625 C 34.40625 221.46875 31.589844 220.027344 28.9375 219.21875 C 26.890625 218.589844 24.953125 218.328125 23.300781 218.269531 L 29.804688 206.289062 L 45.992188 180.707031 L 57.316406 161.207031 C 57.316406 161.207031 61.085938 155.035156 70.054688 159.210938 C 70.46875 159.398438 70.851562 159.601562 71.207031 159.816406 C 71.363281 159.898438 71.515625 159.996094 71.660156 160.089844 C 78.628906 164.574219 76.011719 172.582031 76.011719 172.582031 Z M 76.011719 172.582031 " fill-opacity="1" fill-rule="nonzero"/><path fill="#f9e7ce" d="M 41.914062 230.105469 L 41.269531 231.175781 C 41.269531 231.175781 37.714844 233.367188 33.730469 234.996094 C 32.875 232.414062 31.589844 230.640625 30.125 229.476562 C 28.617188 228.261719 26.902344 227.667969 25.25 227.429688 C 23.929688 227.238281 22.644531 227.273438 21.515625 227.40625 C 21.457031 223.929688 21.929688 220.789062 21.929688 220.789062 L 23.289062 218.28125 C 24.953125 218.351562 26.890625 218.601562 28.925781 219.230469 C 31.566406 220.039062 34.394531 221.480469 37.046875 223.917969 C 38.796875 225.527344 40.449219 227.546875 41.914062 230.105469 Z M 41.914062 230.105469 " fill-opacity="1" fill-rule="nonzero"/><path fill="#5eb545" d="M 33.742188 234.996094 C 30.578125 236.292969 27.128906 237.246094 25.011719 236.433594 C 24.761719 236.339844 24.523438 236.222656 24.308594 236.078125 C 23.121094 235.257812 22.417969 233.710938 22.015625 231.890625 C 21.695312 230.476562 21.5625 228.902344 21.539062 227.40625 C 22.65625 227.261719 23.953125 227.226562 25.273438 227.429688 C 26.925781 227.65625 28.628906 228.261719 30.148438 229.476562 C 31.601562 230.640625 32.886719 232.414062 33.742188 234.996094 Z M 33.742188 234.996094 " fill-opacity="1" fill-rule="nonzero"/><path fill="#ffffff" d="M 71.207031 159.839844 C 68.542969 159.792969 64.558594 160.398438 62.300781 163.96875 C 60.085938 167.492188 47.003906 189.214844 37.308594 205.347656 C 38.523438 206.179688 38.34375 208.726562 36.917969 211.128906 C 35.480469 213.558594 33.277344 214.914062 31.980469 214.210938 C 30.816406 216.148438 29.792969 217.863281 28.960938 219.253906 C 27.460938 221.753906 26.570312 223.230469 26.570312 223.230469 C 26.570312 223.230469 25.832031 224.941406 25.273438 227.441406 C 24.703125 229.964844 24.296875 233.292969 25.023438 236.445312 C 24.773438 236.351562 24.535156 236.234375 24.320312 236.089844 C 23.132812 235.269531 22.429688 233.722656 22.027344 231.902344 C 21.707031 230.488281 21.574219 228.917969 21.550781 227.417969 C 21.492188 223.941406 21.96875 220.800781 21.96875 220.800781 L 23.324219 218.292969 L 29.828125 206.3125 L 46.015625 180.730469 L 57.339844 161.230469 C 57.339844 161.230469 61.109375 155.058594 70.078125 159.234375 C 70.46875 159.425781 70.851562 159.625 71.207031 159.839844 Z M 71.207031 159.839844 " fill-opacity="0.6" fill-rule="nonzero"/><path fill="#371a45" d="M 29.804688 209.058594 C 29.449219 209.058594 29.078125 208.964844 28.757812 208.75 C 27.84375 208.167969 27.570312 206.964844 28.152344 206.050781 L 44.339844 180.46875 C 44.921875 179.554688 46.125 179.28125 47.039062 179.863281 C 47.957031 180.445312 48.230469 181.648438 47.644531 182.5625 L 31.457031 208.144531 C 31.089844 208.738281 30.460938 209.058594 29.804688 209.058594 Z M 29.804688 209.058594 " fill-opacity="1" fill-rule="nonzero"/><path fill="#371a45" d="M 51.40625 200.742188 C 52.75 203.457031 54.34375 205.359375 54.34375 205.359375 L 44.113281 226.417969 L 41.925781 230.09375 L 41.28125 231.164062 C 41.28125 231.164062 37.726562 233.355469 33.742188 234.984375 C 30.199219 236.445312 26.308594 237.445312 24.308594 236.066406 C 23.121094 235.246094 23.261719 236.136719 22.859375 234.316406 C 26.070312 233.960938 29.03125 232.558594 31.03125 231.058594 C 34.207031 228.667969 35.714844 225.539062 37.074219 223.917969 C 38.144531 222.644531 38.640625 221.730469 38.640625 221.730469 C 38.640625 221.730469 44.636719 211.902344 51.40625 200.742188 Z M 51.40625 200.742188 " fill-opacity="0.3" fill-rule="nonzero"/><path fill="#371a45" d="M 76.011719 172.582031 L 68.164062 187.679688 C 68.164062 187.679688 64.605469 186.039062 60.574219 185.5625 C 64.785156 178.554688 68.316406 172.664062 69.636719 170.320312 C 71.71875 166.644531 71.957031 162.945312 71.660156 160.113281 C 78.628906 164.574219 76.011719 172.582031 76.011719 172.582031 Z M 76.011719 172.582031 " fill-opacity="0.3" fill-rule="nonzero"/><g clip-path="url(#ae6948d16e)"><path fill="#371a45" d="M 109.625 262.859375 C 83.957031 262.859375 52.464844 237.066406 44.589844 230.25 L 42.972656 232.972656 C 42.804688 233.246094 42.578125 233.472656 42.316406 233.640625 C 42.164062 233.734375 38.582031 235.9375 34.492188 237.601562 C 29.1875 239.777344 25.488281 240.074219 23.203125 238.480469 C 20.910156 236.886719 19.683594 233.4375 19.589844 228.238281 C 19.527344 224.632812 20.003906 221.421875 20.027344 221.289062 C 20.0625 221.0625 20.136719 220.851562 20.242188 220.648438 L 27.785156 206.761719 C 26.5 198.910156 27.710938 192.476562 31.375 187.632812 C 35.742188 181.875 42.269531 180.171875 44.792969 179.722656 L 55.636719 161.042969 C 57.28125 158.351562 62.550781 154.355469 70.898438 158.246094 C 79.222656 162.136719 79.117188 170.238281 77.890625 173.984375 C 77.855469 174.09375 77.820312 174.1875 77.773438 174.285156 L 70.753906 187.773438 C 72.777344 189.226562 74.417969 191.128906 76.144531 193.128906 C 80.09375 197.710938 84.550781 202.898438 95.484375 204.335938 C 109.554688 206.191406 129.925781 216.53125 136.660156 228.40625 C 139.515625 233.4375 139.929688 238.398438 137.882812 243.132812 C 133.328125 253.699219 126.203125 260.085938 116.703125 262.144531 C 114.40625 262.632812 112.039062 262.859375 109.625 262.859375 Z M 44.113281 225.25 C 44.601562 225.25 45.066406 225.429688 45.433594 225.761719 C 45.863281 226.144531 88.191406 264.285156 115.867188 258.300781 C 124.0625 256.53125 130.25 250.902344 134.28125 241.574219 C 135.816406 238.019531 135.457031 234.246094 133.246094 230.332031 C 127.074219 219.457031 108.113281 209.953125 94.960938 208.214844 C 82.554688 206.585938 77.34375 200.542969 73.15625 195.6875 C 71.160156 193.367188 69.433594 191.355469 67.257812 190.214844 C 66.308594 189.714844 65.9375 188.535156 66.4375 187.574219 L 74.203125 172.628906 C 74.5625 171.40625 76.035156 164.96875 69.234375 161.792969 C 62.261719 158.542969 59.363281 162.480469 59.003906 163.039062 L 47.707031 182.503906 C 47.382812 183.050781 46.824219 183.410156 46.195312 183.46875 C 46.125 183.480469 38.796875 184.277344 34.46875 190.023438 C 31.398438 194.09375 30.484375 199.71875 31.742188 206.75 C 31.828125 207.191406 31.753906 207.644531 31.542969 208.035156 L 23.847656 222.207031 C 23.738281 223.074219 23.453125 225.527344 23.5 228.167969 C 23.574219 231.820312 24.296875 234.472656 25.429688 235.257812 C 26.226562 235.816406 28.640625 235.769531 33.003906 233.972656 C 36.039062 232.734375 38.84375 231.140625 39.855469 230.535156 L 42.4375 226.203125 C 42.734375 225.703125 43.246094 225.359375 43.828125 225.261719 C 43.921875 225.265625 44.019531 225.25 44.113281 225.25 Z M 136.078125 242.347656 Z M 136.078125 242.347656 " fill-opacity="1" fill-rule="nonzero"/></g><g clip-path="url(#929920b1ff)"><path fill="#371a45" d="M 26.867188 239.492188 C 25.378906 239.492188 24.167969 239.160156 23.203125 238.492188 C 20.910156 236.898438 19.683594 233.449219 19.589844 228.25 C 19.527344 224.644531 20.003906 221.433594 20.027344 221.300781 C 20.0625 221.074219 20.136719 220.863281 20.242188 220.660156 L 21.609375 218.148438 C 21.96875 217.496094 22.667969 217.101562 23.40625 217.125 C 28.320312 217.316406 37.476562 219.242188 43.636719 229.914062 C 43.996094 230.535156 43.984375 231.285156 43.625 231.890625 L 42.984375 232.960938 C 42.816406 233.234375 42.589844 233.460938 42.328125 233.628906 C 42.175781 233.722656 38.59375 235.921875 34.503906 237.589844 C 31.421875 238.863281 28.890625 239.492188 26.867188 239.492188 Z M 23.835938 222.207031 C 23.726562 223.074219 23.441406 225.527344 23.488281 228.167969 C 23.5625 231.820312 24.285156 234.472656 25.417969 235.257812 C 26.214844 235.804688 28.628906 235.769531 32.992188 233.972656 C 35.742188 232.84375 38.308594 231.425781 39.523438 230.722656 C 35.015625 223.707031 29.066406 221.5625 24.429688 221.113281 Z M 23.835938 222.207031 " fill-opacity="1" fill-rule="nonzero"/></g><g clip-path="url(#6ec83a3570)"><path fill="#371a45" d="M 26.855469 239.492188 C 25.367188 239.492188 24.15625 239.160156 23.191406 238.492188 C 20.898438 236.898438 19.671875 233.449219 19.578125 228.25 C 19.554688 227.25 20.300781 226.394531 21.300781 226.261719 C 28.210938 225.417969 33.433594 228.667969 35.609375 235.175781 C 35.929688 236.148438 35.453125 237.21875 34.492188 237.601562 C 31.421875 238.863281 28.890625 239.492188 26.855469 239.492188 Z M 23.597656 230.035156 C 23.847656 232.710938 24.488281 234.613281 25.429688 235.257812 C 26.105469 235.734375 27.949219 235.769531 31.171875 234.664062 C 29.625 231.628906 27.082031 230.082031 23.597656 230.035156 Z M 23.597656 230.035156 " fill-opacity="1" fill-rule="nonzero"/></g><path fill="#371a45" d="M 44.113281 229.179688 C 43.828125 229.179688 43.53125 229.117188 43.257812 228.976562 C 42.28125 228.5 41.878906 227.332031 42.351562 226.359375 L 52.046875 206.382812 C 49.964844 203.503906 44.863281 195.222656 49.417969 188.535156 C 55.007812 180.339844 68.425781 186.429688 68.996094 186.691406 C 69.984375 187.144531 70.398438 188.3125 69.945312 189.296875 C 69.496094 190.273438 68.328125 190.703125 67.355469 190.25 C 67.234375 190.203125 56.316406 185.371094 52.652344 190.75 C 48.835938 196.351562 55.769531 204.8125 55.839844 204.90625 C 56.328125 205.503906 56.433594 206.324219 56.101562 207.011719 L 45.886719 228.070312 C 45.539062 228.773438 44.839844 229.179688 44.113281 229.179688 Z M 44.113281 229.179688 " fill-opacity="1" fill-rule="nonzero"/><path fill="#fffdff" d="M 274.722656 248.429688 C 274.722656 250.9375 274.605469 253.425781 274.378906 255.886719 C 274.105469 258.8125 273.675781 261.707031 273.105469 264.546875 C 265.613281 301.574219 233.011719 331.171875 193.914062 333.671875 C 168.34375 335.3125 145.53125 325.011719 130.722656 307.582031 C 129.9375 306.652344 129.179688 305.714844 128.429688 304.75 C 125.992188 301.574219 123.800781 298.183594 121.898438 294.601562 C 121.648438 294.125 121.398438 293.660156 121.160156 293.183594 C 120.675781 292.234375 120.222656 291.269531 119.78125 290.28125 C 118.699219 287.902344 117.746094 285.453125 116.914062 282.941406 C 116.464844 281.574219 116.058594 280.195312 115.679688 278.789062 C 113.988281 272.460938 113.097656 265.761719 113.097656 258.800781 C 113.097656 257.492188 113.132812 256.195312 113.191406 254.898438 C 113.574219 247.132812 115.046875 239.574219 117.5 232.402344 C 119.792969 225.644531 122.945312 219.230469 126.8125 213.28125 C 127.644531 212.011719 128.5 210.761719 129.390625 209.535156 C 130.449219 208.097656 131.53125 206.679688 132.675781 205.300781 C 134.398438 203.21875 136.21875 201.195312 138.121094 199.28125 C 138.621094 198.78125 139.121094 198.28125 139.621094 197.792969 C 140.441406 197.007812 141.261719 196.234375 142.117188 195.484375 C 156.140625 182.96875 174.207031 174.820312 193.902344 173.558594 C 206.429688 172.75 218.273438 174.808594 228.847656 179.171875 C 230.609375 179.898438 232.332031 180.683594 234.011719 181.527344 C 241.015625 185.050781 247.355469 189.621094 252.824219 195.054688 C 253.742188 195.960938 254.632812 196.886719 255.488281 197.851562 C 258.664062 201.351562 261.507812 205.144531 263.96875 209.226562 C 268.515625 216.746094 271.761719 225.191406 273.425781 234.28125 C 273.914062 236.945312 274.269531 239.660156 274.472656 242.417969 C 274.652344 244.382812 274.722656 246.394531 274.722656 248.429688 Z M 274.722656 248.429688 " fill-opacity="1" fill-rule="nonzero"/><path fill="#371a45" d="M 274.722656 248.429688 C 274.722656 250.9375 274.605469 253.425781 274.378906 255.886719 C 270.582031 296.863281 236.007812 330.984375 193.914062 333.683594 C 162.503906 335.707031 135.269531 319.691406 121.898438 294.613281 C 119.925781 290.914062 118.257812 287.023438 116.914062 282.953125 C 116.464844 281.585938 116.058594 280.207031 115.679688 278.800781 C 133.722656 298.289062 165.976562 319.109375 206.726562 309.414062 C 247.617188 299.679688 266.789062 262.941406 274.484375 242.417969 C 274.652344 244.382812 274.722656 246.394531 274.722656 248.429688 Z M 274.722656 248.429688 " fill-opacity="0.3" fill-rule="nonzero"/><path fill="#413757" d="M 263.996094 209.214844 C 230.75 278.515625 135.945312 260.382812 113.203125 254.898438 C 113.929688 239.8125 118.855469 225.550781 126.835938 213.28125 C 130.5 207.65625 134.804688 202.445312 139.65625 197.78125 C 154 183.96875 173.042969 174.890625 193.929688 173.546875 C 208.535156 172.605469 222.222656 175.570312 234.046875 181.515625 C 241.039062 185.039062 247.390625 189.609375 252.863281 195.054688 C 257.121094 199.28125 260.855469 204.027344 263.996094 209.214844 Z M 263.996094 209.214844 " fill-opacity="1" fill-rule="nonzero"/><path fill="#371a45" d="M 188.585938 335.8125 C 159.484375 335.8125 133.601562 320.714844 120.175781 295.527344 C 118.140625 291.722656 116.429688 287.699219 115.058594 283.558594 C 112.457031 275.660156 111.148438 267.332031 111.148438 258.800781 C 111.148438 257.503906 111.183594 256.160156 111.242188 254.804688 C 111.96875 239.851562 116.785156 225.121094 125.183594 212.210938 C 128.917969 206.464844 133.316406 201.136719 138.289062 196.363281 C 153.5 181.707031 173.207031 172.914062 193.796875 171.59375 C 208.234375 170.667969 222.449219 173.5 234.914062 179.769531 C 242.085938 183.375 248.578125 188.050781 254.230469 193.664062 C 258.617188 198.019531 262.472656 202.910156 265.671875 208.203125 C 270.429688 216.089844 273.699219 224.738281 275.375 233.914062 C 276.246094 238.636719 276.683594 243.527344 276.683594 248.425781 C 276.683594 250.949219 276.566406 253.53125 276.328125 256.066406 C 274.449219 276.433594 265.054688 295.777344 249.875 310.542969 C 234.605469 325.390625 214.777344 334.300781 194.035156 335.636719 C 192.214844 335.753906 190.394531 335.8125 188.585938 335.8125 Z M 199.160156 175.332031 C 197.460938 175.332031 195.757812 175.390625 194.046875 175.496094 C 174.386719 176.757812 155.546875 185.167969 141 199.183594 C 136.253906 203.753906 132.03125 208.84375 128.464844 214.34375 C 120.449219 226.667969 115.84375 240.71875 115.15625 254.984375 C 115.097656 256.269531 115.058594 257.554688 115.058594 258.789062 C 115.058594 266.902344 116.308594 274.828125 118.78125 282.324219 C 120.078125 286.238281 121.707031 290.054688 123.636719 293.671875 C 136.375 317.5625 160.945312 331.875 188.597656 331.875 C 190.324219 331.875 192.046875 331.816406 193.796875 331.707031 C 234.867188 329.066406 268.667969 296.386719 272.4375 255.683594 C 272.664062 253.257812 272.773438 250.808594 272.773438 248.402344 C 272.773438 243.738281 272.355469 239.101562 271.523438 234.601562 C 269.929688 225.894531 266.824219 217.683594 262.316406 210.203125 C 259.285156 205.179688 255.632812 200.542969 251.480469 196.425781 C 246.117188 191.105469 239.957031 186.667969 233.152344 183.253906 C 222.78125 178.042969 211.125 175.332031 199.160156 175.332031 Z M 199.160156 175.332031 " fill-opacity="1" fill-rule="nonzero"/><path fill="#371a45" d="M 274.722656 248.429688 C 274.722656 250.9375 274.605469 253.425781 274.378906 255.886719 C 274.105469 258.8125 273.675781 261.707031 273.105469 264.546875 C 240.492188 249.582031 231.261719 199.089844 228.859375 179.160156 C 230.621094 179.886719 232.34375 180.671875 234.023438 181.515625 C 241.027344 185.039062 247.367188 189.609375 252.835938 195.042969 C 253.753906 195.949219 254.644531 196.875 255.503906 197.839844 C 258.675781 201.339844 261.519531 205.132812 263.980469 209.214844 C 268.527344 216.734375 271.773438 225.179688 273.4375 234.269531 C 273.925781 236.933594 274.28125 239.648438 274.484375 242.40625 C 274.652344 244.382812 274.722656 246.394531 274.722656 248.429688 Z M 274.722656 248.429688 " fill-opacity="0.2" fill-rule="nonzero"/><path fill="#ea7344" d="M 274.722656 248.429688 C 274.722656 250.9375 274.605469 253.425781 274.378906 255.886719 C 253.457031 246.109375 234.046875 203.015625 234.023438 181.515625 C 241.015625 185.039062 247.367188 189.609375 252.835938 195.054688 C 256.546875 213.035156 267.132812 227.15625 273.4375 234.269531 C 274.28125 238.839844 274.722656 243.5625 274.722656 248.429688 Z M 274.722656 248.429688 " fill-opacity="1" fill-rule="nonzero"/><path fill="#ffffff" d="M 273.9375 234.902344 C 260.023438 229.09375 249.042969 203.132812 248.507812 191.070312 C 250.660156 192.773438 251.601562 193.972656 253.539062 195.914062 C 257.214844 213.699219 267.621094 227.714844 273.9375 234.902344 Z M 273.9375 234.902344 " fill-opacity="0.6" fill-rule="nonzero"/><path fill="#371a45" d="M 274.722656 248.429688 C 274.722656 250.9375 274.605469 253.425781 274.378906 255.886719 C 253.527344 246.132812 234.175781 203.3125 234.035156 181.742188 C 234.035156 181.660156 234.035156 181.589844 234.035156 181.515625 C 234.152344 181.578125 234.285156 181.648438 234.402344 181.707031 C 236.351562 182.707031 238.246094 183.777344 240.085938 184.933594 C 242.644531 195.675781 252.136719 228.546875 273.6875 235.636719 C 274.367188 239.777344 274.722656 244.050781 274.722656 248.429688 Z M 274.722656 248.429688 " fill-opacity="0.3" fill-rule="nonzero"/><path fill="#371a45" d="M 274.378906 257.851562 C 274.09375 257.851562 273.808594 257.789062 273.546875 257.660156 C 252.183594 247.667969 232.070312 206.289062 232.070312 181.515625 C 232.070312 180.839844 232.429688 180.207031 233 179.851562 C 233.582031 179.496094 234.296875 179.460938 234.902344 179.769531 C 242.074219 183.375 248.566406 188.050781 254.21875 193.664062 C 254.492188 193.9375 254.679688 194.28125 254.753906 194.664062 C 258.402344 212.308594 268.941406 226.238281 274.902344 232.972656 C 275.140625 233.234375 275.292969 233.566406 275.363281 233.914062 C 276.234375 238.648438 276.671875 243.527344 276.671875 248.429688 C 276.671875 250.949219 276.554688 253.53125 276.316406 256.066406 C 276.257812 256.695312 275.886719 257.265625 275.339844 257.589844 C 275.054688 257.753906 274.722656 257.851562 274.378906 257.851562 Z M 236.113281 184.847656 C 237.707031 207.296875 254.65625 241.957031 272.652344 252.746094 C 272.734375 251.308594 272.773438 249.855469 272.773438 248.429688 C 272.773438 243.941406 272.378906 239.480469 271.617188 235.148438 C 265.410156 228.046875 254.917969 213.925781 251.066406 196.03125 C 246.59375 191.675781 241.574219 187.917969 236.113281 184.847656 Z M 236.113281 184.847656 " fill-opacity="1" fill-rule="nonzero"/><path fill="#371a45" d="M 132.816406 307.378906 C 132.117188 307.449219 131.414062 307.523438 130.734375 307.59375 C 129.949219 306.664062 129.191406 305.726562 128.441406 304.761719 C 126.003906 301.585938 123.8125 298.195312 121.910156 294.613281 C 121.660156 294.136719 121.410156 293.671875 121.171875 293.199219 C 135.875 291.234375 150.503906 285.691406 153.308594 271.828125 C 159.28125 242.394531 150.515625 233.902344 147.886719 226.074219 C 146.484375 221.886719 137.527344 215.175781 129.402344 209.535156 C 130.460938 208.097656 131.542969 206.679688 132.6875 205.300781 C 134.410156 203.21875 136.230469 201.195312 138.132812 199.28125 C 150.515625 209.046875 169.984375 226.5 171.949219 241.050781 C 174.410156 259.347656 174.230469 303.144531 132.816406 307.378906 Z M 132.816406 307.378906 " fill-opacity="0.2" fill-rule="nonzero"/><path fill="#ea7344" d="M 165.789062 256.316406 C 163.277344 293.460938 133.734375 295.351562 121.910156 294.601562 C 120.53125 292.019531 118.570312 286.808594 117.058594 282.511719 C 116.402344 280.65625 115.832031 278.96875 115.429688 277.742188 C 124.3125 278.789062 147.183594 284.109375 148.183594 256.304688 C 148.410156 250.082031 147.746094 244.644531 146.519531 239.921875 C 142.511719 224.476562 132.378906 216.566406 126.824219 213.269531 C 130.484375 207.644531 134.792969 202.433594 139.644531 197.769531 C 150.671875 206.074219 167.953125 224.347656 165.789062 256.316406 Z M 165.789062 256.316406 " fill-opacity="1" fill-rule="nonzero"/><path fill="#ffffff" d="M 146.984375 274.269531 C 138.71875 284.214844 124.421875 284.132812 117.046875 282.511719 C 116.390625 280.65625 115.820312 278.96875 115.417969 277.742188 C 124.300781 278.789062 147.171875 284.109375 148.171875 256.304688 C 148.398438 250.082031 147.566406 239.613281 146.339844 234.886719 C 152.253906 246.25 155.582031 263.917969 146.984375 274.269531 Z M 146.984375 274.269531 " fill-opacity="0.6" fill-rule="nonzero"/><path fill="#371a45" d="M 166.558594 256.648438 C 164.050781 293.792969 134.507812 295.683594 122.671875 294.933594 C 121.648438 293.019531 120.316406 289.664062 119.066406 286.320312 C 132.128906 286.558594 157.996094 282.585938 160.339844 247.929688 C 161.457031 231.308594 157.332031 218.386719 151.5625 208.65625 C 160.207031 218.886719 168.058594 234.472656 166.558594 256.648438 Z M 166.558594 256.648438 " fill-opacity="0.3" fill-rule="nonzero"/><path fill="#371a45" d="M 125.457031 296.671875 C 124.074219 296.671875 122.839844 296.625 121.78125 296.550781 C 121.101562 296.503906 120.496094 296.125 120.175781 295.515625 C 118.199219 291.804688 115.082031 282.988281 113.5625 278.363281 C 113.347656 277.730469 113.476562 277.027344 113.90625 276.503906 C 114.335938 275.980469 114.988281 275.71875 115.65625 275.804688 C 116.308594 275.875 117.046875 275.980469 117.84375 276.089844 C 123.765625 276.898438 133.675781 278.253906 139.894531 273.019531 C 143.820312 269.722656 145.949219 264.074219 146.234375 256.246094 C 147.160156 230.460938 132.269531 218.792969 125.835938 214.960938 C 125.371094 214.6875 125.050781 214.246094 124.933594 213.722656 C 124.8125 213.199219 124.90625 212.652344 125.195312 212.210938 C 128.929688 206.464844 133.328125 201.136719 138.300781 196.363281 C 138.992188 195.699219 140.0625 195.640625 140.832031 196.210938 C 151.847656 204.492188 169.996094 223.335938 167.761719 256.445312 C 166.632812 273.1875 160.078125 284.941406 148.304688 291.390625 C 140.324219 295.742188 131.519531 296.671875 125.457031 296.671875 Z M 123.148438 292.710938 C 135.46875 293.246094 161.527344 290.269531 163.835938 256.183594 C 165.859375 226.226562 150.242188 208.65625 139.800781 200.375 C 136.015625 204.15625 132.578125 208.296875 129.570312 212.699219 C 137.230469 217.792969 151.0625 230.617188 150.148438 256.398438 C 149.824219 265.382812 147.222656 271.984375 142.414062 276.03125 C 135.230469 282.085938 124.933594 281.015625 118.296875 280.121094 C 119.6875 284.179688 121.671875 289.617188 123.148438 292.710938 Z M 123.148438 292.710938 " fill-opacity="1" fill-rule="nonzero"/><path fill="#371a45" d="M 255.515625 197.839844 C 205.144531 268.390625 135.515625 241.121094 117.5 232.402344 C 119.792969 225.644531 122.945312 219.230469 126.8125 213.28125 C 130.472656 207.65625 134.78125 202.445312 139.632812 197.78125 C 153.976562 183.96875 173.019531 174.890625 193.914062 173.546875 C 208.523438 172.605469 222.210938 175.570312 234.035156 181.515625 C 241.039062 185.039062 247.378906 189.609375 252.851562 195.042969 C 253.765625 195.960938 254.65625 196.886719 255.515625 197.839844 Z M 255.515625 197.839844 " fill-opacity="0.4" fill-rule="nonzero"/><path fill="#413757" d="M 52.546875 105.515625 C 52.582031 105.601562 52.617188 105.695312 52.664062 105.765625 C 58.753906 119.246094 74.492188 125.375 87.964844 119.460938 C 101.523438 113.5 107.636719 97.59375 101.644531 83.933594 C 100.941406 82.351562 100.121094 80.867188 99.167969 79.484375 C 91.984375 68.980469 78.214844 64.722656 66.222656 69.992188 C 52.664062 75.953125 46.550781 91.859375 52.546875 105.515625 Z M 52.546875 105.515625 " fill-opacity="1" fill-rule="nonzero"/><path fill="#feffff" d="M 87.179688 90.816406 C 87.46875 91.46875 87.6875 92.144531 87.84375 92.84375 C 88 93.542969 88.085938 94.246094 88.101562 94.960938 C 88.121094 95.675781 88.070312 96.382812 87.949219 97.085938 C 87.824219 97.789062 87.636719 98.472656 87.382812 99.136719 C 87.125 99.800781 86.808594 100.433594 86.429688 101.035156 C 86.046875 101.636719 85.613281 102.191406 85.125 102.707031 C 84.632812 103.222656 84.097656 103.683594 83.519531 104.089844 C 82.9375 104.496094 82.324219 104.84375 81.675781 105.128906 C 81.023438 105.414062 80.355469 105.632812 79.660156 105.785156 C 78.96875 105.9375 78.265625 106.023438 77.558594 106.035156 C 76.847656 106.046875 76.144531 105.992188 75.445312 105.867188 C 74.746094 105.738281 74.0625 105.546875 73.402344 105.285156 C 72.738281 105.023438 72.105469 104.703125 71.507812 104.316406 C 70.90625 103.929688 70.351562 103.492188 69.835938 102.996094 C 69.324219 102.5 68.859375 101.960938 68.453125 101.375 C 68.042969 100.789062 67.695312 100.167969 67.40625 99.511719 C 67.121094 98.859375 66.898438 98.183594 66.742188 97.484375 C 66.585938 96.789062 66.5 96.082031 66.484375 95.367188 C 66.464844 94.65625 66.519531 93.945312 66.640625 93.242188 C 66.761719 92.542969 66.949219 91.859375 67.207031 91.191406 C 67.460938 90.527344 67.777344 89.894531 68.160156 89.292969 C 68.539062 88.695312 68.972656 88.136719 69.464844 87.621094 C 69.953125 87.109375 70.488281 86.648438 71.066406 86.238281 C 71.648438 85.832031 72.265625 85.484375 72.914062 85.199219 C 73.5625 84.914062 74.234375 84.695312 74.925781 84.542969 C 75.617188 84.390625 76.320312 84.308594 77.03125 84.292969 C 77.738281 84.28125 78.445312 84.335938 79.144531 84.464844 C 79.84375 84.589844 80.523438 84.78125 81.1875 85.042969 C 81.847656 85.304688 82.480469 85.628906 83.078125 86.011719 C 83.679688 86.398438 84.238281 86.839844 84.75 87.332031 C 85.265625 87.828125 85.726562 88.371094 86.136719 88.957031 C 86.542969 89.542969 86.890625 90.160156 87.179688 90.816406 Z M 87.179688 90.816406 " fill-opacity="1" fill-rule="nonzero"/><path fill="#371a45" d="M 52.664062 105.765625 C 58.753906 119.246094 74.492188 125.375 87.964844 119.460938 C 101.523438 113.5 107.636719 97.59375 101.644531 83.933594 C 100.941406 82.351562 100.121094 80.867188 99.167969 79.484375 L 98.609375 79.449219 C 97.921875 79.746094 81.339844 84.316406 76.40625 111.632812 C 76.394531 111.621094 63.773438 117.460938 52.664062 105.765625 Z M 52.664062 105.765625 " fill-opacity="0.4" fill-rule="nonzero"/><path fill="#ffffff" d="M 52.4375 105.277344 C 52.902344 106.351562 53.4375 107.359375 54.019531 108.335938 C 50.65625 96.976562 54.484375 83.375 64.046875 76.570312 C 64.679688 77.703125 67.257812 77.6875 69.921875 76.523438 C 72.335938 75.464844 74.015625 73.800781 73.992188 72.574219 C 85.0625 70.917969 96.886719 77.191406 102.726562 86.921875 C 102.40625 85.839844 102.011719 84.757812 101.535156 83.6875 C 95.53125 70.027344 79.675781 63.78125 66.117188 69.742188 C 52.558594 75.703125 46.433594 91.609375 52.4375 105.277344 Z M 52.4375 105.277344 " fill-opacity="0.6" fill-rule="nonzero"/><path fill="#371a45" d="M 77.273438 123.707031 C 66.152344 123.707031 55.496094 117.199219 50.714844 106.328125 C 47.597656 99.234375 47.40625 91.359375 50.179688 84.148438 C 52.949219 76.941406 58.363281 71.253906 65.414062 68.160156 C 72.46875 65.054688 80.304688 64.910156 87.488281 67.742188 C 94.675781 70.574219 100.347656 76.035156 103.464844 83.125 C 106.578125 90.21875 106.769531 98.09375 104 105.304688 C 101.226562 112.511719 95.816406 118.199219 88.761719 121.292969 C 85.027344 122.933594 81.128906 123.707031 77.273438 123.707031 Z M 54.378906 104.707031 C 59.933594 117.332031 74.632812 123.125 87.15625 117.617188 C 93.222656 114.953125 97.875 110.0625 100.265625 103.851562 C 102.65625 97.640625 102.488281 90.847656 99.800781 84.722656 C 97.113281 78.605469 92.210938 73.894531 86.027344 71.457031 C 79.84375 69.015625 73.085938 69.148438 67.019531 71.8125 C 60.957031 74.476562 56.304688 79.367188 53.914062 85.578125 C 51.523438 91.800781 51.691406 98.59375 54.378906 104.707031 Z M 54.378906 104.707031 " fill-opacity="1" fill-rule="nonzero"/><path fill="#413757" d="M 215.335938 49.195312 C 215.347656 49.277344 215.359375 49.375 215.371094 49.457031 C 217.289062 62.949219 208.046875 75.476562 194.652344 77.511719 C 181.164062 79.558594 168.570312 70.195312 166.5 56.605469 C 166.261719 55.023438 166.179688 53.464844 166.238281 51.933594 C 166.65625 40.226562 175.277344 30.113281 187.195312 28.304688 C 200.671875 26.257812 213.277344 35.609375 215.335938 49.195312 Z M 215.335938 49.195312 " fill-opacity="1" fill-rule="nonzero"/><path fill="#feffff" d="M 200.832031 51.867188 C 200.929688 52.519531 200.964844 53.171875 200.9375 53.828125 C 200.90625 54.488281 200.816406 55.136719 200.660156 55.773438 C 200.503906 56.414062 200.285156 57.03125 200.007812 57.628906 C 199.730469 58.222656 199.398438 58.785156 199.011719 59.316406 C 198.625 59.84375 198.191406 60.332031 197.707031 60.773438 C 197.226562 61.21875 196.703125 61.609375 196.144531 61.949219 C 195.585938 62.289062 195 62.570312 194.382812 62.792969 C 193.769531 63.015625 193.140625 63.175781 192.492188 63.277344 C 191.847656 63.375 191.195312 63.40625 190.542969 63.375 C 189.890625 63.34375 189.246094 63.25 188.613281 63.09375 C 187.976562 62.933594 187.363281 62.714844 186.769531 62.433594 C 186.179688 62.152344 185.621094 61.816406 185.09375 61.425781 C 184.566406 61.035156 184.082031 60.597656 183.640625 60.109375 C 183.199219 59.621094 182.808594 59.097656 182.472656 58.535156 C 182.132812 57.96875 181.851562 57.378906 181.628906 56.757812 C 181.40625 56.136719 181.246094 55.503906 181.148438 54.851562 C 181.046875 54.199219 181.015625 53.546875 181.042969 52.890625 C 181.074219 52.230469 181.164062 51.582031 181.320312 50.945312 C 181.476562 50.304688 181.695312 49.6875 181.972656 49.089844 C 182.246094 48.496094 182.578125 47.933594 182.96875 47.402344 C 183.355469 46.875 183.789062 46.386719 184.273438 45.945312 C 184.753906 45.5 185.273438 45.109375 185.835938 44.769531 C 186.394531 44.429688 186.980469 44.148438 187.59375 43.925781 C 188.210938 43.703125 188.839844 43.542969 189.488281 43.441406 C 190.132812 43.34375 190.78125 43.3125 191.4375 43.34375 C 192.089844 43.375 192.734375 43.46875 193.367188 43.625 C 194.003906 43.785156 194.617188 44.003906 195.207031 44.285156 C 195.800781 44.566406 196.359375 44.902344 196.886719 45.292969 C 197.414062 45.683594 197.898438 46.121094 198.339844 46.609375 C 198.78125 47.097656 199.167969 47.621094 199.507812 48.183594 C 199.847656 48.75 200.128906 49.339844 200.351562 49.960938 C 200.574219 50.582031 200.734375 51.214844 200.832031 51.867188 Z M 200.832031 51.867188 " fill-opacity="1" fill-rule="nonzero"/><path fill="#371a45" d="M 215.371094 49.457031 C 217.289062 62.949219 208.046875 75.476562 194.652344 77.511719 C 181.164062 79.558594 168.570312 70.195312 166.5 56.605469 C 166.261719 55.023438 166.179688 53.464844 166.238281 51.933594 L 166.65625 51.621094 C 167.332031 51.515625 182.484375 46.886719 199.792969 65.707031 C 199.792969 65.707031 212.492188 64.019531 215.371094 49.457031 Z M 215.371094 49.457031 " fill-opacity="0.4" fill-rule="nonzero"/><path fill="#ffffff" d="M 215.300781 48.957031 C 215.46875 50.015625 215.550781 51.074219 215.574219 52.121094 C 212.589844 41.628906 202.90625 32.933594 192.121094 32.347656 C 192.191406 33.539062 190.179688 34.800781 187.527344 35.203125 C 185.125 35.574219 182.996094 35.097656 182.425781 34.132812 C 173.007812 38.308594 166.882812 49.003906 167.144531 59.460938 C 166.859375 58.453125 166.632812 57.429688 166.476562 56.359375 C 164.417969 42.769531 173.683594 30.089844 187.160156 28.042969 C 200.636719 26.007812 213.242188 35.371094 215.300781 48.957031 Z M 215.300781 48.957031 " fill-opacity="0.6" fill-rule="nonzero"/><path fill="#371a45" d="M 190.953125 79.785156 C 177.976562 79.785156 166.535156 70.207031 164.527344 56.90625 C 163.457031 49.800781 165.179688 42.710938 169.402344 36.941406 C 173.625 31.160156 179.832031 27.386719 186.886719 26.316406 C 193.941406 25.246094 200.992188 27.007812 206.738281 31.277344 C 212.480469 35.539062 216.242188 41.796875 217.3125 48.898438 C 219.535156 63.554688 209.496094 77.273438 194.949219 79.484375 C 193.605469 79.6875 192.273438 79.785156 190.953125 79.785156 Z M 190.917969 30.015625 C 189.777344 30.015625 188.636719 30.101562 187.492188 30.277344 C 181.5 31.183594 176.230469 34.394531 172.636719 39.308594 C 169.046875 44.222656 167.570312 50.265625 168.488281 56.308594 C 170.378906 68.789062 181.988281 77.402344 194.355469 75.535156 C 206.726562 73.65625 215.253906 61.984375 213.363281 49.503906 C 212.445312 43.460938 209.246094 38.132812 204.359375 34.503906 C 200.398438 31.5625 195.722656 30.015625 190.917969 30.015625 Z M 190.917969 30.015625 " fill-opacity="1" fill-rule="nonzero"/><path fill="#ffffff" d="M 264.816406 143.46875 C 264.816406 162.804688 256.300781 178.875 245.402344 193.535156 C 228.335938 216.53125 205.558594 230.832031 170.570312 233.390625 C 148.921875 234.972656 125.964844 229.011719 110.550781 217.292969 C 94.734375 205.277344 85.074219 186.847656 81.054688 166.445312 C 81.054688 166.445312 81.042969 166.429688 81.054688 166.429688 C 79.605469 159.054688 78.890625 151.40625 78.890625 143.71875 C 78.890625 94.058594 102.191406 52.777344 154.226562 52.777344 C 176.183594 52.777344 191.824219 60.582031 211.578125 76.378906 C 225.125 87.207031 237.851562 93.859375 249.984375 105.648438 C 250.328125 105.992188 250.671875 106.328125 251.019531 106.671875 C 262.4375 118.09375 264.816406 128.96875 264.816406 143.46875 Z M 264.816406 143.46875 " fill-opacity="1" fill-rule="nonzero"/><path fill="#371a45" d="M 163.71875 235.636719 C 143.582031 235.636719 123.265625 229.464844 109.351562 218.886719 C 88.726562 203.207031 76.894531 175.804688 76.894531 143.71875 C 76.894531 117.273438 83.304688 94.691406 95.445312 78.425781 C 108.945312 60.332031 129.273438 50.777344 154.238281 50.777344 C 177.742188 50.777344 194.082031 59.972656 212.828125 74.808594 C 218.308594 79.152344 223.484375 82.746094 228.492188 86.21875 C 236.769531 91.964844 244.582031 97.402344 252.445312 105.265625 C 264.421875 117.246094 266.824219 128.765625 266.824219 143.46875 C 266.824219 165.265625 256.238281 182.3125 247.023438 194.734375 C 228.230469 220.039062 203.988281 232.960938 170.734375 235.386719 C 168.402344 235.554688 166.0625 235.636719 163.71875 235.636719 Z M 154.238281 54.785156 C 108.316406 54.785156 80.902344 88.039062 80.902344 143.730469 C 80.902344 174.558594 92.152344 200.789062 111.777344 215.710938 C 126.5625 226.953125 149.039062 232.960938 170.4375 231.402344 C 202.457031 229.070312 225.765625 216.660156 243.796875 192.355469 C 256.953125 174.640625 262.816406 159.566406 262.816406 143.480469 C 262.816406 129.441406 260.652344 119.164062 249.613281 108.109375 C 242.015625 100.507812 234.332031 95.167969 226.207031 89.527344 C 221.152344 86.015625 215.929688 82.390625 210.351562 77.976562 C 191.800781 63.28125 176.671875 54.785156 154.238281 54.785156 Z M 154.238281 54.785156 " fill-opacity="1" fill-rule="nonzero"/><path fill="#371a45" d="M 205.167969 200.148438 C 204.191406 202.160156 202.90625 203.65625 201.21875 204.371094 C 195.058594 206.953125 189.242188 198.410156 185.472656 190.84375 C 182.769531 185.445312 181.117188 180.53125 181.117188 180.53125 C 192.523438 181.386719 193.890625 168.609375 193.714844 165.371094 C 193.714844 165.371094 201.148438 168.203125 206.691406 164.8125 C 206.785156 165.445312 210.199219 189.726562 205.167969 200.148438 Z M 205.167969 200.148438 " fill-opacity="1" fill-rule="nonzero"/><path fill="#f03784" d="M 205.167969 200.148438 C 204.191406 202.160156 202.90625 203.65625 201.21875 204.371094 C 195.058594 206.953125 189.242188 198.410156 185.472656 190.84375 C 191.691406 189.023438 202.667969 187.738281 205.167969 200.148438 Z M 205.167969 200.148438 " fill-opacity="1" fill-rule="nonzero"/><path fill="#371a45" d="M 173.375 155.507812 C 172.589844 150.773438 188.136719 139.757812 192.429688 143.101562 C 196.152344 145.992188 192.773438 158.257812 189.109375 159.996094 C 184.949219 161.957031 174.113281 159.875 173.375 155.507812 Z M 173.375 155.507812 " fill-opacity="1" fill-rule="nonzero"/><path fill="#ffffff" d="M 187.351562 147.03125 C 187.460938 147.199219 187.484375 147.417969 187.421875 147.679688 C 187.359375 147.945312 187.214844 148.234375 186.992188 148.550781 C 186.765625 148.871094 186.476562 149.191406 186.121094 149.515625 C 185.765625 149.835938 185.375 150.140625 184.945312 150.417969 C 184.515625 150.699219 184.082031 150.9375 183.644531 151.132812 C 183.203125 151.324219 182.792969 151.460938 182.414062 151.539062 C 182.03125 151.621094 181.707031 151.632812 181.441406 151.585938 C 181.175781 151.535156 180.988281 151.425781 180.875 151.257812 C 180.765625 151.089844 180.742188 150.871094 180.804688 150.609375 C 180.867188 150.347656 181.011719 150.054688 181.234375 149.738281 C 181.460938 149.417969 181.75 149.097656 182.105469 148.773438 C 182.460938 148.453125 182.851562 148.148438 183.28125 147.871094 C 183.710938 147.589844 184.144531 147.351562 184.582031 147.15625 C 185.023438 146.964844 185.433594 146.828125 185.8125 146.75 C 186.195312 146.667969 186.519531 146.65625 186.785156 146.703125 C 187.050781 146.753906 187.238281 146.863281 187.351562 147.03125 Z M 187.351562 147.03125 " fill-opacity="1" fill-rule="nonzero"/><path fill="#371a45" d="M 182.199219 182.574219 C 181.796875 182.574219 181.390625 182.5625 180.964844 182.527344 C 177.003906 182.230469 173.980469 180.792969 171.984375 178.246094 C 168.664062 174.023438 169.558594 168.359375 169.605469 168.121094 C 169.785156 167.027344 170.816406 166.289062 171.914062 166.480469 C 173.007812 166.65625 173.730469 167.691406 173.554688 168.773438 C 173.542969 168.871094 172.933594 173 175.148438 175.792969 C 176.433594 177.414062 178.476562 178.339844 181.261719 178.542969 C 184.078125 178.757812 186.292969 178.042969 188.003906 176.355469 C 191.324219 173.105469 191.8125 167.277344 191.714844 165.480469 C 191.679688 164.800781 191.988281 164.160156 192.535156 163.753906 C 193.082031 163.363281 193.796875 163.253906 194.425781 163.503906 C 194.808594 163.648438 203.777344 166.929688 208.082031 160.792969 C 209.996094 158.066406 210.460938 154.6875 209.34375 151.75 C 208.34375 149.15625 206.273438 147.324219 203.65625 146.71875 C 202.574219 146.46875 201.910156 145.398438 202.148438 144.3125 C 202.394531 143.230469 203.464844 142.566406 204.550781 142.804688 C 208.484375 143.707031 211.589844 146.433594 213.078125 150.296875 C 214.683594 154.476562 214.039062 159.257812 211.363281 163.078125 C 206.941406 169.382812 199.554688 168.835938 195.628906 167.976562 C 195.285156 171.355469 194.035156 176.042969 190.8125 179.199219 C 188.527344 181.445312 185.636719 182.574219 182.199219 182.574219 Z M 182.199219 182.574219 " fill-opacity="1" fill-rule="nonzero"/><path fill="#371a45" d="M 198.945312 206.847656 C 194.902344 206.847656 189.597656 203.609375 183.675781 191.738281 C 180.953125 186.277344 179.285156 181.375 179.214844 181.171875 C 178.859375 180.125 179.429688 178.996094 180.476562 178.636719 C 181.523438 178.28125 182.664062 178.851562 183.007812 179.898438 C 183.019531 179.945312 184.664062 184.753906 187.253906 189.964844 C 189.289062 194.046875 194.226562 202.835938 198.972656 202.835938 C 199.457031 202.835938 199.945312 202.742188 200.433594 202.539062 C 201.5625 202.0625 202.550781 200.96875 203.359375 199.292969 C 208.140625 189.40625 204.738281 165.335938 204.703125 165.097656 C 204.550781 164.003906 205.308594 162.992188 206.40625 162.828125 C 207.5 162.671875 208.507812 163.433594 208.675781 164.527344 C 208.832031 165.5625 212.28125 190.046875 206.976562 201.039062 C 205.726562 203.621094 204.050781 205.371094 201.992188 206.238281 C 201.074219 206.597656 200.066406 206.847656 198.945312 206.847656 Z M 198.945312 206.847656 " fill-opacity="1" fill-rule="nonzero"/><path fill="#371a45" d="M 264.816406 143.46875 C 264.816406 162.804688 256.300781 178.875 245.402344 193.535156 C 228.335938 216.53125 205.558594 230.832031 170.570312 233.390625 C 148.921875 234.972656 125.964844 229.011719 110.550781 217.292969 C 94.734375 205.277344 85.074219 186.847656 81.054688 166.445312 C 91.5 195.019531 119.804688 229.011719 184.019531 220.351562 C 246.832031 211.878906 273.628906 139.269531 249.984375 105.648438 C 250.328125 105.992188 250.671875 106.328125 251.019531 106.671875 C 262.4375 118.09375 264.816406 128.96875 264.816406 143.46875 Z M 264.816406 143.46875 " fill-opacity="0.3" fill-rule="nonzero"/><path fill="#371a45" d="M 186.316406 161.019531 C 186.316406 161.019531 189.3125 173.605469 179.726562 175.402344 C 179.726562 175.402344 175.050781 176.605469 170.734375 173.605469 C 170.734375 173.605469 184.875 195.019531 192.335938 168.574219 L 192.609375 166.707031 C 192.609375 166.707031 210.578125 171.5 209.984375 154.710938 C 209.984375 154.710938 197.996094 166.707031 189.609375 155.914062 Z M 186.316406 161.019531 " fill-opacity="0.3" fill-rule="nonzero"/><path fill="#413757" d="M 132.257812 128.003906 C 123.695312 133.238281 112.90625 145.085938 118.628906 168.015625 C 123.625 187.988281 138.132812 192.855469 151.179688 184.765625 C 164.242188 176.664062 157.222656 165.503906 156.710938 153.925781 C 156.210938 142.71875 162.539062 137.804688 157.855469 131.074219 C 154.738281 126.597656 144.019531 120.816406 132.257812 128.003906 Z M 132.257812 128.003906 " fill-opacity="1" fill-rule="nonzero"/><path fill="#413757" d="M 192.273438 97.355469 C 200.457031 92.894531 216.941406 92.75 231.488281 106.742188 C 245.75 121.339844 243.238281 136.058594 230.65625 142.804688 C 218.085938 149.550781 212.007812 137.855469 202.683594 131.394531 C 193.640625 125.136719 186.730469 127.882812 183.269531 120.449219 C 180.988281 115.511719 181.035156 103.484375 192.273438 97.355469 Z M 192.273438 97.355469 " fill-opacity="1" fill-rule="nonzero"/><path fill="#ffffff" d="M 134.269531 160.496094 C 133.222656 158.652344 133.222656 156.757812 133.699219 155.023438 C 134.195312 153.296875 135.316406 151.691406 136.863281 150.558594 C 137.265625 150.296875 137.632812 150 138.085938 149.8125 C 138.539062 149.621094 138.953125 149.394531 139.417969 149.261719 C 140.359375 149.027344 141.296875 148.835938 142.25 148.929688 C 143.1875 148.953125 144.105469 149.25 144.9375 149.621094 C 145.367188 149.800781 145.746094 150.097656 146.125 150.394531 C 146.316406 150.546875 146.496094 150.703125 146.671875 150.871094 C 146.851562 151.058594 147.019531 151.226562 147.171875 151.441406 L 147.28125 151.582031 C 147.339844 151.667969 147.316406 151.773438 147.246094 151.832031 C 147.207031 151.855469 147.171875 151.871094 147.136719 151.871094 C 145.746094 151.871094 144.367188 151.90625 143.046875 152.285156 C 142.378906 152.429688 141.761719 152.703125 141.132812 152.953125 C 140.535156 153.273438 139.929688 153.582031 139.40625 154.011719 C 138.300781 154.796875 137.371094 155.808594 136.585938 156.925781 C 136.195312 157.484375 135.839844 158.078125 135.527344 158.6875 C 135.195312 159.292969 134.910156 159.9375 134.695312 160.578125 C 134.660156 160.671875 134.554688 160.734375 134.457031 160.695312 C 134.410156 160.683594 134.375 160.648438 134.351562 160.613281 Z M 134.269531 160.496094 " fill-opacity="1" fill-rule="nonzero"/><path fill="#ffffff" d="M 206.15625 121.410156 C 204.941406 119.816406 204.714844 118.058594 204.941406 116.378906 C 205.191406 114.703125 206.035156 113.070312 207.34375 111.824219 C 207.984375 111.191406 208.769531 110.691406 209.566406 110.289062 C 210.414062 109.953125 211.269531 109.65625 212.160156 109.632812 C 213.042969 109.539062 213.921875 109.691406 214.753906 109.941406 C 215.171875 110.050781 215.574219 110.277344 215.96875 110.527344 C 216.15625 110.65625 216.347656 110.777344 216.539062 110.90625 C 216.726562 111.0625 216.90625 111.191406 217.074219 111.371094 L 217.191406 111.488281 C 217.25 111.5625 217.25 111.667969 217.179688 111.726562 C 217.15625 111.75 217.121094 111.761719 217.085938 111.773438 C 215.789062 111.953125 214.503906 112.15625 213.328125 112.667969 C 212.71875 112.882812 212.171875 113.214844 211.625 113.523438 C 211.113281 113.90625 210.578125 114.261719 210.152344 114.726562 C 209.222656 115.59375 208.472656 116.652344 207.878906 117.796875 C 207.582031 118.367188 207.320312 118.960938 207.105469 119.578125 C 206.867188 120.1875 206.691406 120.816406 206.558594 121.449219 C 206.535156 121.542969 206.453125 121.601562 206.355469 121.589844 C 206.308594 121.578125 206.273438 121.554688 206.25 121.519531 Z M 206.15625 121.410156 " fill-opacity="1" fill-rule="nonzero"/><path fill="#413757" d="M 258.273438 314.777344 C 252.789062 328.855469 236.839844 343.605469 225.601562 345.261719 C 207.710938 347.890625 178.277344 333.003906 178.277344 333.003906 C 178.277344 300.144531 188.136719 284.308594 202.550781 278.085938 L 202.5625 278.085938 C 209.710938 274.996094 217.976562 274.28125 226.71875 275.019531 C 229.300781 275.246094 231.90625 275.589844 234.546875 276.03125 C 241.5625 277.230469 249.613281 281.894531 255.726562 292.542969 C 256.976562 294.742188 258.15625 297.195312 259.226562 299.929688 C 260.914062 304.285156 260.332031 309.484375 258.273438 314.777344 Z M 258.273438 314.777344 " fill-opacity="1" fill-rule="nonzero"/><path fill="#ffffff" d="M 259.226562 311.972656 C 257.894531 304.878906 252.339844 289.128906 236.804688 282.144531 C 223.839844 276.316406 210.984375 277.765625 202.574219 280.195312 C 202.574219 280.195312 186.125 284.871094 182.960938 286.558594 C 195.972656 278.859375 210.28125 271.972656 226.71875 275.007812 C 229.382812 275.496094 232.238281 276.171875 235.304688 277.027344 C 243.976562 279.46875 250.695312 285.65625 255.726562 292.53125 C 256.976562 294.730469 258.15625 297.183594 259.226562 299.917969 C 260.914062 304.285156 261.292969 306.675781 259.226562 311.972656 Z M 259.226562 311.972656 " fill-opacity="0.6" fill-rule="nonzero"/><path fill="#ffffff" d="M 252.046875 298.964844 C 252.433594 299.363281 252.785156 299.789062 253.101562 300.25 C 253.421875 300.707031 253.703125 301.195312 253.953125 301.710938 C 254.203125 302.226562 254.414062 302.765625 254.59375 303.332031 C 254.769531 303.898438 254.910156 304.484375 255.015625 305.097656 C 255.117188 305.707031 255.183594 306.339844 255.214844 306.992188 C 255.242188 307.640625 255.234375 308.308594 255.1875 308.992188 C 255.144531 309.675781 255.0625 310.375 254.941406 311.085938 C 254.820312 311.796875 254.664062 312.515625 254.472656 313.246094 C 254.277344 313.980469 254.050781 314.714844 253.785156 315.460938 C 253.519531 316.203125 253.222656 316.949219 252.890625 317.699219 C 252.554688 318.449219 252.191406 319.195312 251.792969 319.945312 C 251.394531 320.691406 250.964844 321.4375 250.503906 322.175781 C 250.042969 322.914062 249.554688 323.644531 249.035156 324.367188 C 248.519531 325.089844 247.976562 325.804688 247.40625 326.503906 C 246.835938 327.203125 246.242188 327.890625 245.625 328.558594 C 245.007812 329.230469 244.371094 329.882812 243.714844 330.519531 C 243.054688 331.152344 242.382812 331.765625 241.6875 332.359375 C 240.996094 332.953125 240.289062 333.519531 239.570312 334.066406 C 238.851562 334.609375 238.121094 335.128906 237.378906 335.621094 C 236.636719 336.113281 235.890625 336.574219 235.136719 337.007812 C 234.382812 337.441406 233.621094 337.84375 232.863281 338.21875 C 232.101562 338.589844 231.339844 338.929688 230.578125 339.234375 C 229.820312 339.539062 229.0625 339.8125 228.308594 340.050781 C 227.558594 340.289062 226.8125 340.492188 226.074219 340.65625 C 225.339844 340.824219 224.613281 340.953125 223.898438 341.050781 C 223.183594 341.144531 222.484375 341.203125 221.800781 341.222656 C 221.113281 341.242188 220.445312 341.226562 219.796875 341.175781 C 219.148438 341.125 218.519531 341.035156 217.914062 340.910156 C 217.304688 340.785156 216.722656 340.621094 216.164062 340.425781 C 215.605469 340.226562 215.074219 339.996094 214.566406 339.726562 C 214.0625 339.460938 213.585938 339.160156 213.136719 338.824219 C 212.691406 338.492188 212.273438 338.125 211.890625 337.726562 C 211.507812 337.328125 211.15625 336.898438 210.835938 336.4375 C 210.519531 335.980469 210.234375 335.492188 209.984375 334.976562 C 209.734375 334.464844 209.523438 333.921875 209.347656 333.355469 C 209.167969 332.792969 209.027344 332.203125 208.925781 331.589844 C 208.820312 330.980469 208.753906 330.347656 208.726562 329.699219 C 208.695312 329.046875 208.703125 328.378906 208.75 327.695312 C 208.796875 327.011719 208.878906 326.3125 208.996094 325.601562 C 209.117188 324.890625 209.273438 324.171875 209.46875 323.441406 C 209.660156 322.710938 209.886719 321.972656 210.152344 321.230469 C 210.417969 320.484375 210.714844 319.738281 211.050781 318.988281 C 211.382812 318.242188 211.746094 317.492188 212.148438 316.742188 C 212.546875 315.996094 212.976562 315.253906 213.433594 314.515625 C 213.894531 313.773438 214.382812 313.042969 214.902344 312.320312 C 215.417969 311.597656 215.964844 310.886719 216.535156 310.183594 C 217.101562 309.484375 217.695312 308.800781 218.3125 308.128906 C 218.929688 307.457031 219.566406 306.804688 220.226562 306.171875 C 220.882812 305.535156 221.558594 304.921875 222.25 304.328125 C 222.941406 303.738281 223.648438 303.167969 224.367188 302.625 C 225.085938 302.078125 225.816406 301.558594 226.558594 301.070312 C 227.300781 300.578125 228.046875 300.113281 228.800781 299.679688 C 229.558594 299.246094 230.316406 298.84375 231.078125 298.472656 C 231.839844 298.097656 232.597656 297.761719 233.359375 297.453125 C 234.121094 297.148438 234.875 296.875 235.628906 296.636719 C 236.382812 296.402344 237.125 296.199219 237.863281 296.03125 C 238.597656 295.863281 239.324219 295.734375 240.039062 295.640625 C 240.753906 295.542969 241.453125 295.488281 242.140625 295.464844 C 242.824219 295.445312 243.492188 295.460938 244.140625 295.511719 C 244.789062 295.566406 245.417969 295.652344 246.023438 295.78125 C 246.632812 295.90625 247.214844 296.066406 247.773438 296.261719 C 248.332031 296.460938 248.867188 296.691406 249.371094 296.960938 C 249.875 297.226562 250.351562 297.527344 250.800781 297.863281 C 251.246094 298.199219 251.664062 298.5625 252.046875 298.964844 Z M 252.046875 298.964844 " fill-opacity="1" fill-rule="nonzero"/><path fill="#371a45" d="M 221.035156 347.519531 C 202.882812 347.519531 178.511719 335.3125 177.394531 334.742188 C 176.433594 334.253906 176.039062 333.078125 176.527344 332.113281 C 177.015625 331.148438 178.191406 330.757812 179.15625 331.246094 C 179.441406 331.386719 208.261719 345.820312 225.316406 343.308594 C 234.164062 342.011719 246.890625 331.421875 253.683594 319.714844 C 257.988281 312.316406 259.296875 305.535156 257.394531 300.632812 C 251.566406 285.703125 242.179688 281.050781 233.84375 277.851562 C 222.972656 273.6875 199.921875 272.746094 184.316406 287.960938 C 183.542969 288.722656 182.308594 288.699219 181.546875 287.925781 C 180.796875 287.152344 180.808594 285.917969 181.582031 285.15625 C 198.496094 268.675781 223.472656 269.6875 235.234375 274.199219 C 245.023438 277.945312 254.929688 283.574219 261.03125 299.21875 C 264.054688 306.949219 260.546875 315.707031 257.058594 321.691406 C 249.613281 334.515625 235.914062 345.710938 225.875 347.199219 C 224.339844 347.425781 222.710938 347.519531 221.035156 347.519531 Z M 221.035156 347.519531 " fill-opacity="1" fill-rule="nonzero"/><path fill="#371a45" d="M 255.597656 320.789062 C 248.617188 332.816406 235.472656 343.914062 225.816406 345.34375 C 207.925781 347.972656 178.488281 333.089844 178.488281 333.089844 C 178.488281 325.046875 178.050781 316.671875 180.023438 311.578125 C 179.929688 312.03125 215.980469 333.328125 235.355469 331.304688 C 241.585938 330.648438 249.066406 326.535156 255.597656 320.789062 Z M 255.597656 320.789062 " fill-opacity="0.3" fill-rule="nonzero"/></svg>