<svg id="visual" viewBox="0 0 960 300" width="960" height="300" xmlns="http://www.w3.org/2000/svg" xmlns:xlink="http://www.w3.org/1999/xlink" version="1.1"><path d="M0 204L17.8 202.8C35.7 201.7 71.3 199.3 106.8 194.7C142.3 190 177.7 183 213.2 183.2C248.7 183.3 284.3 190.7 320 195C355.7 199.3 391.3 200.7 426.8 198C462.3 195.3 497.7 188.7 533.2 189.7C568.7 190.7 604.3 199.3 640 206C675.7 212.7 711.3 217.3 746.8 208C782.3 198.7 817.7 175.3 853.2 169.2C888.7 163 924.3 174 942.2 179.5L960 185L960 301L942.2 301C924.3 301 888.7 301 853.2 301C817.7 301 782.3 301 746.8 301C711.3 301 675.7 301 640 301C604.3 301 568.7 301 533.2 301C497.7 301 462.3 301 426.8 301C391.3 301 355.7 301 320 301C284.3 301 248.7 301 213.2 301C177.7 301 142.3 301 106.8 301C71.3 301 35.7 301 17.8 301L0 301Z" fill="#b4637a"></path><path d="M0 182L17.8 192.2C35.7 202.3 71.3 222.7 106.8 230.2C142.3 237.7 177.7 232.3 213.2 228C248.7 223.7 284.3 220.3 320 219.5C355.7 218.7 391.3 220.3 426.8 220.7C462.3 221 497.7 220 533.2 215.3C568.7 210.7 604.3 202.3 640 205.7C675.7 209 711.3 224 746.8 225C782.3 226 817.7 213 853.2 212C888.7 211 924.3 222 942.2 227.5L960 233L960 301L942.2 301C924.3 301 888.7 301 853.2 301C817.7 301 782.3 301 746.8 301C711.3 301 675.7 301 640 301C604.3 301 568.7 301 533.2 301C497.7 301 462.3 301 426.8 301C391.3 301 355.7 301 320 301C284.3 301 248.7 301 213.2 301C177.7 301 142.3 301 106.8 301C71.3 301 35.7 301 17.8 301L0 301Z" fill="#c16d7b"></path><path d="M0 212L17.8 212.7C35.7 213.3 71.3 214.7 106.8 222.3C142.3 230 177.7 244 213.2 250.3C248.7 256.7 284.3 255.3 320 254C355.7 252.7 391.3 251.3 426.8 253.2C462.3 255 497.7 260 533.2 259.8C568.7 259.7 604.3 254.3 640 246.8C675.7 239.3 711.3 229.7 746.8 224.8C782.3 220 817.7 220 853.2 226.8C888.7 233.7 924.3 247.3 942.2 254.2L960 261L960 301L942.2 301C924.3 301 888.7 301 853.2 301C817.7 301 782.3 301 746.8 301C711.3 301 675.7 301 640 301C604.3 301 568.7 301 533.2 301C497.7 301 462.3 301 426.8 301C391.3 301 355.7 301 320 301C284.3 301 248.7 301 213.2 301C177.7 301 142.3 301 106.8 301C71.3 301 35.7 301 17.8 301L0 301Z" fill="#cd777d"></path><path d="M0 248L17.8 251.8C35.7 255.7 71.3 263.3 106.8 267.3C142.3 271.3 177.7 271.7 213.2 271.7C248.7 271.7 284.3 271.3 320 272.5C355.7 273.7 391.3 276.3 426.8 276.5C462.3 276.7 497.7 274.3 533.2 271.3C568.7 268.3 604.3 264.7 640 266C675.7 267.3 711.3 273.7 746.8 270.5C782.3 267.3 817.7 254.7 853.2 250.2C888.7 245.7 924.3 249.3 942.2 251.2L960 253L960 301L942.2 301C924.3 301 888.7 301 853.2 301C817.7 301 782.3 301 746.8 301C711.3 301 675.7 301 640 301C604.3 301 568.7 301 533.2 301C497.7 301 462.3 301 426.8 301C391.3 301 355.7 301 320 301C284.3 301 248.7 301 213.2 301C177.7 301 142.3 301 106.8 301C71.3 301 35.7 301 17.8 301L0 301Z" fill="#d7827e"></path></svg>