<svg id="visual" viewBox="0 0 960 300" width="960" height="300" xmlns="http://www.w3.org/2000/svg" xmlns:xlink="http://www.w3.org/1999/xlink" version="1.1"><path d="M0 234L26.7 235.7C53.3 237.3 106.7 240.7 160 232.8C213.3 225 266.7 206 320 206.3C373.3 206.7 426.7 226.3 480 234.7C533.3 243 586.7 240 640 227.2C693.3 214.3 746.7 191.7 800 192.7C853.3 193.7 906.7 218.3 933.3 230.7L960 243L960 301L933.3 301C906.7 301 853.3 301 800 301C746.7 301 693.3 301 640 301C586.7 301 533.3 301 480 301C426.7 301 373.3 301 320 301C266.7 301 213.3 301 160 301C106.7 301 53.3 301 26.7 301L0 301Z" fill="#cbd5e1"></path><path d="M0 265L26.7 265.3C53.3 265.7 106.7 266.3 160 266.3C213.3 266.3 266.7 265.7 320 265.5C373.3 265.3 426.7 265.7 480 255.5C533.3 245.3 586.7 224.7 640 219.8C693.3 215 746.7 226 800 225.8C853.3 225.7 906.7 214.3 933.3 208.7L960 203L960 301L933.3 301C906.7 301 853.3 301 800 301C746.7 301 693.3 301 640 301C586.7 301 533.3 301 480 301C426.7 301 373.3 301 320 301C266.7 301 213.3 301 160 301C106.7 301 53.3 301 26.7 301L0 301Z" fill="#8692a3"></path><path d="M0 247L26.7 248.2C53.3 249.3 106.7 251.7 160 254.8C213.3 258 266.7 262 320 264C373.3 266 426.7 266 480 269.8C533.3 273.7 586.7 281.3 640 279.5C693.3 277.7 746.7 266.3 800 265.5C853.3 264.7 906.7 274.3 933.3 279.2L960 284L960 301L933.3 301C906.7 301 853.3 301 800 301C746.7 301 693.3 301 640 301C586.7 301 533.3 301 480 301C426.7 301 373.3 301 320 301C266.7 301 213.3 301 160 301C106.7 301 53.3 301 26.7 301L0 301Z" fill="#475569"></path></svg>