<svg id="visual" viewBox="0 0 960 300" width="960" height="300" xmlns="http://www.w3.org/2000/svg" xmlns:xlink="http://www.w3.org/1999/xlink" version="1.1"><path d="M0 81L26.7 81.5C53.3 82 106.7 83 160 90.8C213.3 98.7 266.7 113.3 320 109.7C373.3 106 426.7 84 480 81.7C533.3 79.3 586.7 96.7 640 110.5C693.3 124.3 746.7 134.7 800 136C853.3 137.3 906.7 129.7 933.3 125.8L960 122L960 0L933.3 0C906.7 0 853.3 0 800 0C746.7 0 693.3 0 640 0C586.7 0 533.3 0 480 0C426.7 0 373.3 0 320 0C266.7 0 213.3 0 160 0C106.7 0 53.3 0 26.7 0L0 0Z" fill="#fb7185"></path><path d="M0 66L26.7 66.7C53.3 67.3 106.7 68.7 160 69.3C213.3 70 266.7 70 320 66.3C373.3 62.7 426.7 55.3 480 51.8C533.3 48.3 586.7 48.7 640 48.3C693.3 48 746.7 47 800 45.7C853.3 44.3 906.7 42.7 933.3 41.8L960 41L960 0L933.3 0C906.7 0 853.3 0 800 0C746.7 0 693.3 0 640 0C586.7 0 533.3 0 480 0C426.7 0 373.3 0 320 0C266.7 0 213.3 0 160 0C106.7 0 53.3 0 26.7 0L0 0Z" fill="#dd4860"></path><path d="M0 53L26.7 47.5C53.3 42 106.7 31 160 33.8C213.3 36.7 266.7 53.3 320 54.2C373.3 55 426.7 40 480 39.5C533.3 39 586.7 53 640 53.8C693.3 54.7 746.7 42.3 800 33C853.3 23.7 906.7 17.3 933.3 14.2L960 11L960 0L933.3 0C906.7 0 853.3 0 800 0C746.7 0 693.3 0 640 0C586.7 0 533.3 0 480 0C426.7 0 373.3 0 320 0C266.7 0 213.3 0 160 0C106.7 0 53.3 0 26.7 0L0 0Z" fill="#be123c"></path></svg>