<svg id="visual" viewBox="0 0 960 300" width="960" height="300" xmlns="http://www.w3.org/2000/svg" xmlns:xlink="http://www.w3.org/1999/xlink" version="1.1"><path d="M0 126L22.8 121.3C45.7 116.7 91.3 107.3 137 97.2C182.7 87 228.3 76 274 74.7C319.7 73.3 365.3 81.7 411.2 85.3C457 89 503 88 548.8 86.2C594.7 84.3 640.3 81.7 686 81.5C731.7 81.3 777.3 83.7 823 90.8C868.7 98 914.3 110 937.2 116L960 122L960 0L937.2 0C914.3 0 868.7 0 823 0C777.3 0 731.7 0 686 0C640.3 0 594.7 0 548.8 0C503 0 457 0 411.2 0C365.3 0 319.7 0 274 0C228.3 0 182.7 0 137 0C91.3 0 45.7 0 22.8 0L0 0Z" fill="#b4637a"></path><path d="M0 92L22.8 89C45.7 86 91.3 80 137 81.2C182.7 82.3 228.3 90.7 274 90.8C319.7 91 365.3 83 411.2 76.5C457 70 503 65 548.8 66.7C594.7 68.3 640.3 76.7 686 78.5C731.7 80.3 777.3 75.7 823 71.2C868.7 66.7 914.3 62.3 937.2 60.2L960 58L960 0L937.2 0C914.3 0 868.7 0 823 0C777.3 0 731.7 0 686 0C640.3 0 594.7 0 548.8 0C503 0 457 0 411.2 0C365.3 0 319.7 0 274 0C228.3 0 182.7 0 137 0C91.3 0 45.7 0 22.8 0L0 0Z" fill="#c16d7b"></path><path d="M0 52L22.8 48.3C45.7 44.7 91.3 37.3 137 39.7C182.7 42 228.3 54 274 58C319.7 62 365.3 58 411.2 57.8C457 57.7 503 61.3 548.8 61C594.7 60.7 640.3 56.3 686 55.7C731.7 55 777.3 58 823 55.2C868.7 52.3 914.3 43.7 937.2 39.3L960 35L960 0L937.2 0C914.3 0 868.7 0 823 0C777.3 0 731.7 0 686 0C640.3 0 594.7 0 548.8 0C503 0 457 0 411.2 0C365.3 0 319.7 0 274 0C228.3 0 182.7 0 137 0C91.3 0 45.7 0 22.8 0L0 0Z" fill="#cd777d"></path><path d="M0 14L22.8 17.2C45.7 20.3 91.3 26.7 137 28.8C182.7 31 228.3 29 274 25.3C319.7 21.7 365.3 16.3 411.2 17.7C457 19 503 27 548.8 30.8C594.7 34.7 640.3 34.3 686 33.2C731.7 32 777.3 30 823 29C868.7 28 914.3 28 937.2 28L960 28L960 0L937.2 0C914.3 0 868.7 0 823 0C777.3 0 731.7 0 686 0C640.3 0 594.7 0 548.8 0C503 0 457 0 411.2 0C365.3 0 319.7 0 274 0C228.3 0 182.7 0 137 0C91.3 0 45.7 0 22.8 0L0 0Z" fill="#d7827e"></path></svg>