<svg xmlns="http://www.w3.org/2000/svg" xmlns:xlink="http://www.w3.org/1999/xlink" width="500" zoomAndPan="magnify" viewBox="0 0 375 374.999991" height="500" preserveAspectRatio="xMidYMid meet" version="1.0"><defs><filter x="0%" y="0%" width="100%" height="100%" id="2cbe2c5db3"><feColorMatrix values="0 0 0 0 1 0 0 0 0 1 0 0 0 0 1 0 0 0 1 0" color-interpolation-filters="sRGB"/></filter><clipPath id="961b9a8547"><path d="M 76 303 L 301 303 L 301 324.191406 L 76 324.191406 Z M 76 303 " clip-rule="nonzero"/></clipPath><mask id="fe9150f833"><g filter="url(#2cbe2c5db3)"><rect x="-37.5" width="450" fill="#000000" y="-37.499999" height="449.999989" fill-opacity="0.3"/></g></mask><clipPath id="b0fccd8033"><path d="M 0.0390625 1 L 160.839844 1 L 160.839844 30.601562 L 0.0390625 30.601562 Z M 0.0390625 1 " clip-rule="nonzero"/></clipPath><clipPath id="39d8d28e5f"><path d="M 0.0390625 0.601562 L 160.839844 0.601562 L 160.839844 30.601562 L 0.0390625 30.601562 Z M 0.0390625 0.601562 " clip-rule="nonzero"/></clipPath><clipPath id="29d8501ca1"><rect x="0" width="161" y="0" height="31"/></clipPath></defs><path fill="#60547b" d="M 258.746094 233.941406 C 255.734375 232.917969 252.714844 232.34375 249.699219 232.316406 C 245.488281 232.285156 241.277344 233.324219 237.050781 235.738281 L 235.417969 226.476562 L 243.902344 222.394531 L 249.734375 219.585938 Z M 258.746094 233.941406 " fill-opacity="1" fill-rule="nonzero"/><path fill="#ffffff" d="M 237.050781 235.738281 C 229.734375 238.390625 227.871094 250.804688 227.871094 250.804688 C 198.558594 242.136719 188.367188 262.671875 188.367188 262.671875 C 174.988281 236.605469 125.085938 257.417969 125.085938 257.417969 L 127.738281 241.523438 L 130.625 233.71875 L 135.851562 219.585938 L 235.417969 224.984375 L 236.421875 231.605469 Z M 237.050781 235.738281 " fill-opacity="1" fill-rule="nonzero"/><path fill="#000072" d="M 188.371094 263.25 L 188.132812 262.789062 C 181.292969 249.464844 164.574219 248.765625 151.753906 250.527344 C 137.804688 252.445312 125.3125 257.609375 125.1875 257.660156 L 124.753906 257.84375 L 127.480469 241.480469 L 135.675781 219.316406 L 235.648438 224.734375 L 237.34375 235.910156 L 237.140625 235.984375 C 230.058594 238.550781 228.148438 250.722656 228.132812 250.84375 L 228.089844 251.140625 L 227.800781 251.054688 C 212.769531 246.609375 202.914062 250.03125 197.292969 253.691406 C 191.203125 257.652344 188.625 262.734375 188.601562 262.785156 Z M 161.496094 249.296875 C 174.605469 249.296875 183.796875 253.648438 188.371094 262.121094 C 189.144531 260.785156 191.828125 256.628906 196.984375 253.269531 C 202.660156 249.566406 212.582031 246.089844 227.664062 250.46875 C 227.996094 248.535156 230.089844 238.175781 236.761719 235.570312 L 235.191406 225.234375 L 136.027344 219.859375 L 127.984375 241.613281 L 125.421875 257.003906 C 127.753906 256.074219 139.125 251.738281 151.671875 250.011719 C 155.15625 249.535156 158.433594 249.296875 161.496094 249.296875 Z M 161.496094 249.296875 " fill-opacity="1" fill-rule="nonzero"/><path fill="#60547b" d="M 131.0625 221.621094 C 121.78125 222.015625 112.148438 218.878906 112.148438 218.878906 L 110.789062 221.65625 L 124.355469 256.003906 L 129.71875 235.800781 L 134.171875 223.359375 Z M 131.0625 221.621094 " fill-opacity="1" fill-rule="nonzero"/><path fill="#000072" d="M 112.925781 225.421875 L 120.546875 234.3125 C 121.601562 235.542969 123.464844 235.644531 124.648438 234.542969 L 132.734375 226.992188 L 124.355469 254.507812 Z M 112.925781 225.421875 " fill-opacity="0.3" fill-rule="nonzero"/><path fill="#ffffff" d="M 134.171875 223.359375 L 133.234375 225.972656 L 131.066406 224.761719 C 121.78125 225.152344 112.144531 222.015625 112.144531 222.015625 L 111.472656 223.390625 L 110.789062 221.65625 L 112.144531 218.882812 C 112.144531 218.882812 121.78125 222.015625 131.066406 221.625 Z M 134.171875 223.359375 " fill-opacity="0.55" fill-rule="nonzero"/><path fill="#ffffff" d="M 294.863281 322.351562 L 200.003906 322.351562 C 200.003906 320.121094 199.65625 318.160156 199.054688 316.484375 C 197.210938 311.339844 192.941406 308.769531 188.675781 308.769531 C 184.402344 308.769531 180.132812 311.339844 178.285156 316.484375 C 177.6875 318.160156 177.339844 320.121094 177.339844 322.351562 L 81.871094 322.351562 C 79.1875 322.351562 77.34375 319.671875 78.292969 317.167969 L 78.554688 316.484375 L 82.835938 305.285156 C 97.035156 307.308594 111.117188 306.558594 125.085938 302.867188 C 128.152344 302.054688 131.15625 301.019531 134.125 299.917969 C 161.828125 289.601562 181.863281 293.640625 188.667969 308.765625 C 195.476562 293.640625 215.515625 289.601562 243.21875 299.917969 C 246.1875 301.019531 249.191406 302.054688 252.253906 302.867188 C 266.222656 306.558594 280.308594 307.308594 294.503906 305.285156 L 298.210938 316.484375 L 298.492188 317.328125 C 299.3125 319.800781 297.472656 322.351562 294.863281 322.351562 Z M 294.863281 322.351562 " fill-opacity="1" fill-rule="nonzero"/><path fill="#000072" d="M 294.863281 322.613281 L 199.742188 322.613281 L 199.742188 322.351562 C 199.742188 320.238281 199.429688 318.292969 198.8125 316.570312 C 197.160156 311.972656 193.347656 309.097656 188.835938 309.03125 L 188.667969 309.402344 L 188.503906 309.03125 C 183.992188 309.101562 180.183594 311.980469 178.535156 316.570312 C 177.914062 318.292969 177.601562 320.238281 177.601562 322.351562 L 177.601562 322.613281 L 81.875 322.613281 C 80.507812 322.613281 79.28125 321.96875 78.507812 320.847656 C 77.742188 319.742188 77.574219 318.332031 78.050781 317.074219 L 82.664062 304.996094 L 82.871094 305.027344 C 97.113281 307.054688 111.296875 306.242188 125.023438 302.613281 C 128.386719 301.722656 131.605469 300.574219 134.035156 299.671875 C 147.5 294.660156 159.6875 292.886719 169.28125 294.542969 C 178.484375 296.136719 185.175781 300.832031 188.667969 308.144531 C 192.164062 300.832031 198.859375 296.136719 208.066406 294.542969 C 217.660156 292.886719 229.847656 294.660156 243.308594 299.671875 C 245.738281 300.574219 248.957031 301.722656 252.324219 302.613281 C 266.050781 306.242188 280.226562 307.054688 294.46875 305.027344 L 294.683594 304.996094 L 298.742188 317.246094 C 299.160156 318.503906 298.953125 319.84375 298.179688 320.917969 C 297.398438 321.996094 296.191406 322.613281 294.863281 322.613281 Z M 200.261719 322.089844 L 294.863281 322.089844 C 296.023438 322.089844 297.078125 321.550781 297.753906 320.613281 C 298.429688 319.675781 298.609375 318.507812 298.246094 317.410156 L 297.964844 316.566406 L 294.324219 305.574219 C 280.089844 307.574219 265.914062 306.746094 252.1875 303.117188 C 248.800781 302.222656 245.566406 301.070312 243.128906 300.164062 C 229.75 295.183594 217.65625 293.417969 208.152344 295.0625 C 199.0625 296.632812 192.472656 301.28125 189.070312 308.515625 C 193.707031 308.679688 197.605469 311.664062 199.300781 316.394531 C 199.914062 318.101562 200.238281 320.015625 200.261719 322.089844 Z M 83.003906 305.570312 L 78.539062 317.261719 C 78.117188 318.371094 78.261719 319.570312 78.9375 320.550781 C 79.613281 321.53125 80.683594 322.089844 81.871094 322.089844 L 177.078125 322.089844 C 177.105469 320.015625 177.429688 318.101562 178.039062 316.394531 C 179.738281 311.667969 183.632812 308.683594 188.265625 308.515625 C 184.867188 301.28125 178.28125 296.628906 169.1875 295.0625 C 159.6875 293.417969 147.59375 295.183594 134.214844 300.164062 C 131.777344 301.070312 128.542969 302.222656 125.15625 303.117188 C 111.429688 306.746094 97.246094 307.574219 83.003906 305.570312 Z M 83.003906 305.570312 " fill-opacity="1" fill-rule="nonzero"/><path fill="#000072" d="M 186.320312 309.035156 C 182.90625 309.808594 179.792969 312.292969 178.285156 316.484375 C 177.6875 318.160156 177.339844 320.121094 177.339844 322.351562 L 81.871094 322.351562 C 80.480469 322.351562 79.320312 321.628906 78.652344 320.589844 L 82.835938 309.636719 C 97.035156 311.660156 111.117188 310.914062 125.085938 307.21875 C 128.152344 306.40625 131.15625 305.375 134.125 304.269531 C 159.144531 294.953125 177.90625 297.347656 186.320312 309.035156 Z M 186.320312 309.035156 " fill-opacity="0.3" fill-rule="nonzero"/><path fill="#000072" d="M 298.113281 320.539062 C 297.453125 321.609375 296.269531 322.351562 294.863281 322.351562 L 200.003906 322.351562 C 200.003906 320.121094 199.65625 318.160156 199.054688 316.484375 C 197.550781 312.285156 194.433594 309.804688 191.015625 309.03125 C 199.441406 297.347656 218.203125 294.960938 243.21875 304.269531 C 246.1875 305.375 249.191406 306.410156 252.253906 307.21875 C 266.222656 310.914062 280.308594 311.660156 294.503906 309.636719 Z M 298.113281 320.539062 " fill-opacity="0.3" fill-rule="nonzero"/><path fill="#298fff" d="M 78.554688 316.484375 L 178.285156 316.484375 C 177.6875 318.160156 177.339844 320.121094 177.339844 322.351562 L 81.871094 322.351562 C 79.1875 322.351562 77.34375 319.671875 78.292969 317.167969 Z M 78.554688 316.484375 " fill-opacity="1" fill-rule="nonzero"/><path fill="#000072" d="M 177.570312 322.578125 L 81.875 322.578125 C 80.519531 322.578125 79.300781 321.941406 78.535156 320.828125 C 77.777344 319.730469 77.609375 318.332031 78.082031 317.085938 L 78.398438 316.253906 L 178.613281 316.253906 L 178.503906 316.558594 C 177.882812 318.285156 177.570312 320.234375 177.570312 322.347656 Z M 78.714844 316.710938 L 78.507812 317.246094 C 78.082031 318.371094 78.230469 319.582031 78.910156 320.570312 C 79.59375 321.554688 80.671875 322.121094 81.875 322.121094 L 177.113281 322.121094 C 177.136719 320.164062 177.421875 318.347656 177.96875 316.710938 Z M 78.714844 316.710938 " fill-opacity="1" fill-rule="nonzero"/><path fill="#ffffff" d="M 86.714844 322.351562 L 82.394531 322.351562 C 79.710938 322.351562 77.867188 319.671875 78.816406 317.167969 L 79.078125 316.484375 L 83.398438 316.484375 L 83.136719 317.167969 C 82.1875 319.671875 84.03125 322.351562 86.714844 322.351562 Z M 86.714844 322.351562 " fill-opacity="0.55" fill-rule="nonzero"/><path fill="#298fff" d="M 294.863281 322.351562 L 200.003906 322.351562 C 200.003906 320.121094 199.65625 318.160156 199.054688 316.484375 L 298.210938 316.484375 L 298.492188 317.328125 C 299.3125 319.800781 297.472656 322.351562 294.863281 322.351562 Z M 294.863281 322.351562 " fill-opacity="1" fill-rule="nonzero"/><path fill="#000072" d="M 294.863281 322.578125 L 199.773438 322.578125 L 199.773438 322.351562 C 199.773438 320.234375 199.460938 318.285156 198.839844 316.558594 L 198.730469 316.253906 L 298.378906 316.253906 L 298.710938 317.257812 C 299.125 318.507812 298.921875 319.832031 298.152344 320.902344 C 297.378906 321.96875 296.183594 322.578125 294.863281 322.578125 Z M 200.230469 322.121094 L 294.863281 322.121094 C 296.035156 322.121094 297.097656 321.578125 297.78125 320.632812 C 298.464844 319.6875 298.644531 318.507812 298.277344 317.402344 L 298.046875 316.710938 L 199.378906 316.710938 C 199.921875 318.347656 200.210938 320.164062 200.230469 322.121094 Z M 200.230469 322.121094 " fill-opacity="1" fill-rule="nonzero"/><path fill="#000072" d="M 294.863281 322.351562 L 280.742188 322.351562 C 283.351562 322.351562 285.195312 319.800781 284.371094 317.328125 L 284.089844 316.484375 L 298.210938 316.484375 L 298.492188 317.328125 C 299.3125 319.800781 297.472656 322.351562 294.863281 322.351562 Z M 294.863281 322.351562 " fill-opacity="0.3" fill-rule="nonzero"/><path fill="#ffffff" d="M 294.503906 305.285156 C 288.472656 306.140625 282.464844 306.503906 276.476562 306.34375 C 275.730469 306.328125 274.988281 306.304688 274.253906 306.265625 C 266.886719 305.921875 259.554688 304.796875 252.253906 302.867188 C 249.191406 302.054688 246.1875 301.019531 243.21875 299.917969 C 215.515625 289.601562 195.476562 293.640625 188.667969 308.765625 C 181.863281 293.640625 161.828125 289.601562 134.125 299.917969 C 131.15625 301.019531 128.152344 302.054688 125.085938 302.867188 C 111.117188 306.558594 97.035156 307.308594 82.835938 305.285156 L 112.144531 259.996094 C 116.46875 259.414062 120.785156 258.554688 125.085938 257.417969 C 128.152344 256.609375 131.15625 255.574219 134.125 254.46875 C 161.828125 244.152344 181.863281 248.195312 188.667969 263.320312 C 195.476562 248.195312 215.515625 244.152344 243.21875 254.46875 C 246.1875 255.574219 249.191406 256.609375 252.253906 257.417969 C 256.621094 258.574219 260.996094 259.4375 265.382812 260.023438 L 266.152344 261.21875 C 266.152344 261.21875 266.152344 261.222656 266.15625 261.230469 L 266.191406 261.285156 L 294.332031 305.011719 Z M 294.503906 305.285156 " fill-opacity="1" fill-rule="nonzero"/><path fill="#000072" d="M 188.667969 309.402344 L 188.429688 308.871094 C 185.082031 301.433594 178.429688 296.65625 169.1875 295.058594 C 159.6875 293.417969 147.59375 295.183594 134.214844 300.164062 C 131.777344 301.066406 128.542969 302.222656 125.15625 303.117188 C 111.359375 306.765625 97.109375 307.582031 82.796875 305.542969 L 82.394531 305.484375 L 82.613281 305.144531 L 111.988281 259.753906 L 112.109375 259.738281 C 116.375 259.164062 120.71875 258.300781 125.019531 257.167969 C 127.671875 256.464844 130.453125 255.558594 134.03125 254.222656 C 147.496094 249.210938 159.683594 247.4375 169.277344 249.097656 C 178.484375 250.6875 185.175781 255.386719 188.667969 262.699219 C 192.164062 255.386719 198.855469 250.6875 208.0625 249.097656 C 217.660156 247.4375 229.847656 249.210938 243.308594 254.222656 C 246.890625 255.558594 249.667969 256.464844 252.320312 257.167969 C 256.621094 258.304688 261.027344 259.179688 265.417969 259.765625 L 265.535156 259.78125 L 266.414062 261.148438 L 294.941406 305.488281 L 294.539062 305.546875 C 288.480469 306.40625 282.398438 306.765625 276.46875 306.609375 C 275.726562 306.59375 274.980469 306.566406 274.238281 306.53125 C 266.84375 306.183594 259.425781 305.035156 252.1875 303.121094 C 248.800781 302.222656 245.566406 301.070312 243.125 300.164062 C 229.75 295.183594 217.65625 293.417969 208.152344 295.0625 C 198.910156 296.660156 192.257812 301.433594 188.90625 308.875 Z M 161.835938 293.941406 C 164.460938 293.941406 166.945312 294.140625 169.277344 294.542969 C 178.484375 296.136719 185.175781 300.832031 188.667969 308.144531 C 192.164062 300.832031 198.859375 296.136719 208.0625 294.542969 C 217.65625 292.886719 229.847656 294.660156 243.308594 299.671875 C 245.738281 300.574219 248.957031 301.722656 252.320312 302.613281 C 259.523438 304.519531 266.90625 305.660156 274.265625 306.003906 C 275 306.042969 275.742188 306.070312 276.480469 306.085938 C 282.257812 306.234375 288.167969 305.898438 294.066406 305.082031 L 265.226562 260.265625 C 260.855469 259.675781 256.46875 258.804688 252.1875 257.671875 C 249.519531 256.96875 246.726562 256.054688 243.128906 254.710938 C 229.753906 249.730469 217.660156 247.96875 208.152344 249.613281 C 198.914062 251.210938 192.257812 255.988281 188.90625 263.425781 L 188.667969 263.957031 L 188.429688 263.425781 C 185.085938 255.988281 178.429688 251.210938 169.191406 249.613281 C 159.6875 247.96875 147.59375 249.730469 134.21875 254.714844 C 130.621094 256.054688 127.824219 256.96875 125.15625 257.671875 C 120.875 258.800781 116.550781 259.664062 112.296875 260.238281 L 83.277344 305.082031 C 97.382812 307.039062 111.425781 306.207031 125.023438 302.613281 C 128.386719 301.722656 131.605469 300.574219 134.035156 299.671875 C 144.222656 295.878906 153.679688 293.941406 161.835938 293.941406 Z M 161.835938 293.941406 " fill-opacity="1" fill-rule="nonzero"/><path fill="#000072" d="M 188.671875 310.59375 C 187.949219 310.59375 187.296875 310.171875 187.003906 309.515625 C 183.875 302.574219 177.625 298.105469 168.921875 296.601562 C 159.6875 295.007812 147.878906 296.746094 134.765625 301.628906 C 131.121094 302.984375 128.28125 303.914062 125.554688 304.632812 C 111.558594 308.332031 97.101562 309.160156 82.578125 307.09375 C 81.960938 307.003906 81.429688 306.609375 81.171875 306.039062 C 80.914062 305.472656 80.960938 304.8125 81.300781 304.289062 L 110.609375 259.003906 C 110.902344 258.554688 111.371094 258.253906 111.902344 258.183594 C 116.144531 257.609375 120.421875 256.757812 124.617188 255.648438 C 127.226562 254.960938 129.960938 254.066406 133.488281 252.753906 C 147.210938 247.644531 159.675781 245.84375 169.546875 247.550781 C 178.160156 249.039062 184.703125 253.125 188.671875 259.445312 C 192.644531 253.125 199.1875 249.039062 207.800781 247.550781 C 217.664062 245.84375 230.136719 247.644531 243.855469 252.753906 C 247.382812 254.066406 250.117188 254.960938 252.726562 255.648438 C 256.980469 256.773438 261.324219 257.636719 265.625 258.207031 C 266.160156 258.28125 266.632812 258.582031 266.925781 259.03125 L 296.046875 304.292969 C 296.382812 304.816406 296.429688 305.476562 296.171875 306.042969 C 295.910156 306.609375 295.382812 307.007812 294.765625 307.09375 C 280.242188 309.160156 265.785156 308.335938 251.789062 304.632812 C 249.0625 303.914062 246.222656 302.988281 242.578125 301.628906 C 229.460938 296.746094 217.652344 295.007812 208.421875 296.605469 C 199.71875 298.109375 193.46875 302.574219 190.34375 309.515625 C 190.046875 310.171875 189.390625 310.59375 188.671875 310.59375 Z M 161.84375 292.375 C 164.554688 292.375 167.128906 292.582031 169.546875 293 C 178.15625 294.488281 184.699219 298.574219 188.671875 304.894531 C 192.640625 298.574219 199.183594 294.488281 207.796875 293 C 217.664062 291.292969 230.132812 293.09375 243.855469 298.199219 C 247.382812 299.515625 250.117188 300.40625 252.722656 301.097656 C 265.328125 304.429688 278.328125 305.347656 291.402344 303.839844 L 264.300781 261.71875 C 260.121094 261.128906 255.914062 260.277344 251.789062 259.1875 C 249.0625 258.464844 246.222656 257.539062 242.578125 256.179688 C 229.460938 251.296875 217.652344 249.5625 208.421875 251.15625 C 199.71875 252.660156 193.46875 257.125 190.34375 264.070312 C 190.046875 264.726562 189.394531 265.148438 188.671875 265.148438 C 187.953125 265.148438 187.300781 264.726562 187.003906 264.070312 C 183.878906 257.125 177.625 252.660156 168.921875 251.15625 C 159.691406 249.5625 147.882812 251.296875 134.765625 256.179688 C 131.121094 257.539062 128.28125 258.464844 125.554688 259.1875 C 121.492188 260.261719 117.347656 261.101562 113.230469 261.691406 L 85.953125 303.839844 C 99.023438 305.347656 112.019531 304.429688 124.621094 301.097656 C 127.226562 300.410156 129.960938 299.515625 133.488281 298.199219 C 143.84375 294.34375 153.492188 292.375 161.84375 292.375 Z M 161.84375 292.375 " fill-opacity="1" fill-rule="nonzero"/><path fill="#000072" d="M 98.640625 295.65625 C 101.527344 295.4375 104.394531 295.195312 107.246094 294.839844 C 110.097656 294.492188 112.929688 294.042969 115.742188 293.523438 C 118.550781 292.96875 121.347656 292.375 124.109375 291.640625 C 126.882812 290.9375 129.585938 290.105469 132.28125 289.132812 C 134.960938 288.195312 137.710938 287.152344 140.496094 286.328125 C 143.289062 285.511719 146.109375 284.769531 148.976562 284.253906 C 151.839844 283.710938 154.738281 283.355469 157.644531 283.203125 C 160.550781 283.089844 163.46875 283.167969 166.332031 283.597656 C 163.4375 283.628906 160.574219 283.828125 157.738281 284.226562 C 154.902344 284.613281 152.097656 285.179688 149.320312 285.847656 C 146.550781 286.542969 143.796875 287.304688 141.089844 288.214844 C 139.734375 288.660156 138.378906 289.117188 137.035156 289.609375 L 132.972656 291.105469 C 130.230469 292.054688 127.414062 292.910156 124.582031 293.558594 C 121.742188 294.195312 118.882812 294.753906 116 295.128906 C 110.238281 295.898438 104.40625 296.117188 98.640625 295.65625 Z M 98.640625 295.65625 " fill-opacity="0.6" fill-rule="nonzero"/><path fill="#000072" d="M 126.140625 281.210938 C 128.339844 280.390625 130.511719 279.542969 132.660156 278.632812 C 134.804688 277.742188 136.964844 276.792969 139.183594 276 C 141.390625 275.179688 143.648438 274.492188 145.925781 273.855469 C 148.207031 273.242188 150.523438 272.757812 152.859375 272.355469 C 155.203125 271.992188 157.566406 271.730469 159.941406 271.632812 C 161.128906 271.59375 162.320312 271.59375 163.511719 271.636719 C 164.105469 271.664062 164.699219 271.671875 165.296875 271.730469 L 166.191406 271.8125 L 166.417969 271.832031 L 166.65625 271.867188 L 167.105469 271.9375 C 169.46875 272.339844 171.769531 273.003906 173.96875 273.9375 C 175.058594 274.421875 176.121094 274.984375 177.109375 275.648438 C 178.085938 276.339844 178.984375 277.136719 179.695312 278.074219 C 178.8125 277.292969 177.835938 276.671875 176.816406 276.144531 C 175.773438 275.652344 174.710938 275.226562 173.613281 274.898438 C 171.421875 274.226562 169.148438 273.800781 166.882812 273.554688 C 164.667969 273.414062 162.324219 273.4375 160.046875 273.609375 C 157.753906 273.757812 155.464844 274.027344 153.195312 274.414062 C 148.640625 275.125 144.148438 276.261719 139.691406 277.539062 C 137.460938 278.191406 135.257812 278.917969 133 279.59375 C 130.742188 280.242188 128.460938 280.835938 126.140625 281.210938 Z M 126.140625 281.210938 " fill-opacity="0.6" fill-rule="nonzero"/><path fill="#000072" d="M 278.738281 296.699219 C 272.96875 297.164062 267.136719 296.941406 261.378906 296.171875 C 258.492188 295.800781 255.636719 295.238281 252.796875 294.601562 C 249.960938 293.953125 247.144531 293.097656 244.402344 292.148438 L 240.339844 290.652344 C 238.996094 290.160156 237.644531 289.703125 236.289062 289.257812 C 233.578125 288.347656 230.828125 287.585938 228.058594 286.890625 C 225.28125 286.222656 222.476562 285.65625 219.640625 285.269531 C 216.804688 284.871094 213.941406 284.675781 211.046875 284.640625 C 213.910156 284.210938 216.828125 284.132812 219.734375 284.25 C 222.640625 284.398438 225.539062 284.753906 228.402344 285.296875 C 231.269531 285.816406 234.089844 286.554688 236.882812 287.371094 C 239.667969 288.195312 242.417969 289.238281 245.097656 290.175781 C 247.792969 291.152344 250.496094 291.984375 253.269531 292.683594 C 256.03125 293.417969 258.828125 294.011719 261.636719 294.566406 C 264.453125 295.085938 267.28125 295.535156 270.132812 295.882812 C 272.984375 296.242188 275.851562 296.480469 278.738281 296.699219 Z M 278.738281 296.699219 " fill-opacity="0.6" fill-rule="nonzero"/><path fill="#000072" d="M 271.832031 285.992188 C 265.402344 286.03125 258.949219 285.273438 252.640625 283.863281 C 249.472656 283.195312 246.355469 282.222656 243.304688 281.171875 C 241.769531 280.644531 240.296875 280.082031 238.785156 279.585938 C 238.03125 279.335938 237.277344 279.082031 236.515625 278.855469 C 235.757812 278.613281 235 278.386719 234.234375 278.175781 C 231.191406 277.273438 228.109375 276.519531 224.992188 275.949219 C 221.882812 275.363281 218.734375 274.976562 215.582031 274.828125 C 214.007812 274.738281 212.402344 274.769531 210.871094 274.828125 C 209.3125 274.964844 207.746094 275.226562 206.207031 275.574219 C 204.664062 275.917969 203.144531 276.378906 201.691406 276.996094 C 200.242188 277.617188 198.84375 278.414062 197.679688 279.527344 C 198.671875 278.253906 200.015625 277.269531 201.433594 276.476562 C 202.859375 275.679688 204.386719 275.082031 205.9375 274.585938 C 207.5 274.105469 209.082031 273.726562 210.707031 273.46875 C 211.148438 273.398438 211.53125 273.382812 211.949219 273.34375 C 212.355469 273.308594 212.765625 273.277344 213.171875 273.261719 L 214.390625 273.207031 L 215.613281 273.195312 C 216.425781 273.179688 217.242188 273.214844 218.054688 273.230469 C 218.867188 273.28125 219.679688 273.316406 220.488281 273.402344 C 222.113281 273.53125 223.722656 273.753906 225.332031 273.996094 C 228.539062 274.523438 231.699219 275.28125 234.816406 276.167969 C 237.917969 277.078125 241 278.175781 243.976562 279.316406 C 246.957031 280.457031 249.957031 281.441406 253.03125 282.285156 C 259.175781 283.96875 265.457031 285.167969 271.832031 285.992188 Z M 271.832031 285.992188 " fill-opacity="0.6" fill-rule="nonzero"/><path fill="#000072" d="M 222.113281 264.695312 C 219.925781 264.851562 217.792969 264.894531 215.671875 265.011719 C 214.613281 265.070312 213.558594 265.132812 212.507812 265.214844 C 211.992188 265.261719 211.441406 265.289062 210.976562 265.351562 C 210.472656 265.421875 209.953125 265.5 209.441406 265.59375 C 207.390625 265.957031 205.347656 266.40625 203.367188 267.03125 C 201.371094 267.644531 199.472656 268.449219 197.683594 269.71875 C 198.253906 268.785156 199.027344 267.945312 199.90625 267.257812 C 200.117188 267.070312 200.355469 266.925781 200.582031 266.765625 C 200.816406 266.609375 201.042969 266.441406 201.285156 266.300781 C 201.765625 266.019531 202.25 265.734375 202.753906 265.503906 C 204.769531 264.539062 206.910156 263.917969 209.085938 263.535156 C 209.632812 263.445312 210.175781 263.367188 210.742188 263.308594 C 211.347656 263.257812 211.867188 263.246094 212.425781 263.238281 C 213.523438 263.230469 214.617188 263.277344 215.707031 263.378906 C 217.882812 263.59375 220.035156 263.984375 222.113281 264.695312 Z M 222.113281 264.695312 " fill-opacity="0.6" fill-rule="nonzero"/><path fill="#000072" d="M 267.402344 275.816406 C 265.207031 276.023438 263.011719 275.949219 260.835938 275.753906 C 258.660156 275.546875 256.5 275.191406 254.371094 274.703125 C 252.246094 274.210938 250.132812 273.597656 248.089844 272.800781 C 246.050781 271.996094 244.070312 271.066406 242.195312 269.902344 C 244.378906 270.246094 246.480469 270.757812 248.574219 271.230469 L 254.839844 272.664062 L 261.105469 274.140625 C 263.195312 274.65625 265.296875 275.15625 267.402344 275.816406 Z M 267.402344 275.816406 " fill-opacity="0.6" fill-rule="nonzero"/><path fill="#000072" d="M 188.671875 310.59375 C 187.660156 310.59375 186.839844 309.777344 186.839844 308.765625 L 186.839844 263.316406 C 186.839844 262.308594 187.660156 261.488281 188.671875 261.488281 C 189.683594 261.488281 190.503906 262.308594 190.503906 263.316406 L 190.503906 308.765625 C 190.503906 309.777344 189.683594 310.59375 188.671875 310.59375 Z M 188.671875 310.59375 " fill-opacity="1" fill-rule="nonzero"/><g clip-path="url(#961b9a8547)"><path fill="#000072" d="M 200.003906 324.183594 C 199.226562 324.183594 198.519531 323.6875 198.265625 322.929688 C 198.203125 322.738281 198.171875 322.535156 198.171875 322.335938 C 198.167969 314.269531 193.246094 310.59375 188.671875 310.59375 C 184.109375 310.59375 179.203125 314.25 179.171875 322.277344 C 179.191406 322.777344 179.003906 323.277344 178.636719 323.644531 C 178.273438 324.003906 177.789062 324.195312 177.292969 324.179688 L 81.875 324.179688 C 80.011719 324.179688 78.273438 323.265625 77.214844 321.738281 C 76.160156 320.207031 75.921875 318.257812 76.582031 316.515625 L 81.125 304.632812 C 81.484375 303.6875 82.542969 303.214844 83.488281 303.574219 C 84.433594 303.933594 84.90625 304.992188 84.542969 305.9375 L 80.003906 317.820312 C 79.769531 318.4375 79.851562 319.113281 80.230469 319.660156 C 80.605469 320.207031 81.207031 320.519531 81.875 320.519531 L 175.585938 320.519531 C 176.332031 311.59375 182.535156 306.9375 188.671875 306.9375 C 194.804688 306.9375 201.011719 311.59375 201.757812 320.519531 L 294.863281 320.519531 C 295.511719 320.519531 296.101562 320.21875 296.480469 319.695312 C 296.859375 319.171875 296.960938 318.519531 296.757812 317.902344 L 292.765625 305.859375 C 292.449219 304.898438 292.96875 303.863281 293.929688 303.546875 C 294.886719 303.230469 295.925781 303.75 296.242188 304.707031 L 300.230469 316.753906 C 300.808594 318.496094 300.527344 320.347656 299.449219 321.835938 C 298.375 323.324219 296.703125 324.179688 294.863281 324.179688 L 200.082031 324.179688 C 200.054688 324.179688 200.027344 324.183594 200.003906 324.183594 Z M 200.003906 324.183594 " fill-opacity="1" fill-rule="nonzero"/></g><path fill="#000072" d="M 236.421875 231.605469 C 221.324219 240.117188 201.78125 243.746094 180.453125 243.550781 C 161.839844 243.382812 144.636719 240.332031 130.625 233.71875 L 135.851562 219.585938 L 235.417969 224.984375 Z M 236.421875 231.605469 " fill-opacity="0.3" fill-rule="nonzero"/><path fill="#60547b" d="M 225.332031 90.152344 C 260.152344 56.855469 316.421875 103.9375 268.691406 144.117188 Z M 225.332031 90.152344 " fill-opacity="1" fill-rule="nonzero"/><path fill="#ffffff" d="M 286.511719 117.109375 C 286.722656 90.945312 252.878906 73.039062 227.765625 93.183594 L 225.328125 90.152344 C 252.371094 64.296875 292.332031 86.898438 286.511719 117.109375 Z M 286.511719 117.109375 " fill-opacity="0.55" fill-rule="nonzero"/><path fill="#000072" d="M 285.636719 98.5 C 285.636719 98.5 267.164062 133.699219 228.386719 90.789062 L 226.183594 97.984375 L 241.027344 112.695312 L 250.144531 124.316406 L 263.613281 140.105469 L 267.683594 141.3125 C 267.683594 141.3125 294.058594 133.183594 285.636719 98.5 Z M 285.636719 98.5 " fill-opacity="0.3" fill-rule="nonzero"/><path fill="#000072" d="M 268.691406 145.945312 C 268.167969 145.945312 267.652344 145.726562 267.292969 145.296875 C 266.640625 144.523438 266.738281 143.371094 267.511719 142.71875 C 281.09375 131.289062 287.199219 118.148438 284.710938 105.726562 C 282.539062 94.890625 274.039062 85.910156 262.535156 82.292969 C 249.9375 78.332031 236.839844 81.679688 226.597656 91.472656 C 225.867188 92.171875 224.707031 92.148438 224.007812 91.417969 C 223.308594 90.6875 223.335938 89.53125 224.066406 88.832031 C 235.304688 78.085938 249.726562 74.429688 263.632812 78.804688 C 276.414062 82.824219 285.867188 92.863281 288.300781 105.007812 C 291.066406 118.800781 284.519531 133.1875 269.871094 145.519531 C 269.527344 145.804688 269.109375 145.945312 268.691406 145.945312 Z M 268.691406 145.945312 " fill-opacity="1" fill-rule="nonzero"/><path fill="#60547b" d="M 145.589844 89.316406 C 107.808594 50.441406 58.453125 108.570312 104.96875 142.503906 Z M 145.589844 89.316406 " fill-opacity="1" fill-rule="nonzero"/><path fill="#ffffff" d="M 145.046875 89.945312 L 142.855469 92.816406 C 117.394531 69.304688 87.6875 87.910156 85.601562 112.695312 C 83.757812 84.855469 117.484375 61.582031 145.046875 89.945312 Z M 145.046875 89.945312 " fill-opacity="0.55" fill-rule="nonzero"/><path fill="#000072" d="M 87.15625 98.5 C 87.15625 98.5 105.625 133.699219 144.40625 90.789062 L 146.609375 97.984375 L 131.765625 112.695312 L 122.644531 124.316406 L 109.179688 140.105469 L 105.109375 141.3125 C 105.109375 141.3125 78.730469 133.183594 87.15625 98.5 Z M 87.15625 98.5 " fill-opacity="0.3" fill-rule="nonzero"/><path fill="#ffffff" d="M 273.59375 167.570312 C 273.148438 216.636719 234.5 235.125 187.03125 234.699219 C 139.566406 234.269531 101.253906 215.082031 101.699219 166.015625 C 101.804688 154.894531 103.875 144.265625 107.574219 134.488281 C 110.617188 126.4375 114.765625 118.960938 119.816406 112.253906 C 135.714844 91.164062 160.601562 77.695312 188.449219 77.945312 C 215.683594 78.191406 239.839844 91.503906 255.40625 112.078125 C 260.324219 118.582031 264.382812 125.808594 267.414062 133.585938 C 271.503906 144.078125 273.703125 155.558594 273.59375 167.570312 Z M 273.59375 167.570312 " fill-opacity="1" fill-rule="nonzero"/><path fill="#000072" d="M 188.613281 234.964844 C 188.085938 234.964844 187.558594 234.964844 187.03125 234.957031 C 161.8125 234.730469 140.796875 229.144531 126.25 218.808594 C 109.578125 206.957031 101.230469 189.195312 101.441406 166.011719 C 101.542969 155.09375 103.523438 144.457031 107.328125 134.394531 C 110.351562 126.402344 114.480469 118.902344 119.609375 112.097656 C 136.28125 89.980469 161.363281 77.441406 188.453125 77.683594 C 214.851562 77.921875 239.332031 90.398438 255.613281 111.917969 C 260.59375 118.503906 264.648438 125.761719 267.65625 133.492188 C 271.878906 144.320312 273.964844 155.789062 273.855469 167.574219 C 273.648438 190.757812 264.980469 208.367188 248.097656 219.910156 C 233.671875 229.773438 213.128906 234.964844 188.613281 234.964844 Z M 187.675781 78.203125 C 161.058594 78.203125 136.441406 90.640625 120.027344 112.414062 C 114.929688 119.175781 110.824219 126.636719 107.820312 134.582031 C 104.035156 144.585938 102.066406 155.164062 101.960938 166.015625 C 101.753906 189.019531 110.027344 206.640625 126.550781 218.382812 C 141.011719 228.660156 161.925781 234.210938 187.035156 234.4375 C 212.160156 234.671875 233.15625 229.492188 247.800781 219.480469 C 264.535156 208.039062 273.125 190.574219 273.332031 167.570312 C 273.441406 155.851562 271.367188 144.449219 267.167969 133.679688 C 264.179688 125.996094 260.148438 118.78125 255.195312 112.234375 C 239.011719 90.847656 214.6875 78.445312 188.449219 78.207031 C 188.191406 78.203125 187.933594 78.203125 187.675781 78.203125 Z M 187.675781 78.203125 " fill-opacity="1" fill-rule="nonzero"/><path fill="#000072" d="M 101.753906 166.175781 C 103.300781 212.421875 140.820312 230.621094 187.03125 231.039062 C 233.753906 231.460938 271.929688 213.542969 273.53125 166.179688 C 273.40625 162.480469 273.074219 158.832031 272.523438 155.261719 C 265.96875 194.804688 230.132812 210.011719 187.03125 209.625 C 144.5 209.238281 109.320312 193.800781 102.78125 155.285156 C 102.191406 159.109375 101.832031 163.011719 101.726562 166.984375 C 101.734375 166.714844 101.746094 166.445312 101.753906 166.175781 Z M 101.753906 166.175781 " fill-opacity="0.3" fill-rule="nonzero"/><g mask="url(#fe9150f833)"><g transform="matrix(1, 0, 0, 1, 107, 111)"><g clip-path="url(#29d8501ca1)"><g clip-path="url(#b0fccd8033)"><path fill="#760153" d="M 160.414062 22.585938 C 160.238281 22.871094 160.042969 23.160156 159.820312 23.449219 C 107.28125 32.023438 55.960938 32.800781 6.058594 24.445312 C 4.230469 24.140625 2.398438 23.820312 0.574219 23.488281 C 3.617188 15.4375 7.765625 7.960938 12.816406 1.253906 C 58.25 9.019531 104.257812 9.683594 148.40625 1.078125 C 153.324219 7.582031 157.382812 14.808594 160.414062 22.585938 Z M 160.414062 22.585938 " fill-opacity="1" fill-rule="nonzero"/></g><g clip-path="url(#39d8d28e5f)"><path fill="#000072" d="M 77.902344 30.539062 C 53.265625 30.539062 29.253906 28.59375 6.015625 24.703125 C 4.03125 24.375 2.039062 24.019531 0.527344 23.746094 L 0.21875 23.691406 L 0.328125 23.398438 C 3.347656 15.40625 7.480469 7.902344 12.609375 1.097656 L 12.703125 0.972656 L 12.859375 1 C 60.449219 9.132812 106.035156 9.074219 148.355469 0.824219 L 148.515625 0.792969 L 148.613281 0.921875 C 153.59375 7.507812 157.648438 14.765625 160.65625 22.492188 L 160.703125 22.613281 L 160.636719 22.722656 C 160.464844 23.007812 160.265625 23.296875 160.027344 23.609375 L 159.964844 23.691406 L 159.863281 23.707031 C 131.953125 28.261719 104.5625 30.539062 77.902344 30.539062 Z M 0.929688 23.289062 C 2.394531 23.554688 4.25 23.882812 6.101562 24.1875 C 54.394531 32.277344 106.070312 31.945312 159.675781 23.207031 C 159.84375 22.984375 159.992188 22.769531 160.121094 22.558594 C 157.152344 14.972656 153.175781 7.84375 148.292969 1.367188 C 106.003906 9.585938 60.460938 9.644531 12.929688 1.539062 C 7.941406 8.1875 3.902344 15.5 0.929688 23.289062 Z M 0.929688 23.289062 " fill-opacity="1" fill-rule="nonzero"/></g></g></g></g><path fill="#000072" d="M 188.609375 236.535156 C 188.078125 236.535156 187.550781 236.53125 187.015625 236.527344 C 161.476562 236.296875 140.148438 230.609375 125.339844 220.085938 C 108.222656 207.925781 99.65625 189.726562 99.871094 166 C 100.324219 116 140.085938 75.671875 188.46875 76.117188 C 211.925781 76.332031 233.890625 85.96875 250.316406 103.261719 C 266.726562 120.535156 275.640625 143.378906 275.421875 167.585938 C 275.207031 191.316406 266.3125 209.355469 248.980469 221.207031 C 234.296875 231.246094 213.449219 236.535156 188.609375 236.535156 Z M 187.6875 79.773438 C 141.644531 79.773438 103.964844 118.308594 103.53125 166.03125 C 103.328125 188.492188 111.378906 205.675781 127.460938 217.105469 C 141.65625 227.195312 162.261719 232.644531 187.046875 232.871094 C 211.820312 233.09375 232.535156 228.015625 246.910156 218.1875 C 263.195312 207.050781 271.558594 190.015625 271.761719 167.554688 C 271.972656 144.296875 263.414062 122.359375 247.660156 105.777344 C 231.925781 89.210938 210.890625 79.976562 188.433594 79.773438 C 188.1875 79.773438 187.9375 79.773438 187.6875 79.773438 Z M 187.6875 79.773438 " fill-opacity="1" fill-rule="nonzero"/><path fill="#000072" d="M 104.964844 144.335938 C 104.59375 144.335938 104.214844 144.21875 103.890625 143.980469 C 89.277344 133.324219 82.285156 118.816406 84.703125 104.183594 C 86.882812 91 96.34375 79.957031 108.8125 76.054688 C 121.695312 72.023438 135.578125 76.394531 146.902344 88.042969 C 147.605469 88.769531 147.589844 89.925781 146.863281 90.628906 C 146.136719 91.332031 144.976562 91.316406 144.273438 90.589844 C 133.796875 79.8125 121.59375 75.890625 109.90625 79.546875 C 98.746094 83.039062 90.273438 92.941406 88.316406 104.777344 C 86.132812 118 92.59375 131.214844 106.046875 141.027344 C 106.863281 141.625 107.042969 142.769531 106.445312 143.582031 C 106.089844 144.074219 105.53125 144.335938 104.964844 144.335938 Z M 104.964844 144.335938 " fill-opacity="1" fill-rule="nonzero"/><path fill="#ffffff" d="M 178.664062 84.550781 C 182.921875 58.261719 208.351562 67.582031 196.6875 83.523438 Z M 178.664062 84.550781 " fill-opacity="1" fill-rule="nonzero"/><path fill="#000072" d="M 178.664062 84.8125 C 178.648438 84.8125 178.636719 84.8125 178.621094 84.808594 C 178.480469 84.789062 178.382812 84.652344 178.40625 84.511719 C 179.882812 75.390625 184.261719 69.21875 190.121094 67.992188 C 193.609375 67.261719 197.003906 68.554688 198.761719 71.28125 C 200.910156 74.605469 200.230469 79.125 196.898438 83.679688 C 196.8125 83.796875 196.648438 83.820312 196.53125 83.734375 C 196.417969 83.648438 196.390625 83.488281 196.476562 83.371094 C 199.671875 79 200.347656 74.695312 198.324219 71.5625 C 196.683594 69.019531 193.503906 67.820312 190.226562 68.503906 C 184.589844 69.683594 180.363281 75.699219 178.921875 84.59375 C 178.902344 84.722656 178.789062 84.8125 178.664062 84.8125 Z M 178.664062 84.8125 " fill-opacity="1" fill-rule="nonzero"/><path fill="#ffffff" d="M 198.929688 79.519531 C 211.265625 68.226562 221.636719 85.09375 203.636719 88.644531 Z M 198.929688 79.519531 " fill-opacity="1" fill-rule="nonzero"/><path fill="#000072" d="M 203.636719 88.90625 C 203.515625 88.90625 203.40625 88.820312 203.382812 88.695312 C 203.351562 88.554688 203.445312 88.417969 203.585938 88.386719 C 209.019531 87.316406 212.539062 84.789062 213.007812 81.621094 C 213.300781 79.628906 212.257812 77.6875 210.347656 76.671875 C 207.207031 75.007812 203.003906 76.144531 199.105469 79.710938 C 199 79.808594 198.832031 79.800781 198.734375 79.695312 C 198.636719 79.585938 198.644531 79.421875 198.75 79.324219 C 202.820312 75.601562 207.246094 74.4375 210.589844 76.210938 C 212.699219 77.328125 213.851562 79.484375 213.523438 81.699219 C 213.023438 85.09375 209.347656 87.785156 203.6875 88.902344 C 203.671875 88.90625 203.65625 88.90625 203.636719 88.90625 Z M 203.636719 88.90625 " fill-opacity="1" fill-rule="nonzero"/><path fill="#f9123e" d="M 291.296875 132.910156 C 291.296875 132.910156 281.722656 140.230469 264.738281 127.101562 L 264.054688 124.367188 L 263.054688 120.371094 L 265.074219 119.566406 L 265.074219 116.242188 C 265.074219 116.242188 274.429688 103.503906 290.644531 111.414062 C 288.035156 116.75 279.714844 119.984375 271.402344 121.300781 C 271.910156 121.28125 278.339844 121.085938 283.980469 124.316406 C 286.976562 126.035156 289.753906 128.71875 291.296875 132.910156 Z M 291.296875 132.910156 " fill-opacity="1" fill-rule="nonzero"/><path fill="#ffffff" d="M 265.074219 118.984375 L 265.074219 116.242188 C 265.074219 116.242188 274.429688 103.503906 290.644531 111.414062 C 290.136719 112.449219 289.421875 113.398438 288.527344 114.277344 C 275.644531 108.820312 267.375 116.433594 265.074219 118.984375 Z M 265.074219 118.984375 " fill-opacity="0.55" fill-rule="nonzero"/><path fill="#000072" d="M 210.949219 100.351562 C 208.292969 100.351562 205.488281 98.871094 203.082031 96.113281 C 202.410156 95.34375 202.492188 94.179688 203.261719 93.507812 C 204.03125 92.839844 205.199219 92.921875 205.867188 93.6875 C 207.980469 96.109375 210.308594 97.140625 212.101562 96.449219 C 213.144531 96.042969 213.804688 95.070312 213.777344 93.964844 C 213.730469 91.910156 211.582031 89.96875 208.027344 88.777344 C 207.0625 88.453125 206.542969 87.40625 206.867188 86.441406 C 207.191406 85.476562 208.234375 84.953125 209.203125 85.28125 C 214.296875 86.988281 217.386719 90.203125 217.472656 93.878906 C 217.53125 96.558594 215.949219 98.917969 213.4375 99.890625 C 212.632812 100.199219 211.796875 100.351562 210.949219 100.351562 Z M 210.949219 100.351562 " fill-opacity="1" fill-rule="nonzero"/><path fill="#000072" d="M 178.667969 86.382812 C 178.570312 86.382812 178.472656 86.375 178.371094 86.355469 C 177.375 86.195312 176.695312 85.257812 176.859375 84.257812 C 178.441406 74.476562 183.28125 67.820312 189.800781 66.457031 C 193.933594 65.59375 197.96875 67.152344 200.085938 70.429688 C 201.277344 72.273438 203.476562 77.351562 198.167969 84.601562 C 197.570312 85.417969 196.425781 85.597656 195.609375 85 C 194.792969 84.402344 194.617188 83.261719 195.210938 82.445312 C 198.003906 78.625 198.660156 74.96875 197.007812 72.410156 C 195.722656 70.417969 193.1875 69.484375 190.550781 70.035156 C 185.574219 71.078125 181.808594 76.613281 180.472656 84.84375 C 180.324219 85.742188 179.550781 86.382812 178.667969 86.382812 Z M 178.667969 86.382812 " fill-opacity="1" fill-rule="nonzero"/><path fill="#000072" d="M 203.636719 90.472656 C 202.78125 90.472656 202.015625 89.871094 201.84375 89 C 201.644531 88.007812 202.292969 87.046875 203.285156 86.851562 C 208.035156 85.914062 211.089844 83.875 211.453125 81.394531 C 211.652344 80.046875 210.949219 78.765625 209.613281 78.058594 C 207.660156 77.023438 204.152344 77.21875 200.164062 80.867188 C 199.421875 81.550781 198.261719 81.5 197.578125 80.753906 C 196.894531 80.011719 196.945312 78.851562 197.691406 78.171875 C 202.269531 73.980469 207.367188 72.730469 211.328125 74.828125 C 214.027344 76.261719 215.5 79.046875 215.074219 81.929688 C 214.789062 83.886719 213.128906 88.636719 203.992188 90.441406 C 203.875 90.464844 203.753906 90.472656 203.636719 90.472656 Z M 203.636719 90.472656 " fill-opacity="1" fill-rule="nonzero"/><path fill="#000072" d="M 210.949219 100.335938 C 208.296875 100.335938 205.5 98.859375 203.09375 96.101562 C 202.429688 95.339844 202.511719 94.183594 203.273438 93.519531 C 204.035156 92.855469 205.191406 92.9375 205.855469 93.699219 C 207.972656 96.125 210.308594 97.15625 212.105469 96.460938 C 213.160156 96.054688 213.820312 95.074219 213.796875 93.960938 C 213.75 91.898438 211.597656 89.957031 208.035156 88.761719 C 207.078125 88.4375 206.558594 87.402344 206.882812 86.445312 C 207.203125 85.488281 208.242188 84.972656 209.199219 85.292969 C 214.285156 87 217.371094 90.207031 217.457031 93.878906 C 217.519531 96.550781 215.9375 98.902344 213.429688 99.875 C 212.628906 100.183594 211.796875 100.335938 210.949219 100.335938 Z M 210.949219 100.335938 " fill-opacity="1" fill-rule="nonzero"/><path fill="#60547b" d="M 172.09375 139.855469 C 163.375 146.871094 158.289062 157.550781 155.949219 170.988281 C 155.292969 174.753906 152.335938 177.691406 148.578125 178.414062 C 129.675781 182.054688 115.292969 161.527344 124.765625 138.78125 C 137.230469 109.339844 168.367188 112.890625 174.839844 129.484375 C 176.273438 133.15625 175.164062 137.382812 172.09375 139.855469 Z M 172.09375 139.855469 " fill-opacity="1" fill-rule="nonzero"/><path fill="#60547b" d="M 201.054688 139.855469 C 209.777344 146.871094 214.859375 157.550781 217.199219 170.988281 C 217.855469 174.753906 220.8125 177.691406 224.570312 178.414062 C 243.476562 182.054688 257.855469 161.527344 248.386719 138.78125 C 235.921875 109.339844 204.785156 112.890625 198.308594 129.484375 C 196.878906 133.15625 197.984375 137.382812 201.054688 139.855469 Z M 201.054688 139.855469 " fill-opacity="1" fill-rule="nonzero"/><path fill="#000072" d="M 197.847656 173.230469 C 197.804688 178.304688 192.695312 185.136719 186.472656 185.078125 C 180.25 185.023438 175.265625 178.101562 175.3125 173.027344 C 175.359375 167.953125 180.417969 166.640625 186.640625 166.695312 C 192.863281 166.753906 197.894531 168.15625 197.847656 173.230469 Z M 197.847656 173.230469 " fill-opacity="1" fill-rule="nonzero"/><path fill="#000072" d="M 165.875 181.011719 C 166.632812 182.328125 167.273438 183.542969 168.0625 184.578125 C 168.820312 185.632812 169.667969 186.511719 170.601562 187.253906 C 171.535156 187.992188 172.585938 188.601562 173.761719 188.945312 C 174.929688 189.289062 176.195312 189.308594 177.410156 189.117188 C 179.859375 188.742188 182.085938 187.304688 183.363281 185.25 C 184.691406 183.203125 185.003906 180.574219 184.566406 177.964844 C 184.402344 176.96875 185.078125 176.023438 186.074219 175.859375 C 187.070312 175.695312 188.015625 176.367188 188.179688 177.363281 L 188.179688 177.371094 L 188.183594 177.386719 C 188.441406 178.988281 188.507812 180.683594 188.246094 182.367188 C 187.988281 184.042969 187.410156 185.734375 186.460938 187.195312 C 185.535156 188.671875 184.269531 189.941406 182.8125 190.886719 C 181.359375 191.84375 179.699219 192.445312 177.996094 192.726562 C 176.292969 193 174.535156 192.9375 172.839844 192.539062 C 171.152344 192.136719 169.484375 191.414062 168.128906 190.269531 C 167.453125 189.703125 166.863281 189.042969 166.367188 188.332031 C 165.863281 187.621094 165.464844 186.851562 165.175781 186.058594 C 164.878906 185.265625 164.695312 184.449219 164.613281 183.632812 C 164.511719 182.824219 164.546875 182.003906 164.671875 181.207031 C 164.726562 180.859375 165.054688 180.617188 165.402344 180.671875 C 165.601562 180.703125 165.765625 180.824219 165.859375 180.984375 Z M 165.875 181.011719 " fill-opacity="1" fill-rule="nonzero"/><path fill="#000072" d="M 202.878906 191.019531 C 202.878906 191.019531 202.597656 200.859375 198.84375 204.132812 C 192.574219 194.976562 180.582031 194.976562 174.3125 204.132812 L 171.039062 196.125 L 171.039062 191.019531 L 171.570312 189.929688 C 176.300781 192.441406 182.328125 190.539062 185.082031 185.078125 C 186.09375 185.089844 187.105469 185.089844 188.085938 185.089844 C 190.886719 190.632812 197.070312 192.503906 201.832031 189.796875 C 202.453125 190.515625 202.878906 191.019531 202.878906 191.019531 Z M 202.878906 191.019531 " fill-opacity="1" fill-rule="nonzero"/><path fill="#f9123e" d="M 198.210938 203.085938 C 192.023438 209.988281 181.132812 209.988281 174.949219 203.085938 C 176.929688 198.644531 181.394531 195.546875 186.574219 195.546875 C 191.761719 195.546875 196.226562 198.644531 198.210938 203.085938 Z M 198.210938 203.085938 " fill-opacity="1" fill-rule="nonzero"/><path fill="#000072" d="M 208.492188 181.207031 C 208.746094 182.800781 208.566406 184.46875 207.984375 186.058594 C 207.40625 187.644531 206.378906 189.128906 205.027344 190.265625 C 203.675781 191.410156 202.015625 192.148438 200.320312 192.535156 C 198.625 192.925781 196.871094 193.003906 195.164062 192.726562 C 191.753906 192.214844 188.554688 190.164062 186.703125 187.195312 C 185.753906 185.734375 185.171875 184.042969 184.917969 182.367188 C 184.65625 180.683594 184.722656 178.988281 184.980469 177.386719 L 184.984375 177.371094 C 185.144531 176.375 186.082031 175.695312 187.082031 175.859375 C 188.078125 176.019531 188.757812 176.957031 188.597656 177.953125 L 188.597656 177.964844 C 188.164062 180.574219 188.472656 183.199219 189.800781 185.246094 C 191.085938 187.300781 193.304688 188.75 195.753906 189.117188 C 196.96875 189.308594 198.230469 189.273438 199.402344 188.941406 C 200.578125 188.613281 201.625 187.988281 202.558594 187.25 C 204.464844 185.789062 205.847656 183.660156 207.289062 181.011719 L 207.292969 181.003906 C 207.460938 180.691406 207.851562 180.578125 208.164062 180.746094 C 208.34375 180.84375 208.460938 181.019531 208.492188 181.207031 Z M 208.492188 181.207031 " fill-opacity="1" fill-rule="nonzero"/><path fill="#000072" d="M 265.070312 123.765625 C 264.09375 123.765625 263.285156 123 263.242188 122.015625 C 263.199219 121.003906 263.984375 120.152344 264.992188 120.109375 C 273.855469 119.734375 283.996094 116.933594 287.941406 112.214844 C 274.527344 106.882812 266.875 116.882812 266.542969 117.332031 C 265.941406 118.140625 264.796875 118.3125 263.984375 117.710938 C 263.171875 117.113281 263 115.972656 263.59375 115.160156 C 263.695312 115.019531 274.058594 101.285156 291.445312 109.769531 C 291.882812 109.980469 292.214844 110.359375 292.375 110.816406 C 292.53125 111.277344 292.5 111.777344 292.285156 112.214844 C 288.695312 119.546875 276.070312 123.296875 265.148438 123.761719 C 265.125 123.765625 265.097656 123.765625 265.070312 123.765625 Z M 265.070312 123.765625 " fill-opacity="1" fill-rule="nonzero"/><path fill="#000072" d="M 283.621094 136.792969 C 278.765625 136.792969 272.011719 135.035156 263.621094 128.546875 C 262.820312 127.929688 262.675781 126.78125 263.292969 125.980469 C 263.910156 125.183594 265.0625 125.035156 265.859375 125.65625 C 278.199219 135.195312 286.085938 133.386719 288.972656 132.117188 C 284.335938 122.617188 272.007812 123.101562 271.464844 123.128906 C 270.46875 123.179688 269.597656 122.402344 269.546875 121.394531 C 269.496094 120.386719 270.269531 119.527344 271.277344 119.476562 C 271.441406 119.46875 288.03125 118.761719 293.015625 132.277344 C 293.292969 133.03125 293.050781 133.875 292.410156 134.363281 C 292.179688 134.542969 289.117188 136.792969 283.621094 136.792969 Z M 283.621094 136.792969 " fill-opacity="1" fill-rule="nonzero"/><path fill="#000072" d="M 186.578125 210.09375 C 181.613281 210.09375 176.878906 207.984375 173.582031 204.308594 C 170.222656 200.582031 168.445312 195.433594 168.445312 189.421875 C 168.445312 188.410156 169.265625 187.59375 170.277344 187.59375 C 171.285156 187.59375 172.105469 188.410156 172.105469 189.421875 C 172.105469 194.515625 173.558594 198.816406 176.308594 201.863281 C 178.914062 204.769531 182.652344 206.433594 186.578125 206.433594 C 190.5 206.433594 194.242188 204.769531 196.84375 201.867188 C 199.597656 198.816406 201.050781 194.515625 201.050781 189.421875 C 201.050781 188.414062 201.871094 187.59375 202.878906 187.59375 C 203.890625 187.59375 204.710938 188.414062 204.710938 189.421875 C 204.710938 195.433594 202.933594 200.582031 199.570312 204.3125 C 196.277344 207.984375 191.539062 210.09375 186.578125 210.09375 Z M 186.578125 210.09375 " fill-opacity="1" fill-rule="nonzero"/><path fill="#f9123e" d="M 265.507812 128.824219 C 214.328125 137.398438 164.328125 138.179688 115.722656 129.824219 C 113.859375 129.503906 111.996094 129.167969 110.140625 128.824219 C 110.140625 128.824219 110.140625 116.339844 114.703125 113.730469 C 113.792969 108.015625 117.207031 104.265625 121.03125 106.40625 C 165.789062 114.398438 211.144531 115.144531 254.640625 106.40625 C 254.640625 106.40625 258.410156 106.898438 260.386719 112.53125 C 260.386719 112.53125 260.386719 112.53125 260.394531 112.53125 C 260.421875 112.546875 260.550781 112.636719 260.753906 112.777344 C 262.679688 114.164062 271.304688 120.996094 265.507812 128.824219 Z M 265.507812 128.824219 " fill-opacity="1" fill-rule="nonzero"/><path fill="#ffffff" d="M 259.382812 110.304688 C 259.085938 110.496094 258.765625 110.703125 258.449219 110.914062 C 257.335938 110.179688 256.472656 110.066406 256.472656 110.066406 C 212.972656 118.800781 167.617188 118.054688 122.859375 110.066406 C 119.039062 107.921875 115.621094 111.675781 116.53125 117.386719 C 113.484375 119.132812 112.472656 125.296875 112.140625 129.191406 C 111.476562 129.070312 110.804688 128.949219 110.140625 128.824219 C 110.140625 128.824219 110.140625 116.339844 114.703125 113.730469 C 113.792969 108.015625 117.207031 104.265625 121.03125 106.40625 C 165.789062 114.398438 211.144531 115.144531 254.640625 106.40625 C 254.640625 106.40625 257.355469 106.761719 259.382812 110.304688 Z M 259.382812 110.304688 " fill-opacity="0.55" fill-rule="nonzero"/><path fill="#000072" d="M 185.722656 137.484375 C 160.667969 137.484375 136.265625 135.371094 112.675781 131.148438 C 110.058594 130.675781 108.246094 128.320312 108.457031 125.667969 C 108.96875 119.273438 110.414062 114.984375 112.761719 112.890625 C 112.5 109.445312 113.621094 106.464844 115.800781 104.945312 C 117.519531 103.746094 119.628906 103.648438 121.636719 104.660156 C 168.246094 112.945312 212.871094 112.933594 254.28125 104.617188 L 254.578125 104.558594 L 254.878906 104.597656 C 255.070312 104.621094 259.519531 105.269531 261.902344 111.359375 C 263.488281 112.511719 268.222656 116.339844 269.148438 121.515625 C 269.675781 124.4375 268.945312 127.261719 266.980469 129.914062 L 266.539062 130.507812 L 265.8125 130.628906 C 238.542969 135.199219 211.78125 137.484375 185.722656 137.484375 Z M 118.882812 107.628906 C 118.527344 107.628906 118.195312 107.734375 117.894531 107.945312 C 116.882812 108.648438 116.0625 110.621094 116.507812 113.441406 L 116.707031 114.691406 L 115.609375 115.316406 C 113.894531 116.296875 112.550781 120.375 112.105469 125.960938 C 112.046875 126.730469 112.566406 127.410156 113.320312 127.550781 C 160.808594 136.050781 211.644531 135.917969 264.445312 127.148438 C 265.492188 125.511719 265.855469 123.875 265.546875 122.164062 C 264.863281 118.359375 261.089844 115.300781 259.8125 114.363281 L 259.097656 114.363281 L 258.660156 113.140625 C 257.375 109.472656 255.3125 108.507812 254.605469 108.28125 C 212.773438 116.628906 167.730469 116.605469 120.707031 108.210938 L 120.402344 108.15625 L 120.136719 108.003906 C 119.6875 107.753906 119.269531 107.628906 118.882812 107.628906 Z M 265.507812 128.824219 L 265.515625 128.824219 Z M 265.507812 128.824219 " fill-opacity="1" fill-rule="nonzero"/><path fill="#000072" d="M 116.214844 112.695312 C 116.3125 112.875 116.476562 113.140625 116.628906 113.367188 C 116.78125 113.601562 116.949219 113.835938 117.117188 114.070312 C 117.460938 114.535156 117.824219 114.988281 118.203125 115.433594 C 118.960938 116.324219 119.800781 117.15625 120.699219 117.921875 C 121.140625 118.320312 121.621094 118.664062 122.089844 119.03125 C 122.582031 119.355469 123.0625 119.71875 123.585938 120.007812 C 124.597656 120.644531 125.699219 121.128906 126.824219 121.585938 L 126.851562 121.597656 C 127.121094 121.707031 127.25 122.011719 127.140625 122.28125 C 127.042969 122.519531 126.789062 122.644531 126.546875 122.59375 C 125.304688 122.328125 124.042969 122.023438 122.84375 121.535156 C 122.230469 121.324219 121.65625 121.03125 121.054688 120.773438 C 120.484375 120.46875 119.890625 120.183594 119.339844 119.839844 C 118.214844 119.179688 117.132812 118.429688 116.113281 117.59375 C 115.605469 117.175781 115.109375 116.738281 114.625 116.277344 C 114.386719 116.046875 114.144531 115.8125 113.914062 115.566406 C 113.671875 115.3125 113.460938 115.085938 113.195312 114.757812 L 113.164062 114.71875 C 112.519531 113.929688 112.640625 112.769531 113.433594 112.128906 C 114.222656 111.488281 115.382812 111.613281 116.023438 112.402344 C 116.09375 112.492188 116.164062 112.597656 116.214844 112.695312 Z M 116.214844 112.695312 " fill-opacity="1" fill-rule="nonzero"/><path fill="#000072" d="M 261.765625 113.425781 C 261.625 113.738281 261.542969 113.859375 261.433594 114.042969 C 261.328125 114.222656 261.21875 114.363281 261.109375 114.523438 C 260.886719 114.820312 260.664062 115.109375 260.421875 115.371094 C 259.953125 115.910156 259.4375 116.371094 258.917969 116.816406 C 257.863281 117.683594 256.71875 118.375 255.554688 118.960938 C 254.390625 119.558594 253.171875 119.984375 251.964844 120.378906 C 251.355469 120.558594 250.738281 120.710938 250.128906 120.875 L 248.285156 121.25 C 248 121.308594 247.726562 121.125 247.667969 120.839844 C 247.617188 120.589844 247.753906 120.34375 247.988281 120.25 L 248.015625 120.238281 L 249.703125 119.570312 C 250.25 119.3125 250.796875 119.070312 251.332031 118.804688 C 252.378906 118.238281 253.410156 117.660156 254.332031 116.949219 C 255.257812 116.257812 256.117188 115.5 256.828125 114.65625 C 257.171875 114.234375 257.503906 113.804688 257.769531 113.355469 C 257.910156 113.136719 258.023438 112.910156 258.132812 112.691406 C 258.175781 112.585938 258.238281 112.472656 258.269531 112.375 C 258.300781 112.289062 258.355469 112.132812 258.332031 112.164062 C 258.679688 111.214844 259.734375 110.730469 260.679688 111.078125 C 261.628906 111.425781 262.117188 112.476562 261.765625 113.425781 Z M 261.765625 113.425781 " fill-opacity="1" fill-rule="nonzero"/><path fill="#000072" d="M 291.296875 132.910156 C 291.296875 132.910156 282.203125 139.859375 266.027344 128.066406 C 266.679688 127.027344 267.089844 126.003906 267.296875 125.015625 C 267.578125 125.105469 267.863281 125.214844 268.15625 125.335938 C 277.722656 129.28125 282.445312 125.878906 283.980469 124.316406 C 286.976562 126.035156 289.753906 128.71875 291.296875 132.910156 Z M 291.296875 132.910156 " fill-opacity="0.3" fill-rule="nonzero"/><path fill="#000072" d="M 265.507812 128.824219 C 214.328125 137.398438 164.328125 138.179688 115.722656 129.824219 C 110.554688 128.804688 117.839844 117.152344 117.839844 117.152344 L 120.695312 119.351562 C 160.378906 133.789062 244.882812 124.941406 244.882812 124.941406 C 261.226562 122.984375 254.097656 118.984375 254.097656 118.984375 L 260.753906 112.777344 C 262.679688 114.164062 271.304688 120.996094 265.507812 128.824219 Z M 265.507812 128.824219 " fill-opacity="0.3" fill-rule="nonzero"/><path fill="#fbbf01" d="M 84.367188 165.484375 C 86.796875 164.5625 89.515625 165.78125 90.441406 168.207031 L 128.613281 268.476562 C 128.65625 268.59375 128.699219 268.714844 128.726562 268.835938 L 128.734375 268.855469 C 128.84375 269.246094 128.890625 269.648438 128.882812 270.046875 L 128.792969 275.269531 L 128.722656 279.03125 C 128.703125 280.054688 127.445312 280.535156 126.742188 279.78125 L 124.09375 276.910156 L 120.652344 273.175781 C 120.382812 272.878906 120.152344 272.546875 119.972656 272.1875 L 119.964844 272.164062 C 119.90625 272.054688 119.859375 271.9375 119.8125 271.820312 L 81.640625 171.550781 C 80.714844 169.125 81.9375 166.40625 84.367188 165.484375 Z M 84.367188 165.484375 " fill-opacity="1" fill-rule="nonzero"/><path fill="#9da5b2" d="M 92.980469 172.90625 L 95.058594 178.25 L 91.886719 177.90625 L 89.6875 177.90625 L 86.328125 180.023438 L 83.550781 181.910156 L 82.605469 180.023438 L 81.332031 175.53125 C 81.332031 175.53125 83.539062 174.628906 83.546875 174.609375 C 83.550781 174.59375 87.304688 172.097656 87.304688 172.097656 L 90.054688 171.757812 Z M 92.980469 172.90625 " fill-opacity="1" fill-rule="nonzero"/><path fill="#ffffff" d="M 84.015625 165.441406 C 84.394531 165.296875 84.773438 165.207031 85.160156 165.160156 C 83.449219 166.371094 82.703125 168.628906 83.480469 170.675781 L 121.65625 270.945312 C 121.699219 271.0625 121.75 271.179688 121.808594 271.289062 L 121.816406 271.308594 C 121.992188 271.671875 122.226562 272.003906 122.496094 272.296875 L 125.9375 276.03125 L 128.382812 278.679688 L 128.375 278.984375 C 128.355469 280.007812 127.097656 280.488281 126.394531 279.738281 L 123.746094 276.863281 L 120.304688 273.128906 C 120.035156 272.835938 119.804688 272.503906 119.625 272.140625 L 119.617188 272.121094 C 119.558594 272.007812 119.507812 271.894531 119.464844 271.777344 L 81.292969 171.507812 C 80.367188 169.078125 81.589844 166.363281 84.015625 165.441406 Z M 84.015625 165.441406 " fill-opacity="0.55" fill-rule="nonzero"/><path fill="#ed4327" d="M 84.367188 165.484375 C 86.796875 164.5625 89.515625 165.78125 90.441406 168.207031 L 92.980469 174.882812 C 90.996094 169.671875 81.828125 172.253906 83.8125 177.464844 L 81.640625 171.550781 C 80.714844 169.125 81.9375 166.40625 84.367188 165.484375 Z M 84.367188 165.484375 " fill-opacity="1" fill-rule="nonzero"/><path fill="#ffe5a4" d="M 128.726562 268.835938 L 128.734375 268.855469 C 128.839844 269.246094 128.890625 269.648438 128.882812 270.046875 L 128.789062 275.269531 L 128.722656 279.03125 C 128.703125 280.054688 127.441406 280.535156 126.742188 279.78125 L 124.09375 276.910156 L 120.652344 273.175781 C 120.382812 272.878906 120.152344 272.546875 119.972656 272.1875 L 119.964844 272.164062 C 118.621094 267.332031 126.519531 264.332031 128.726562 268.835938 Z M 128.726562 268.835938 " fill-opacity="1" fill-rule="nonzero"/><path fill="#000072" d="M 84.367188 165.484375 C 86.796875 164.5625 89.515625 165.78125 90.441406 168.207031 L 128.613281 268.476562 C 128.65625 268.59375 128.699219 268.714844 128.726562 268.835938 L 128.734375 268.855469 C 128.84375 269.246094 128.890625 269.648438 128.882812 270.046875 L 128.792969 275.269531 L 128.722656 279.03125 C 128.703125 280.054688 127.445312 280.535156 126.742188 279.78125 L 125.453125 278.382812 L 125.484375 276.523438 L 125.578125 271.300781 C 125.585938 270.902344 125.539062 270.5 125.429688 270.113281 L 125.421875 270.09375 C 125.390625 269.96875 125.351562 269.851562 125.308594 269.734375 L 87.132812 169.464844 C 86.433594 167.621094 84.699219 166.476562 82.835938 166.433594 C 83.265625 166.03125 83.785156 165.703125 84.367188 165.484375 Z M 84.367188 165.484375 " fill-opacity="0.3" fill-rule="nonzero"/><path fill="#000072" d="M 86.039062 165.175781 C 87.9375 165.175781 89.722656 166.328125 90.4375 168.207031 L 128.613281 268.476562 C 128.800781 268.976562 128.894531 269.511719 128.882812 270.046875 L 128.789062 275.269531 L 128.722656 279.027344 C 128.710938 279.707031 128.152344 280.148438 127.570312 280.148438 C 127.277344 280.148438 126.976562 280.035156 126.742188 279.78125 L 124.09375 276.910156 L 120.652344 273.175781 C 120.289062 272.78125 120.003906 272.320312 119.8125 271.820312 L 81.640625 171.550781 C 80.714844 169.125 81.9375 166.40625 84.367188 165.484375 C 84.917969 165.273438 85.484375 165.175781 86.039062 165.175781 Z M 86.039062 162.039062 C 85.085938 162.039062 84.148438 162.210938 83.25 162.554688 C 81.292969 163.296875 79.742188 164.757812 78.882812 166.667969 C 78.023438 168.582031 77.960938 170.707031 78.707031 172.667969 L 116.878906 272.9375 C 117.210938 273.808594 117.703125 274.605469 118.34375 275.296875 L 121.785156 279.03125 L 124.4375 281.90625 C 125.265625 282.800781 126.378906 283.285156 127.574219 283.285156 C 129.933594 283.285156 131.820312 281.441406 131.859375 279.085938 L 131.929688 275.328125 L 132.023438 270.101562 C 132.039062 269.15625 131.878906 268.238281 131.542969 267.363281 L 93.371094 167.09375 C 92.222656 164.070312 89.273438 162.039062 86.039062 162.039062 Z M 86.039062 162.039062 " fill-opacity="1" fill-rule="nonzero"/><path fill="#000072" d="M 128.605469 275.195312 C 128.605469 275.195312 128.671875 275.21875 128.792969 275.269531 L 128.726562 278.867188 C 128.707031 279.953125 127.371094 280.460938 126.636719 279.660156 L 124.09375 276.910156 C 125.015625 275.050781 126.484375 274.402344 128.605469 275.195312 Z M 128.605469 275.195312 " fill-opacity="1" fill-rule="nonzero"/><path fill="#000072" d="M 119.171875 274.8125 C 118.640625 274.8125 118.144531 274.492188 117.945312 273.96875 C 117.097656 271.742188 117.449219 269.515625 118.933594 267.695312 C 120.703125 265.523438 123.75 264.363281 126.523438 264.8125 C 128.84375 265.183594 130.585938 266.617188 131.433594 268.839844 C 131.691406 269.519531 131.351562 270.273438 130.675781 270.535156 C 130 270.789062 129.238281 270.449219 128.980469 269.773438 C 128.339844 268.09375 127.0625 267.554688 126.101562 267.398438 C 124.292969 267.105469 122.128906 267.925781 120.96875 269.351562 C 120.355469 270.101562 119.757812 271.355469 120.398438 273.035156 C 120.65625 273.710938 120.316406 274.46875 119.636719 274.726562 C 119.484375 274.785156 119.328125 274.8125 119.171875 274.8125 Z M 119.171875 274.8125 " fill-opacity="1" fill-rule="nonzero"/><path fill="#000072" d="M 82.796875 181.007812 C 82.269531 181.007812 81.773438 180.6875 81.578125 180.164062 C 79.980469 175.972656 82.757812 172.410156 86.328125 171.050781 C 88.125 170.367188 90.015625 170.265625 91.65625 170.761719 C 93.566406 171.339844 95.019531 172.71875 95.757812 174.648438 C 96.011719 175.324219 95.675781 176.078125 95 176.335938 C 94.328125 176.59375 93.570312 176.253906 93.3125 175.578125 C 92.859375 174.390625 92.046875 173.609375 90.894531 173.261719 C 89.828125 172.9375 88.5 173.019531 87.257812 173.492188 C 84.976562 174.359375 82.988281 176.527344 84.019531 179.234375 C 84.277344 179.910156 83.9375 180.664062 83.261719 180.921875 C 83.109375 180.980469 82.953125 181.007812 82.796875 181.007812 Z M 82.796875 181.007812 " fill-opacity="1" fill-rule="nonzero"/><path fill="#000072" d="M 85.019531 186.84375 C 84.492188 186.84375 83.996094 186.523438 83.796875 186.003906 C 82.191406 181.789062 85.066406 178.5 88.410156 177.226562 C 92.125 175.816406 96.738281 176.632812 98.371094 180.921875 C 98.628906 181.59375 98.289062 182.347656 97.613281 182.605469 C 96.941406 182.863281 96.183594 182.523438 95.925781 181.847656 C 94.90625 179.164062 91.839844 178.722656 89.339844 179.671875 C 87.097656 180.523438 85.273438 182.523438 86.242188 185.074219 C 86.5 185.746094 86.160156 186.503906 85.484375 186.757812 C 85.332031 186.816406 85.175781 186.84375 85.019531 186.84375 Z M 85.019531 186.84375 " fill-opacity="1" fill-rule="nonzero"/><path fill="#60547b" d="M 102.492188 227.304688 L 111.09375 249.949219 L 110.246094 251.816406 C 100.3125 250.335938 92.027344 247.21875 85.589844 243.105469 C 69.273438 232.707031 64.847656 215.929688 75.652344 203.101562 C 82.898438 194.5 95.40625 192.242188 104.847656 198.355469 C 106.550781 199.460938 108.027344 200.738281 109.21875 202.167969 L 109.226562 202.167969 C 114.90625 208.929688 114.359375 218.84375 102.492188 227.304688 Z M 102.492188 227.304688 " fill-opacity="1" fill-rule="nonzero"/><path fill="#ffffff" d="M 106.328125 202.296875 C 96.886719 196.183594 84.378906 198.441406 77.132812 207.042969 C 71.558594 213.660156 70.042969 221.332031 72.117188 228.636719 C 68.136719 220.21875 69.0625 210.925781 75.652344 203.101562 C 82.898438 194.5 95.40625 192.242188 104.847656 198.355469 C 108.863281 200.949219 111.605469 204.566406 112.453125 208.636719 C 111.09375 206.183594 108.988281 204.015625 106.328125 202.296875 Z M 106.328125 202.296875 " fill-opacity="0.55" fill-rule="nonzero"/><path fill="#000072" d="M 113.050781 254.085938 L 109.972656 253.625 C 99.796875 252.105469 90.664062 248.765625 83.550781 243.964844 C 76.804688 239.414062 71.976562 233.667969 69.585938 227.347656 C 66.238281 218.5 67.894531 209.46875 74.25 201.921875 C 82.1875 192.5 95.769531 190.304688 105.84375 196.816406 C 111.742188 200.628906 114.90625 206.265625 114.527344 212.273438 C 114.152344 218.253906 110.3125 223.953125 103.535156 228.796875 Z M 93.109375 196.738281 C 87.15625 196.738281 81.203125 199.347656 77.050781 204.277344 C 71.589844 210.765625 70.152344 218.5 73.011719 226.054688 C 77.292969 237.371094 90.328125 246.183594 107.40625 249.476562 L 100.394531 230.851562 C 98.898438 231.75 97.296875 232.613281 95.585938 233.433594 C 94.671875 233.871094 93.578125 233.488281 93.144531 232.578125 C 92.703125 231.667969 93.089844 230.574219 94 230.136719 C 96.316406 229.023438 98.414062 227.839844 100.28125 226.605469 C 100.296875 226.59375 100.3125 226.585938 100.328125 226.574219 C 106.859375 222.230469 110.546875 217.203125 110.875 212.046875 C 111.167969 207.394531 108.609375 202.964844 103.855469 199.890625 C 100.570312 197.765625 96.839844 196.738281 93.109375 196.738281 Z M 93.109375 196.738281 " fill-opacity="1" fill-rule="nonzero"/><path fill="#000072" d="M 129.410156 223.484375 C 120.5 223.484375 111.960938 220.742188 111.578125 220.621094 C 110.621094 220.308594 110.09375 219.273438 110.40625 218.316406 C 110.71875 217.355469 111.753906 216.828125 112.710938 217.140625 C 112.804688 217.171875 122.160156 220.171875 130.988281 219.796875 C 131.988281 219.757812 132.851562 220.539062 132.894531 221.546875 C 132.9375 222.558594 132.152344 223.410156 131.140625 223.453125 C 130.566406 223.472656 129.988281 223.484375 129.410156 223.484375 Z M 129.410156 223.484375 " fill-opacity="1" fill-rule="nonzero"/><path fill="#000072" d="M 261.085938 236.816406 C 260.503906 236.816406 259.929688 236.539062 259.574219 236.023438 L 248.222656 219.453125 C 247.652344 218.621094 247.867188 217.484375 248.699219 216.914062 C 249.53125 216.339844 250.671875 216.554688 251.246094 217.390625 L 262.597656 233.957031 C 263.167969 234.789062 262.953125 235.925781 262.121094 236.5 C 261.804688 236.714844 261.445312 236.816406 261.085938 236.816406 Z M 261.085938 236.816406 " fill-opacity="1" fill-rule="nonzero"/><path fill="#000072" d="M 125.394531 256.371094 C 125.308594 256.371094 125.222656 256.363281 125.136719 256.351562 C 124.136719 256.210938 123.4375 255.285156 123.578125 254.285156 C 125.515625 240.554688 132.183594 223.417969 132.46875 222.695312 C 132.835938 221.753906 133.898438 221.289062 134.839844 221.65625 C 135.78125 222.027344 136.246094 223.085938 135.878906 224.027344 C 135.808594 224.199219 129.082031 241.492188 127.203125 254.796875 C 127.074219 255.710938 126.292969 256.371094 125.394531 256.371094 Z M 125.394531 256.371094 " fill-opacity="1" fill-rule="nonzero"/><path fill="#000072" d="M 237.050781 237.566406 C 236.179688 237.566406 235.40625 236.941406 235.25 236.054688 L 233.617188 226.792969 C 233.441406 225.796875 234.105469 224.847656 235.101562 224.671875 C 236.101562 224.496094 237.046875 225.164062 237.222656 226.15625 L 238.855469 235.417969 C 239.03125 236.414062 238.367188 237.363281 237.371094 237.539062 C 237.261719 237.558594 237.15625 237.566406 237.050781 237.566406 Z M 237.050781 237.566406 " fill-opacity="1" fill-rule="nonzero"/><path fill="#000072" d="M 294.332031 305.011719 L 276.476562 306.34375 L 274.355469 306.503906 L 274.253906 306.265625 L 259.890625 274.109375 C 248.730469 273.066406 235.417969 262.671875 235.417969 262.671875 L 264.875 262.007812 C 264.5625 260.878906 266.4375 261.71875 266.191406 261.285156 Z M 294.332031 305.011719 " fill-opacity="0.3" fill-rule="nonzero"/><path fill="#60547b" d="M 271.59375 250.804688 C 271.59375 261.023438 261.808594 265.195312 249.734375 265.195312 C 237.660156 265.195312 227.875 261.023438 227.875 250.804688 C 227.875 240.585938 237.660156 232.300781 249.734375 232.300781 C 261.808594 232.300781 271.59375 240.585938 271.59375 250.804688 Z M 271.59375 250.804688 " fill-opacity="1" fill-rule="nonzero"/><path fill="#000072" d="M 271.59375 250.804688 C 271.59375 261.019531 261.804688 265.195312 249.734375 265.195312 C 239.242188 265.195312 230.476562 262.042969 228.359375 254.507812 C 232.265625 256.621094 237.511719 257.578125 243.273438 257.578125 C 255.351562 257.578125 265.136719 253.402344 265.136719 243.179688 C 265.136719 240.851562 264.628906 238.617188 263.691406 236.566406 C 268.519531 239.960938 271.59375 245.078125 271.59375 250.804688 Z M 271.59375 250.804688 " fill-opacity="0.3" fill-rule="nonzero"/><path fill="#ffffff" d="M 269.164062 242.3125 C 265.167969 237.859375 258.851562 234.988281 251.738281 234.988281 C 239.667969 234.988281 229.875 243.273438 229.875 253.492188 C 229.875 255.820312 230.382812 257.835938 231.3125 259.5625 C 229.136719 257.367188 227.871094 254.472656 227.871094 250.804688 C 227.871094 240.582031 237.65625 232.300781 249.734375 232.300781 C 258.191406 232.300781 265.523438 236.367188 269.164062 242.3125 Z M 269.164062 242.3125 " fill-opacity="0.55" fill-rule="nonzero"/><path fill="#000072" d="M 249.734375 267.023438 C 234.898438 267.023438 226.042969 260.960938 226.042969 250.804688 C 226.042969 239.59375 236.671875 230.472656 249.734375 230.472656 C 262.796875 230.472656 273.425781 239.59375 273.425781 250.804688 C 273.425781 260.960938 264.570312 267.023438 249.734375 267.023438 Z M 249.734375 234.128906 C 238.6875 234.128906 229.707031 241.609375 229.707031 250.804688 C 229.707031 262.140625 243.710938 263.367188 249.734375 263.367188 C 255.753906 263.367188 269.765625 262.144531 269.765625 250.804688 C 269.765625 241.609375 260.777344 234.128906 249.734375 234.128906 Z M 249.734375 234.128906 " fill-opacity="1" fill-rule="nonzero"/><path fill="#000072" d="M 178.648438 317.125 L 78.910156 317.125 C 78.042969 317.125 77.34375 316.425781 77.34375 315.558594 C 77.34375 314.695312 78.042969 313.992188 78.910156 313.992188 L 178.652344 313.992188 C 179.519531 313.992188 180.21875 314.695312 180.21875 315.558594 C 180.21875 316.425781 179.515625 317.125 178.648438 317.125 Z M 178.648438 317.125 " fill-opacity="1" fill-rule="nonzero"/><path fill="#000072" d="M 297.910156 317.125 L 198.949219 317.125 C 198.082031 317.125 197.378906 316.425781 197.378906 315.558594 C 197.378906 314.695312 198.082031 313.992188 198.949219 313.992188 L 297.910156 313.992188 C 298.777344 313.992188 299.480469 314.695312 299.480469 315.558594 C 299.480469 316.425781 298.777344 317.125 297.910156 317.125 Z M 297.910156 317.125 " fill-opacity="1" fill-rule="nonzero"/><path fill="#000072" d="M 102.492188 227.304688 L 111.09375 249.949219 L 110.246094 251.816406 C 100.3125 250.335938 92.027344 247.21875 85.589844 243.105469 C 93.960938 238.421875 91.125 233.46875 87.507812 230.25 C 85.421875 228.394531 85.835938 225.015625 88.273438 223.640625 C 107.5 212.777344 109.21875 202.167969 109.21875 202.167969 L 109.226562 202.167969 C 114.90625 208.929688 114.359375 218.84375 102.492188 227.304688 Z M 102.492188 227.304688 " fill-opacity="0.3" fill-rule="nonzero"/><path fill="#000072" d="M 258.746094 233.941406 C 255.734375 232.917969 252.714844 232.34375 249.699219 232.316406 C 248.113281 231.613281 247.082031 231.105469 247.082031 231.105469 L 243.902344 222.394531 L 249.734375 219.585938 Z M 258.746094 233.941406 " fill-opacity="0.3" fill-rule="nonzero"/><path fill="#000072" d="M 170.277344 248.75 L 167.484375 294.542969 C 167.484375 294.542969 185.40625 297.75 188.152344 307.9375 L 188.671875 261.171875 C 188.671875 261.171875 181.425781 250.957031 170.277344 248.75 Z M 170.277344 248.75 " fill-opacity="0.3" fill-rule="nonzero"/><path fill="#ffffff" d="M 153.402344 144.089844 C 154.121094 144.183594 154.820312 144.378906 155.496094 144.675781 C 156.175781 144.96875 156.820312 145.359375 157.433594 145.847656 C 158.046875 146.332031 158.613281 146.902344 159.136719 147.558594 C 159.660156 148.21875 160.125 148.949219 160.539062 149.753906 C 160.953125 150.554688 161.300781 151.417969 161.585938 152.335938 C 161.875 153.257812 162.09375 154.214844 162.242188 155.214844 C 162.390625 156.214844 162.46875 157.234375 162.476562 158.277344 C 162.484375 159.320312 162.421875 160.363281 162.285156 161.40625 C 162.148438 162.449219 161.945312 163.472656 161.671875 164.476562 C 161.398438 165.480469 161.058594 166.449219 160.660156 167.375 C 160.257812 168.304688 159.800781 169.175781 159.289062 169.992188 C 158.777344 170.808594 158.21875 171.550781 157.613281 172.222656 C 157.007812 172.894531 156.371094 173.480469 155.695312 173.984375 C 155.023438 174.484375 154.328125 174.894531 153.613281 175.207031 C 152.894531 175.519531 152.171875 175.730469 151.4375 175.84375 C 150.707031 175.953125 149.980469 175.964844 149.261719 175.871094 C 148.542969 175.777344 147.84375 175.582031 147.164062 175.289062 C 146.488281 174.992188 145.839844 174.601562 145.230469 174.117188 C 144.617188 173.628906 144.050781 173.058594 143.527344 172.402344 C 143.003906 171.746094 142.535156 171.015625 142.125 170.210938 C 141.710938 169.40625 141.363281 168.542969 141.074219 167.625 C 140.789062 166.707031 140.570312 165.746094 140.421875 164.746094 C 140.273438 163.746094 140.191406 162.726562 140.1875 161.683594 C 140.179688 160.644531 140.242188 159.601562 140.378906 158.558594 C 140.515625 157.515625 140.71875 156.488281 140.992188 155.484375 C 141.265625 154.480469 141.605469 153.511719 142.003906 152.585938 C 142.40625 151.65625 142.863281 150.785156 143.375 149.96875 C 143.886719 149.152344 144.445312 148.410156 145.050781 147.738281 C 145.65625 147.066406 146.292969 146.480469 146.96875 145.980469 C 147.640625 145.476562 148.335938 145.070312 149.050781 144.757812 C 149.769531 144.445312 150.492188 144.230469 151.222656 144.121094 C 151.957031 144.007812 152.679688 144 153.402344 144.089844 Z M 153.402344 144.089844 " fill-opacity="1" fill-rule="nonzero"/><path fill="#000072" d="M 150.257812 176.210938 C 149.914062 176.210938 149.574219 176.1875 149.230469 176.140625 C 146.210938 175.75 143.601562 173.6875 141.878906 170.332031 C 140.175781 167.011719 139.546875 162.816406 140.105469 158.515625 C 141.269531 149.601562 147.257812 143.003906 153.441406 143.8125 C 159.632812 144.617188 163.726562 152.523438 162.5625 161.4375 C 161.464844 169.855469 156.070312 176.210938 150.257812 176.210938 Z M 152.40625 144.300781 C 146.871094 144.300781 141.71875 150.449219 140.660156 158.589844 C 140.113281 162.777344 140.722656 166.859375 142.375 170.078125 C 144.007812 173.265625 146.46875 175.222656 149.300781 175.589844 C 155.183594 176.351562 160.890625 169.976562 162.011719 161.363281 C 163.132812 152.753906 159.253906 145.128906 153.371094 144.363281 C 153.046875 144.324219 152.726562 144.300781 152.40625 144.300781 Z M 162.289062 161.402344 L 162.292969 161.402344 Z M 162.289062 161.402344 " fill-opacity="1" fill-rule="nonzero"/><path fill="#ffffff" d="M 153.402344 144.089844 C 154.121094 144.183594 154.820312 144.378906 155.496094 144.675781 C 156.175781 144.96875 156.820312 145.359375 157.433594 145.847656 C 158.046875 146.332031 158.613281 146.902344 159.136719 147.558594 C 159.660156 148.21875 160.125 148.949219 160.539062 149.753906 C 160.953125 150.554688 161.300781 151.417969 161.585938 152.335938 C 161.875 153.257812 162.09375 154.214844 162.242188 155.214844 C 162.390625 156.214844 162.46875 157.234375 162.476562 158.277344 C 162.484375 159.320312 162.421875 160.363281 162.285156 161.40625 C 162.148438 162.449219 161.945312 163.472656 161.671875 164.476562 C 161.398438 165.480469 161.058594 166.449219 160.660156 167.375 C 160.257812 168.304688 159.800781 169.175781 159.289062 169.992188 C 158.777344 170.808594 158.21875 171.550781 157.613281 172.222656 C 157.007812 172.894531 156.371094 173.480469 155.695312 173.984375 C 155.023438 174.484375 154.328125 174.894531 153.613281 175.207031 C 152.894531 175.519531 152.171875 175.730469 151.4375 175.84375 C 150.707031 175.953125 149.980469 175.964844 149.261719 175.871094 C 148.542969 175.777344 147.84375 175.582031 147.164062 175.289062 C 146.488281 174.992188 145.839844 174.601562 145.230469 174.117188 C 144.617188 173.628906 144.050781 173.058594 143.527344 172.402344 C 143.003906 171.746094 142.535156 171.015625 142.125 170.210938 C 141.710938 169.40625 141.363281 168.542969 141.074219 167.625 C 140.789062 166.707031 140.570312 165.746094 140.421875 164.746094 C 140.273438 163.746094 140.191406 162.726562 140.1875 161.683594 C 140.179688 160.644531 140.242188 159.601562 140.378906 158.558594 C 140.515625 157.515625 140.71875 156.488281 140.992188 155.484375 C 141.265625 154.480469 141.605469 153.511719 142.003906 152.585938 C 142.40625 151.65625 142.863281 150.785156 143.375 149.96875 C 143.886719 149.152344 144.445312 148.410156 145.050781 147.738281 C 145.65625 147.066406 146.292969 146.480469 146.96875 145.980469 C 147.640625 145.476562 148.335938 145.070312 149.050781 144.757812 C 149.769531 144.445312 150.492188 144.230469 151.222656 144.121094 C 151.957031 144.007812 152.679688 144 153.402344 144.089844 Z M 153.402344 144.089844 " fill-opacity="1" fill-rule="nonzero"/><path fill="#000072" d="M 150.257812 176.210938 C 149.914062 176.210938 149.574219 176.1875 149.230469 176.140625 C 146.210938 175.75 143.601562 173.6875 141.878906 170.332031 C 140.175781 167.011719 139.546875 162.816406 140.105469 158.515625 C 141.269531 149.601562 147.257812 143.003906 153.441406 143.8125 C 159.632812 144.617188 163.726562 152.523438 162.5625 161.4375 C 161.464844 169.855469 156.070312 176.210938 150.257812 176.210938 Z M 152.40625 144.300781 C 146.871094 144.300781 141.71875 150.449219 140.660156 158.589844 C 140.113281 162.777344 140.722656 166.859375 142.375 170.078125 C 144.007812 173.265625 146.46875 175.222656 149.300781 175.589844 C 155.183594 176.351562 160.890625 169.976562 162.011719 161.363281 C 163.132812 152.753906 159.253906 145.128906 153.371094 144.363281 C 153.046875 144.324219 152.726562 144.300781 152.40625 144.300781 Z M 162.289062 161.402344 L 162.292969 161.402344 Z M 162.289062 161.402344 " fill-opacity="1" fill-rule="nonzero"/><path fill="#000072" d="M 155.019531 147.5625 C 155.605469 147.640625 156.175781 147.796875 156.726562 148.039062 C 157.28125 148.277344 157.804688 148.59375 158.304688 148.992188 C 158.800781 149.386719 159.265625 149.851562 159.6875 150.386719 C 160.113281 150.921875 160.496094 151.515625 160.832031 152.171875 C 161.167969 152.824219 161.449219 153.527344 161.683594 154.273438 C 161.917969 155.023438 162.09375 155.804688 162.21875 156.617188 C 162.339844 157.429688 162.402344 158.261719 162.410156 159.109375 C 162.414062 159.957031 162.363281 160.804688 162.25 161.65625 C 162.140625 162.503906 161.972656 163.339844 161.75 164.15625 C 161.527344 164.972656 161.253906 165.761719 160.929688 166.515625 C 160.601562 167.273438 160.230469 167.980469 159.8125 168.644531 C 159.394531 169.308594 158.941406 169.914062 158.449219 170.460938 C 157.957031 171.007812 157.4375 171.484375 156.890625 171.894531 C 156.339844 172.300781 155.773438 172.632812 155.191406 172.890625 C 154.609375 173.144531 154.019531 173.316406 153.421875 173.40625 C 152.828125 173.5 152.238281 173.507812 151.652344 173.429688 C 151.066406 173.355469 150.496094 173.195312 149.945312 172.957031 C 149.390625 172.714844 148.867188 172.398438 148.367188 172.003906 C 147.871094 171.605469 147.40625 171.140625 146.984375 170.605469 C 146.558594 170.070312 146.175781 169.476562 145.839844 168.824219 C 145.503906 168.167969 145.222656 167.46875 144.988281 166.71875 C 144.753906 165.96875 144.578125 165.1875 144.453125 164.375 C 144.332031 163.5625 144.269531 162.730469 144.261719 161.882812 C 144.257812 161.035156 144.308594 160.1875 144.421875 159.335938 C 144.53125 158.488281 144.699219 157.65625 144.921875 156.835938 C 145.144531 156.019531 145.417969 155.230469 145.742188 154.476562 C 146.070312 153.722656 146.441406 153.011719 146.859375 152.347656 C 147.277344 151.683594 147.730469 151.078125 148.222656 150.53125 C 148.714844 149.984375 149.234375 149.507812 149.785156 149.097656 C 150.332031 148.691406 150.898438 148.359375 151.480469 148.105469 C 152.0625 147.847656 152.652344 147.675781 153.25 147.585938 C 153.84375 147.492188 154.433594 147.488281 155.019531 147.5625 Z M 155.019531 147.5625 " fill-opacity="1" fill-rule="nonzero"/><path fill="#000072" d="M 152.40625 144.023438 C 152.738281 144.023438 153.070312 144.042969 153.40625 144.089844 C 159.453125 144.875 163.429688 152.625 162.289062 161.402344 C 161.207031 169.691406 155.945312 175.929688 150.265625 175.929688 C 149.933594 175.929688 149.597656 175.910156 149.265625 175.867188 C 143.21875 175.082031 139.238281 167.328125 140.382812 158.554688 C 141.460938 150.261719 146.726562 144.023438 152.40625 144.023438 Z M 152.40625 140.6875 C 144.957031 140.6875 138.363281 148.183594 137.070312 158.121094 C 136.429688 163.03125 137.171875 167.863281 139.15625 171.730469 C 141.316406 175.945312 144.84375 178.660156 148.835938 179.175781 C 149.308594 179.238281 149.789062 179.269531 150.265625 179.269531 C 157.714844 179.269531 164.304688 171.773438 165.601562 161.832031 C 166.242188 156.925781 165.5 152.09375 163.519531 148.226562 C 161.355469 144.011719 157.828125 141.296875 153.835938 140.777344 C 153.363281 140.714844 152.882812 140.6875 152.40625 140.6875 Z M 152.40625 140.6875 " fill-opacity="1" fill-rule="nonzero"/><path fill="#ffffff" d="M 152.5 155.527344 C 152.5 155.792969 152.472656 156.054688 152.421875 156.316406 C 152.371094 156.574219 152.292969 156.828125 152.191406 157.074219 C 152.089844 157.320312 151.964844 157.550781 151.816406 157.773438 C 151.667969 157.992188 151.5 158.199219 151.3125 158.386719 C 151.125 158.574219 150.921875 158.742188 150.699219 158.886719 C 150.480469 159.035156 150.246094 159.160156 150 159.261719 C 149.753906 159.363281 149.503906 159.441406 149.242188 159.492188 C 148.980469 159.542969 148.71875 159.570312 148.453125 159.570312 C 148.1875 159.570312 147.921875 159.542969 147.664062 159.492188 C 147.402344 159.441406 147.148438 159.363281 146.902344 159.261719 C 146.65625 159.160156 146.425781 159.035156 146.203125 158.886719 C 145.984375 158.742188 145.777344 158.574219 145.589844 158.386719 C 145.402344 158.199219 145.234375 157.992188 145.085938 157.773438 C 144.941406 157.550781 144.816406 157.320312 144.714844 157.074219 C 144.613281 156.828125 144.535156 156.574219 144.484375 156.316406 C 144.429688 156.054688 144.40625 155.792969 144.40625 155.527344 C 144.40625 155.261719 144.429688 154.996094 144.484375 154.738281 C 144.535156 154.476562 144.613281 154.222656 144.714844 153.980469 C 144.816406 153.734375 144.941406 153.5 145.085938 153.28125 C 145.234375 153.058594 145.402344 152.855469 145.589844 152.667969 C 145.777344 152.480469 145.984375 152.3125 146.203125 152.164062 C 146.425781 152.015625 146.65625 151.890625 146.902344 151.789062 C 147.148438 151.6875 147.402344 151.613281 147.664062 151.558594 C 147.921875 151.507812 148.1875 151.484375 148.453125 151.484375 C 148.71875 151.484375 148.980469 151.507812 149.242188 151.558594 C 149.503906 151.613281 149.753906 151.6875 150 151.789062 C 150.246094 151.890625 150.480469 152.015625 150.699219 152.164062 C 150.921875 152.3125 151.125 152.480469 151.3125 152.667969 C 151.5 152.855469 151.667969 153.058594 151.816406 153.28125 C 151.964844 153.5 152.089844 153.734375 152.191406 153.980469 C 152.292969 154.222656 152.371094 154.476562 152.421875 154.738281 C 152.472656 154.996094 152.5 155.261719 152.5 155.527344 Z M 152.5 155.527344 " fill-opacity="1" fill-rule="nonzero"/><path fill="#ffffff" d="M 233.644531 158.5625 C 233.78125 159.605469 233.847656 160.648438 233.839844 161.6875 C 233.832031 162.730469 233.753906 163.75 233.605469 164.75 C 233.453125 165.75 233.238281 166.710938 232.949219 167.628906 C 232.664062 168.546875 232.3125 169.410156 231.902344 170.214844 C 231.488281 171.019531 231.019531 171.75 230.5 172.40625 C 229.976562 173.0625 229.410156 173.632812 228.796875 174.121094 C 228.183594 174.605469 227.539062 174.996094 226.859375 175.292969 C 226.179688 175.585938 225.480469 175.78125 224.761719 175.875 C 224.042969 175.96875 223.316406 175.957031 222.585938 175.847656 C 221.855469 175.734375 221.128906 175.523438 220.414062 175.210938 C 219.699219 174.898438 219.003906 174.488281 218.328125 173.988281 C 217.65625 173.484375 217.015625 172.898438 216.414062 172.226562 C 215.808594 171.554688 215.25 170.8125 214.738281 169.996094 C 214.222656 169.179688 213.765625 168.308594 213.367188 167.382812 C 212.964844 166.453125 212.628906 165.484375 212.355469 164.480469 C 212.082031 163.476562 211.878906 162.453125 211.742188 161.410156 C 211.605469 160.367188 211.542969 159.324219 211.546875 158.28125 C 211.554688 157.238281 211.632812 156.21875 211.785156 155.21875 C 211.933594 154.21875 212.152344 153.261719 212.4375 152.339844 C 212.722656 151.421875 213.074219 150.558594 213.488281 149.757812 C 213.898438 148.953125 214.367188 148.222656 214.890625 147.566406 C 215.410156 146.90625 215.980469 146.335938 216.589844 145.851562 C 217.203125 145.363281 217.847656 144.972656 218.527344 144.679688 C 219.207031 144.382812 219.90625 144.1875 220.625 144.097656 C 221.34375 144.003906 222.070312 144.011719 222.800781 144.125 C 223.535156 144.234375 224.257812 144.449219 224.972656 144.761719 C 225.691406 145.074219 226.386719 145.480469 227.058594 145.984375 C 227.730469 146.484375 228.371094 147.070312 228.976562 147.742188 C 229.578125 148.414062 230.136719 149.160156 230.652344 149.972656 C 231.164062 150.789062 231.621094 151.660156 232.019531 152.589844 C 232.421875 153.515625 232.757812 154.484375 233.03125 155.488281 C 233.304688 156.496094 233.511719 157.519531 233.644531 158.5625 Z M 233.644531 158.5625 " fill-opacity="1" fill-rule="nonzero"/><path fill="#000072" d="M 223.777344 176.210938 C 217.964844 176.210938 212.566406 169.855469 211.46875 161.4375 C 210.910156 157.136719 211.539062 152.941406 213.242188 149.621094 C 214.964844 146.269531 217.574219 144.207031 220.59375 143.8125 C 226.777344 143.011719 232.765625 149.605469 233.925781 158.519531 C 234.484375 162.816406 233.855469 167.011719 232.152344 170.332031 C 230.433594 173.6875 227.820312 175.75 224.800781 176.144531 C 224.460938 176.1875 224.117188 176.210938 223.777344 176.210938 Z M 221.625 144.300781 C 221.304688 144.300781 220.984375 144.324219 220.664062 144.363281 C 217.832031 144.730469 215.371094 146.691406 213.738281 149.875 C 212.085938 153.097656 211.472656 157.175781 212.019531 161.367188 C 213.082031 169.503906 218.234375 175.652344 223.769531 175.652344 C 224.089844 175.652344 224.410156 175.632812 224.730469 175.589844 C 227.5625 175.222656 230.019531 173.265625 231.65625 170.078125 C 233.308594 166.859375 233.917969 162.777344 233.371094 158.589844 C 232.3125 150.449219 227.160156 144.300781 221.625 144.300781 Z M 221.625 144.300781 " fill-opacity="1" fill-rule="nonzero"/><path fill="#ffffff" d="M 233.644531 158.5625 C 233.78125 159.605469 233.847656 160.648438 233.839844 161.6875 C 233.832031 162.730469 233.753906 163.75 233.605469 164.75 C 233.453125 165.75 233.238281 166.710938 232.949219 167.628906 C 232.664062 168.546875 232.3125 169.410156 231.902344 170.214844 C 231.488281 171.019531 231.019531 171.75 230.5 172.40625 C 229.976562 173.0625 229.410156 173.632812 228.796875 174.121094 C 228.183594 174.605469 227.539062 174.996094 226.859375 175.292969 C 226.179688 175.585938 225.480469 175.78125 224.761719 175.875 C 224.042969 175.96875 223.316406 175.957031 222.585938 175.847656 C 221.855469 175.734375 221.128906 175.523438 220.414062 175.210938 C 219.699219 174.898438 219.003906 174.488281 218.328125 173.988281 C 217.65625 173.484375 217.015625 172.898438 216.414062 172.226562 C 215.808594 171.554688 215.25 170.8125 214.738281 169.996094 C 214.222656 169.179688 213.765625 168.308594 213.367188 167.382812 C 212.964844 166.453125 212.628906 165.484375 212.355469 164.480469 C 212.082031 163.476562 211.878906 162.453125 211.742188 161.410156 C 211.605469 160.367188 211.542969 159.324219 211.546875 158.28125 C 211.554688 157.238281 211.632812 156.21875 211.785156 155.21875 C 211.933594 154.21875 212.152344 153.261719 212.4375 152.339844 C 212.722656 151.421875 213.074219 150.558594 213.488281 149.757812 C 213.898438 148.953125 214.367188 148.222656 214.890625 147.566406 C 215.410156 146.90625 215.980469 146.335938 216.589844 145.851562 C 217.203125 145.363281 217.847656 144.972656 218.527344 144.679688 C 219.207031 144.382812 219.90625 144.1875 220.625 144.097656 C 221.34375 144.003906 222.070312 144.011719 222.800781 144.125 C 223.535156 144.234375 224.257812 144.449219 224.972656 144.761719 C 225.691406 145.074219 226.386719 145.480469 227.058594 145.984375 C 227.730469 146.484375 228.371094 147.070312 228.976562 147.742188 C 229.578125 148.414062 230.136719 149.160156 230.652344 149.972656 C 231.164062 150.789062 231.621094 151.660156 232.019531 152.589844 C 232.421875 153.515625 232.757812 154.484375 233.03125 155.488281 C 233.304688 156.496094 233.511719 157.519531 233.644531 158.5625 Z M 233.644531 158.5625 " fill-opacity="1" fill-rule="nonzero"/><path fill="#000072" d="M 223.777344 176.210938 C 217.964844 176.210938 212.566406 169.855469 211.46875 161.4375 C 210.910156 157.136719 211.539062 152.941406 213.242188 149.621094 C 214.964844 146.269531 217.574219 144.207031 220.59375 143.8125 C 226.777344 143.011719 232.765625 149.605469 233.925781 158.519531 C 234.484375 162.816406 233.855469 167.011719 232.152344 170.332031 C 230.433594 173.6875 227.820312 175.75 224.800781 176.144531 C 224.460938 176.1875 224.117188 176.210938 223.777344 176.210938 Z M 221.625 144.300781 C 221.304688 144.300781 220.984375 144.324219 220.664062 144.363281 C 217.832031 144.730469 215.371094 146.691406 213.738281 149.875 C 212.085938 153.097656 211.472656 157.175781 212.019531 161.367188 C 213.082031 169.503906 218.234375 175.652344 223.769531 175.652344 C 224.089844 175.652344 224.410156 175.632812 224.730469 175.589844 C 227.5625 175.222656 230.019531 173.265625 231.65625 170.078125 C 233.308594 166.859375 233.917969 162.777344 233.371094 158.589844 C 232.3125 150.449219 227.160156 144.300781 221.625 144.300781 Z M 221.625 144.300781 " fill-opacity="1" fill-rule="nonzero"/><path fill="#000072" d="M 229.605469 159.339844 C 229.714844 160.191406 229.769531 161.039062 229.761719 161.886719 C 229.757812 162.734375 229.691406 163.566406 229.570312 164.378906 C 229.449219 165.191406 229.269531 165.972656 229.039062 166.722656 C 228.804688 167.472656 228.519531 168.171875 228.183594 168.828125 C 227.847656 169.480469 227.46875 170.074219 227.042969 170.609375 C 226.617188 171.144531 226.15625 171.609375 225.65625 172.007812 C 225.160156 172.402344 224.632812 172.71875 224.082031 172.960938 C 223.527344 173.199219 222.960938 173.359375 222.375 173.433594 C 221.789062 173.511719 221.199219 173.503906 220.601562 173.410156 C 220.007812 173.320312 219.417969 173.148438 218.832031 172.894531 C 218.25 172.636719 217.683594 172.308594 217.136719 171.898438 C 216.589844 171.488281 216.070312 171.011719 215.578125 170.464844 C 215.085938 169.917969 214.628906 169.3125 214.210938 168.648438 C 213.796875 167.984375 213.421875 167.277344 213.097656 166.519531 C 212.769531 165.765625 212.496094 164.976562 212.273438 164.160156 C 212.050781 163.34375 211.886719 162.507812 211.773438 161.660156 C 211.664062 160.808594 211.613281 159.960938 211.617188 159.113281 C 211.621094 158.265625 211.6875 157.433594 211.808594 156.621094 C 211.929688 155.808594 212.109375 155.027344 212.339844 154.277344 C 212.574219 153.53125 212.859375 152.828125 213.195312 152.175781 C 213.53125 151.519531 213.910156 150.925781 214.335938 150.390625 C 214.761719 149.855469 215.222656 149.390625 215.722656 148.996094 C 216.21875 148.597656 216.746094 148.28125 217.296875 148.042969 C 217.851562 147.800781 218.421875 147.644531 219.003906 147.566406 C 219.589844 147.492188 220.179688 147.5 220.777344 147.589844 C 221.371094 147.679688 221.960938 147.851562 222.546875 148.109375 C 223.128906 148.363281 223.695312 148.695312 224.242188 149.101562 C 224.789062 149.511719 225.3125 149.988281 225.804688 150.535156 C 226.296875 151.082031 226.75 151.6875 227.167969 152.351562 C 227.585938 153.015625 227.957031 153.726562 228.28125 154.480469 C 228.609375 155.234375 228.882812 156.023438 229.105469 156.839844 C 229.328125 157.660156 229.496094 158.492188 229.605469 159.339844 Z M 229.605469 159.339844 " fill-opacity="1" fill-rule="nonzero"/><path fill="#000072" d="M 221.628906 144.023438 C 227.304688 144.023438 232.570312 150.261719 233.648438 158.554688 C 234.792969 167.328125 230.816406 175.082031 224.765625 175.867188 C 224.433594 175.910156 224.101562 175.929688 223.769531 175.929688 C 218.089844 175.929688 212.824219 169.691406 211.746094 161.402344 C 210.601562 152.625 214.578125 144.875 220.628906 144.089844 C 220.960938 144.046875 221.292969 144.023438 221.628906 144.023438 Z M 221.628906 140.6875 C 221.152344 140.6875 220.667969 140.71875 220.195312 140.777344 C 216.207031 141.296875 212.679688 144.011719 210.515625 148.226562 C 208.53125 152.09375 207.792969 156.925781 208.433594 161.832031 C 209.726562 171.773438 216.320312 179.269531 223.769531 179.269531 C 224.246094 179.269531 224.726562 179.238281 225.199219 179.175781 C 229.1875 178.660156 232.71875 175.945312 234.878906 171.730469 C 236.863281 167.863281 237.601562 163.03125 236.964844 158.121094 C 235.667969 148.183594 229.074219 140.6875 221.628906 140.6875 Z M 221.628906 140.6875 " fill-opacity="1" fill-rule="nonzero"/><path fill="#ffffff" d="M 229.625 155.527344 C 229.625 155.792969 229.601562 156.054688 229.550781 156.316406 C 229.496094 156.574219 229.421875 156.828125 229.320312 157.074219 C 229.21875 157.320312 229.09375 157.550781 228.945312 157.773438 C 228.796875 157.992188 228.628906 158.199219 228.441406 158.386719 C 228.253906 158.574219 228.050781 158.742188 227.828125 158.886719 C 227.605469 159.035156 227.375 159.160156 227.128906 159.261719 C 226.882812 159.363281 226.628906 159.441406 226.371094 159.492188 C 226.109375 159.542969 225.84375 159.570312 225.578125 159.570312 C 225.3125 159.570312 225.050781 159.542969 224.789062 159.492188 C 224.53125 159.441406 224.277344 159.363281 224.03125 159.261719 C 223.785156 159.160156 223.550781 159.035156 223.332031 158.886719 C 223.109375 158.742188 222.90625 158.574219 222.71875 158.386719 C 222.53125 158.199219 222.363281 157.992188 222.214844 157.773438 C 222.066406 157.550781 221.941406 157.320312 221.839844 157.074219 C 221.738281 156.828125 221.664062 156.574219 221.609375 156.316406 C 221.558594 156.054688 221.53125 155.792969 221.53125 155.527344 C 221.53125 155.261719 221.558594 154.996094 221.609375 154.738281 C 221.664062 154.476562 221.738281 154.222656 221.839844 153.980469 C 221.941406 153.734375 222.066406 153.5 222.214844 153.28125 C 222.363281 153.058594 222.53125 152.855469 222.71875 152.667969 C 222.90625 152.480469 223.109375 152.3125 223.332031 152.164062 C 223.550781 152.015625 223.785156 151.890625 224.03125 151.789062 C 224.277344 151.6875 224.53125 151.613281 224.789062 151.558594 C 225.050781 151.507812 225.3125 151.484375 225.578125 151.484375 C 225.84375 151.484375 226.109375 151.507812 226.371094 151.558594 C 226.628906 151.613281 226.882812 151.6875 227.128906 151.789062 C 227.375 151.890625 227.605469 152.015625 227.828125 152.164062 C 228.050781 152.3125 228.253906 152.480469 228.441406 152.667969 C 228.628906 152.855469 228.796875 153.058594 228.945312 153.28125 C 229.09375 153.5 229.21875 153.734375 229.320312 153.980469 C 229.421875 154.222656 229.496094 154.476562 229.550781 154.738281 C 229.601562 154.996094 229.625 155.261719 229.625 155.527344 Z M 229.625 155.527344 " fill-opacity="1" fill-rule="nonzero"/></svg>