<svg xmlns="http://www.w3.org/2000/svg" xmlns:xlink="http://www.w3.org/1999/xlink" width="500" zoomAndPan="magnify" viewBox="0 0 375 374.999991" height="500" preserveAspectRatio="xMidYMid meet" version="1.0"><defs><clipPath id="261334192b"><path d="M 30.523438 199 L 97 199 L 97 220 L 30.523438 220 Z M 30.523438 199 " clip-rule="nonzero"/></clipPath><clipPath id="4c1315bb73"><path d="M 30.523438 207 L 97 207 L 97 226 L 30.523438 226 Z M 30.523438 207 " clip-rule="nonzero"/></clipPath></defs><path fill="#232323" d="M 91.53125 328.21875 C 91.53125 328.476562 91.492188 328.734375 91.40625 328.988281 C 91.324219 329.242188 91.199219 329.496094 91.03125 329.75 C 90.867188 330 90.660156 330.25 90.410156 330.496094 C 90.164062 330.742188 89.875 330.980469 89.550781 331.21875 C 89.222656 331.457031 88.859375 331.6875 88.457031 331.914062 C 88.054688 332.140625 87.617188 332.359375 87.144531 332.574219 C 86.667969 332.785156 86.160156 332.992188 85.621094 333.191406 C 85.078125 333.390625 84.507812 333.578125 83.902344 333.761719 C 83.300781 333.941406 82.667969 334.113281 82.007812 334.277344 C 81.351562 334.441406 80.664062 334.59375 79.957031 334.734375 C 79.246094 334.878906 78.515625 335.011719 77.761719 335.132812 C 77.011719 335.25 76.242188 335.363281 75.453125 335.460938 C 74.664062 335.558594 73.863281 335.644531 73.046875 335.71875 C 72.230469 335.792969 71.402344 335.855469 70.566406 335.90625 C 69.730469 335.957031 68.886719 335.992188 68.035156 336.019531 C 67.1875 336.042969 66.335938 336.054688 65.484375 336.054688 C 64.628906 336.054688 63.78125 336.042969 62.929688 336.019531 C 62.082031 335.992188 61.238281 335.957031 60.402344 335.90625 C 59.566406 335.855469 58.738281 335.792969 57.921875 335.71875 C 57.105469 335.644531 56.304688 335.558594 55.515625 335.460938 C 54.726562 335.363281 53.957031 335.25 53.203125 335.132812 C 52.453125 335.011719 51.71875 334.878906 51.011719 334.734375 C 50.300781 334.59375 49.617188 334.441406 48.957031 334.277344 C 48.296875 334.113281 47.667969 333.941406 47.0625 333.761719 C 46.460938 333.578125 45.886719 333.390625 45.347656 333.191406 C 44.804688 332.992188 44.296875 332.785156 43.824219 332.574219 C 43.351562 332.359375 42.914062 332.140625 42.511719 331.914062 C 42.109375 331.6875 41.742188 331.457031 41.417969 331.21875 C 41.089844 330.980469 40.804688 330.742188 40.554688 330.496094 C 40.308594 330.25 40.101562 330 39.933594 329.75 C 39.769531 329.496094 39.644531 329.242188 39.558594 328.988281 C 39.476562 328.734375 39.433594 328.476562 39.433594 328.21875 C 39.433594 327.964844 39.476562 327.707031 39.558594 327.453125 C 39.644531 327.195312 39.769531 326.941406 39.933594 326.691406 C 40.101562 326.441406 40.308594 326.191406 40.554688 325.945312 C 40.804688 325.699219 41.089844 325.457031 41.417969 325.222656 C 41.742188 324.984375 42.109375 324.753906 42.511719 324.527344 C 42.914062 324.300781 43.351562 324.078125 43.824219 323.867188 C 44.296875 323.652344 44.804688 323.449219 45.347656 323.25 C 45.886719 323.050781 46.460938 322.859375 47.0625 322.679688 C 47.667969 322.496094 48.296875 322.324219 48.957031 322.164062 C 49.617188 322 50.300781 321.847656 51.011719 321.703125 C 51.71875 321.5625 52.453125 321.429688 53.203125 321.308594 C 53.957031 321.1875 54.726562 321.078125 55.515625 320.980469 C 56.304688 320.882812 57.105469 320.796875 57.921875 320.722656 C 58.738281 320.648438 59.566406 320.585938 60.402344 320.535156 C 61.238281 320.484375 62.082031 320.445312 62.929688 320.421875 C 63.78125 320.398438 64.628906 320.382812 65.484375 320.382812 C 66.335938 320.382812 67.1875 320.398438 68.035156 320.421875 C 68.886719 320.445312 69.730469 320.484375 70.566406 320.535156 C 71.402344 320.585938 72.230469 320.648438 73.046875 320.722656 C 73.863281 320.796875 74.664062 320.882812 75.453125 320.980469 C 76.242188 321.078125 77.011719 321.1875 77.761719 321.308594 C 78.515625 321.429688 79.246094 321.5625 79.957031 321.703125 C 80.664062 321.847656 81.351562 322 82.007812 322.164062 C 82.667969 322.324219 83.300781 322.496094 83.902344 322.679688 C 84.507812 322.859375 85.078125 323.050781 85.621094 323.25 C 86.160156 323.449219 86.667969 323.652344 87.144531 323.867188 C 87.617188 324.078125 88.054688 324.300781 88.457031 324.527344 C 88.859375 324.753906 89.222656 324.984375 89.550781 325.222656 C 89.875 325.457031 90.164062 325.699219 90.410156 325.945312 C 90.660156 326.191406 90.867188 326.441406 91.03125 326.691406 C 91.199219 326.941406 91.324219 327.195312 91.40625 327.453125 C 91.492188 327.707031 91.53125 327.964844 91.53125 328.21875 Z M 91.53125 328.21875 " fill-opacity="0.2" fill-rule="nonzero"/><path fill="#c69c6d" d="M 94.53125 209.613281 C 94.53125 209.824219 94.507812 210.039062 94.445312 210.238281 L 94.445312 210.253906 C 94.230469 211.03125 93.617188 211.769531 92.664062 212.460938 C 88.308594 215.65625 76.851562 217.9375 63.414062 217.9375 C 49.972656 217.9375 38.519531 215.65625 34.175781 212.460938 C 32.960938 211.570312 32.308594 210.617188 32.308594 209.601562 C 32.308594 205 46.234375 201.277344 63.425781 201.277344 C 80.617188 201.277344 94.53125 205.023438 94.53125 209.613281 Z M 94.53125 209.613281 " fill-opacity="1" fill-rule="nonzero"/><path fill="#ffffff" d="M 40.664062 211.394531 C 41.515625 213.601562 43.902344 214.753906 46.148438 215.519531 C 49.863281 216.785156 53.765625 217.535156 57.679688 217.726562 C 51.503906 219.644531 44.855469 217.914062 38.617188 216.183594 C 35.78125 215.394531 32.53125 214.226562 31.589844 211.445312 C 30.777344 209.046875 32.167969 206.328125 34.238281 204.875 C 36.308594 203.417969 38.917969 202.980469 41.453125 202.753906 C 43.988281 202.527344 46.5625 202.453125 48.945312 201.601562 C 46.6875 202.429688 44.378906 203.28125 42.621094 204.910156 C 40.863281 206.542969 39.796875 209.160156 40.664062 211.394531 Z M 40.664062 211.394531 " fill-opacity="0.4" fill-rule="nonzero"/><g clip-path="url(#261334192b)"><path fill="#232323" d="M 63.414062 219.71875 C 49.824219 219.71875 37.941406 217.4375 33.121094 213.902344 C 31.402344 212.632812 30.523438 211.191406 30.523438 209.613281 C 30.523438 202.679688 47.566406 199.519531 63.414062 199.519531 C 79.25 199.519531 96.300781 202.679688 96.300781 209.613281 C 96.300781 209.953125 96.261719 210.300781 96.175781 210.628906 C 96.164062 210.667969 96.164062 210.691406 96.152344 210.730469 C 95.824219 211.871094 95.007812 212.933594 93.714844 213.886719 C 88.886719 217.4375 77.003906 219.71875 63.414062 219.71875 Z M 63.414062 203.054688 C 44.429688 203.054688 34.0625 207.394531 34.0625 209.613281 C 34.0625 209.976562 34.488281 210.515625 35.21875 211.042969 C 39.332031 214.0625 50.929688 216.183594 63.414062 216.183594 C 75.898438 216.183594 87.492188 214.078125 91.609375 211.042969 C 92.410156 210.453125 92.648438 210.015625 92.726562 209.824219 C 92.726562 209.800781 92.738281 209.777344 92.75 209.75 C 92.761719 209.699219 92.773438 209.664062 92.773438 209.613281 C 92.761719 207.394531 82.398438 203.054688 63.414062 203.054688 Z M 94.429688 210.265625 Z M 94.429688 210.265625 " fill-opacity="1" fill-rule="nonzero"/></g><path fill="#c69c6d" d="M 94.519531 215.542969 C 94.09375 220.042969 80.328125 223.65625 63.414062 223.65625 C 46.234375 223.65625 32.292969 219.917969 32.292969 215.332031 L 32.292969 209.625 C 32.292969 210.628906 32.960938 211.59375 34.164062 212.484375 C 38.519531 215.679688 49.960938 217.964844 63.402344 217.964844 C 76.839844 217.964844 88.296875 215.679688 92.648438 212.484375 C 93.601562 211.78125 94.21875 211.042969 94.429688 210.277344 L 94.507812 215.066406 Z M 94.519531 215.542969 " fill-opacity="1" fill-rule="nonzero"/><path fill="#232323" d="M 94.519531 215.542969 C 94.09375 220.042969 80.328125 223.65625 63.414062 223.65625 C 46.234375 223.65625 32.292969 219.917969 32.292969 215.332031 L 32.292969 209.625 C 32.292969 210.628906 32.960938 211.59375 34.164062 212.484375 C 38.519531 215.679688 49.960938 217.964844 63.402344 217.964844 C 76.839844 217.964844 88.296875 215.679688 92.648438 212.484375 C 93.601562 211.78125 94.21875 211.042969 94.429688 210.277344 L 94.507812 215.066406 Z M 94.519531 215.542969 " fill-opacity="0.3" fill-rule="nonzero"/><path fill="#232323" d="M 82.4375 203.03125 L 77.730469 203.03125 C 77.730469 203.03125 62.109375 205.9375 53.222656 203.03125 L 53.222656 205.613281 C 53.222656 205.613281 54.78125 214.464844 77.339844 210.476562 C 77.339844 210.476562 76.636719 215.042969 61.582031 217.925781 L 88.132812 215.59375 L 93.101562 207.105469 C 93.101562 207.117188 87.867188 202.90625 82.4375 203.03125 Z M 82.4375 203.03125 " fill-opacity="0.3" fill-rule="nonzero"/><g clip-path="url(#4c1315bb73)"><path fill="#232323" d="M 63.414062 225.421875 C 47.578125 225.421875 30.523438 222.261719 30.523438 215.332031 L 30.523438 209.625 C 30.523438 208.648438 31.316406 207.859375 32.292969 207.859375 C 33.273438 207.859375 34.0625 208.648438 34.0625 209.625 C 34.0625 209.988281 34.488281 210.527344 35.21875 211.054688 C 39.332031 214.078125 50.929688 216.195312 63.414062 216.195312 C 75.898438 216.195312 87.492188 214.089844 91.609375 211.054688 C 92.488281 210.414062 92.6875 209.953125 92.738281 209.789062 C 92.976562 208.949219 93.792969 208.398438 94.671875 208.507812 C 95.535156 208.621094 96.199219 209.363281 96.214844 210.238281 L 96.289062 215.53125 C 96.289062 215.59375 96.289062 215.65625 96.277344 215.71875 C 95.648438 222.375 78.796875 225.421875 63.414062 225.421875 Z M 34.0625 214.515625 L 34.0625 215.316406 C 34.0625 217.550781 44.429688 221.875 63.414062 221.875 C 82.097656 221.875 92.347656 217.710938 92.75 215.429688 L 92.738281 214.527344 C 87.417969 217.699219 76.160156 219.707031 63.414062 219.707031 C 50.640625 219.71875 39.371094 217.699219 34.0625 214.515625 Z M 34.0625 214.515625 " fill-opacity="1" fill-rule="nonzero"/></g><path fill="#fbb03b" d="M 53.222656 178.34375 L 53.222656 205.601562 C 59.035156 208.671875 69.183594 209.574219 77.730469 205.601562 L 77.730469 178.34375 C 69.449219 176.652344 61.28125 176.675781 53.222656 178.34375 Z M 53.222656 178.34375 " fill-opacity="1" fill-rule="nonzero"/><path fill="#ffffff" d="M 63.402344 177.128906 L 65.472656 177.128906 L 65.472656 209.625 L 63.402344 209.625 Z M 63.402344 177.128906 " fill-opacity="0.4" fill-rule="nonzero"/><path fill="#232323" d="M 73.867188 177.679688 L 73.867188 207.054688 L 77.730469 205.613281 L 77.730469 178.34375 Z M 73.867188 177.679688 " fill-opacity="0.3" fill-rule="nonzero"/><path fill="#232323" d="M 57.050781 177.679688 L 57.050781 207.054688 L 53.222656 205.613281 L 53.222656 178.34375 Z M 57.050781 177.679688 " fill-opacity="0.3" fill-rule="nonzero"/><path fill="#232323" d="M 65.320312 210.039062 C 60.226562 210.039062 55.609375 208.875 52.394531 207.167969 C 51.820312 206.867188 51.453125 206.265625 51.453125 205.613281 L 51.453125 178.355469 C 51.453125 177.515625 52.042969 176.800781 52.859375 176.625 C 61.167969 174.894531 69.660156 174.894531 78.082031 176.625 C 78.910156 176.789062 79.5 177.515625 79.5 178.355469 L 79.5 205.613281 C 79.5 206.304688 79.097656 206.929688 78.484375 207.21875 C 74.140625 209.222656 69.574219 210.039062 65.320312 210.039062 Z M 54.992188 204.511719 C 60.1875 206.84375 68.609375 207.480469 75.960938 204.460938 L 75.960938 179.8125 C 68.945312 178.542969 61.90625 178.542969 54.992188 179.8125 Z M 54.992188 204.511719 " fill-opacity="1" fill-rule="nonzero"/><path fill="#232323" d="M 54.78125 332.820312 C 53.0625 332.820312 52.320312 331.203125 51.105469 326.652344 C 50.3125 323.679688 49.335938 319.34375 48.207031 313.726562 C 46.308594 304.324219 43.953125 291.234375 41.179688 274.796875 C 36.472656 246.824219 32.15625 218.503906 32.105469 218.214844 C 31.957031 217.25 32.621094 216.347656 33.585938 216.195312 C 34.554688 216.042969 35.457031 216.710938 35.59375 217.675781 C 41.179688 254.410156 50.589844 311.683594 54.640625 326.414062 C 57.792969 312.058594 63.578125 258.097656 66.839844 223.480469 C 66.925781 222.5 67.792969 221.800781 68.769531 221.886719 C 69.75 221.976562 70.453125 222.839844 70.363281 223.816406 C 70.339844 224.082031 67.792969 250.988281 64.820312 277.542969 C 63.074219 293.152344 61.53125 305.589844 60.226562 314.515625 C 59.449219 319.84375 58.746094 323.96875 58.144531 326.804688 C 57.253906 331.054688 56.585938 332.820312 54.78125 332.820312 Z M 54.78125 332.820312 " fill-opacity="1" fill-rule="nonzero"/><path fill="#232323" d="M 69.007812 327.105469 C 67.277344 327.105469 66.511719 325.335938 65.472656 321.386719 C 64.753906 318.691406 63.902344 314.753906 62.9375 309.675781 C 61.304688 301.164062 59.308594 289.316406 57 274.433594 C 53.074219 249.132812 49.546875 223.492188 49.511719 223.230469 C 49.371094 222.261719 50.050781 221.375 51.027344 221.234375 C 51.996094 221.109375 52.886719 221.773438 53.023438 222.753906 C 57.539062 255.640625 65.246094 306.855469 68.921875 320.699219 C 71.945312 306.707031 77.242188 255.238281 80.203125 222.199219 C 80.289062 221.222656 81.144531 220.507812 82.121094 220.597656 C 83.101562 220.683594 83.816406 221.535156 83.726562 222.515625 C 83.703125 222.777344 81.382812 248.566406 78.644531 274.03125 C 77.027344 289.003906 75.597656 300.925781 74.367188 309.488281 C 73.628906 314.605469 72.960938 318.566406 72.386719 321.273438 C 71.492188 325.300781 70.804688 327.105469 69.007812 327.105469 Z M 69.007812 327.105469 " fill-opacity="1" fill-rule="nonzero"/><path fill="#60d8f4" d="M 131.585938 132.90625 C 124.847656 187.09375 82.183594 206.617188 71.042969 250.5 C 61.042969 289.878906 83.039062 334.765625 120.582031 351.578125 C 140.230469 360.367188 162.390625 361.859375 183.972656 361.769531 C 225.71875 361.609375 270.753906 354.535156 300.191406 325.398438 C 330.132812 295.773438 336.71875 250.773438 339.265625 209.046875 C 340.949219 181.453125 341.511719 153.457031 335.351562 126.488281 C 330.820312 106.652344 322.664062 87.660156 311.660156 70.457031 C 293.628906 42.273438 266.3125 18.160156 233.1875 11.402344 C 200.058594 4.644531 160.746094 7.59375 137.246094 47.726562 C 123.078125 71.910156 135.023438 105.1875 131.585938 132.90625 Z M 131.585938 132.90625 " fill-opacity="1" fill-rule="nonzero"/><path fill="#ffffff" d="M 93.90625 228.28125 C 81.433594 246.121094 68.785156 249.972656 77.054688 233.132812 C 85.320312 216.296875 97.253906 201.578125 107.882812 186.105469 C 118.511719 170.632812 128.085938 153.757812 130.582031 135.164062 C 133.378906 114.3125 127.070312 93.035156 129.855469 72.1875 C 132.214844 54.535156 141.335938 37.859375 154.9375 26.335938 C 168.539062 14.8125 186.496094 8.558594 204.3125 9.121094 C 182.179688 14.875 157.988281 22.074219 145.652344 41.320312 C 133.84375 59.738281 136.578125 83.484375 138.824219 105.234375 C 140.859375 124.882812 142.0625 145.320312 135.210938 163.851562 C 131.035156 175.148438 124.058594 185.152344 117.167969 195.019531 C 109.402344 206.101562 101.648438 217.1875 93.90625 228.28125 Z M 93.90625 228.28125 " fill-opacity="0.4" fill-rule="nonzero"/><path fill="#232323" d="M 269.550781 147.5625 C 265.660156 140.230469 261.507812 132.59375 254.519531 127.890625 C 245.082031 121.546875 232.394531 121.910156 221.292969 124.78125 C 202.695312 129.597656 185.96875 140.894531 174.863281 156.125 C 171.148438 161.21875 167.988281 166.796875 163.246094 171.023438 C 156.921875 176.652344 148.464844 179.296875 140.921875 183.269531 C 133.378906 187.234375 126.066406 193.628906 125.5625 201.925781 C 125.25 206.917969 127.496094 211.792969 127.28125 216.796875 C 126.980469 224.15625 121.496094 230.324219 115.636719 235.027344 C 109.777344 239.730469 103.140625 243.777344 98.886719 249.898438 C 94.632812 256.003906 93.652344 265.144531 99.199219 270.195312 C 103.804688 274.382812 110.871094 274.257812 117.179688 274.121094 C 123.492188 273.996094 130.746094 274.546875 134.546875 279.4375 C 137.445312 283.160156 137.597656 288.636719 141.234375 291.699219 C 144.960938 294.820312 150.898438 293.941406 154.960938 291.246094 C 159.027344 288.550781 161.8125 284.4375 165.027344 280.816406 C 168.238281 277.191406 172.367188 273.820312 177.285156 273.503906 C 189.082031 272.765625 195.503906 289.003906 207.261719 290.117188 C 212.558594 290.621094 217.628906 287.796875 221.578125 284.339844 C 225.53125 280.878906 228.792969 276.691406 232.972656 273.503906 C 239.308594 268.679688 247.304688 266.445312 255.132812 264.617188 C 262.960938 262.785156 271.019531 261.191406 278.03125 257.332031 C 285.046875 253.46875 290.996094 246.835938 291.546875 239.050781 C 292.398438 226.777344 280.292969 217.148438 277.984375 205.0625 C 276.328125 196.398438 279.902344 187.609375 279.976562 178.808594 C 280.101562 167.738281 274.757812 157.40625 269.550781 147.5625 Z M 269.550781 147.5625 " fill-opacity="0.2" fill-rule="nonzero"/><path fill="#232323" d="M 182.21875 363.789062 C 162.492188 363.789062 139.867188 362.421875 119.753906 353.421875 C 101.167969 345.097656 85.699219 329.824219 76.175781 310.390625 C 66.652344 290.957031 64.128906 269.519531 69.085938 249.996094 C 74.152344 230.050781 85.308594 215.40625 97.128906 199.910156 C 111.285156 181.351562 125.902344 162.15625 129.578125 132.65625 C 130.832031 122.589844 129.980469 111.453125 129.164062 100.699219 C 127.734375 81.902344 126.265625 62.46875 135.5 46.710938 C 146.480469 27.964844 161.800781 15.640625 181.023438 10.050781 C 196.234375 5.636719 213.914062 5.421875 233.5625 9.433594 C 249.613281 12.707031 265.007812 20.066406 279.3125 31.3125 C 292.046875 41.332031 303.820312 54.496094 313.34375 69.378906 C 324.699219 87.144531 332.765625 106.203125 337.296875 126.050781 C 343.558594 153.445312 342.90625 182.191406 341.261719 209.1875 C 338.753906 250.449219 332.078125 296.6875 301.597656 326.839844 C 276.675781 351.503906 238.207031 363.589844 183.960938 363.800781 C 183.394531 363.789062 182.804688 363.789062 182.21875 363.789062 Z M 133.582031 133.15625 C 129.777344 163.75 114.808594 183.371094 100.339844 202.367188 C 88.785156 217.523438 77.867188 231.855469 73 251 C 63.3125 289.152344 85.019531 333.449219 121.398438 349.734375 C 141.410156 358.699219 164.273438 359.839844 183.949219 359.753906 C 237.078125 359.550781 274.632812 347.839844 298.75 323.96875 C 328.261719 294.769531 334.761719 249.433594 337.222656 208.9375 C 338.839844 182.242188 339.503906 153.84375 333.34375 126.9375 C 328.914062 107.554688 321.035156 88.910156 309.917969 71.546875 C 298.261719 53.328125 272.738281 21.546875 232.734375 13.382812 C 189.433594 4.546875 157.875 16.445312 138.964844 48.742188 C 130.367188 63.421875 131.785156 82.21875 133.167969 100.382812 C 134.03125 111.34375 134.886719 122.675781 133.582031 133.15625 Z M 133.582031 133.15625 " fill-opacity="1" fill-rule="nonzero"/><path fill="#232323" d="M 242.246094 13.722656 C 242.246094 13.722656 329.578125 73.714844 321.347656 117.863281 C 315.289062 150.382812 323.582031 151.863281 323.582031 198.214844 C 323.582031 244.566406 329.84375 285.957031 291.597656 308.171875 C 253.351562 330.390625 252.535156 326 209.921875 331.554688 C 167.324219 337.109375 146.894531 354.914062 111.875 331.066406 C 75.171875 306.066406 70.640625 255.589844 76.160156 235.980469 C 76.160156 235.980469 55.054688 278.132812 81.945312 317.765625 C 108.835938 357.394531 162.542969 370.511719 218.429688 359.789062 C 274.320312 349.070312 306.832031 330.390625 320.382812 297.0625 C 333.933594 263.738281 344.773438 200.5 340.234375 167.75 C 335.691406 135 332.039062 95.496094 318.011719 81.488281 C 318.023438 81.476562 296.84375 34.574219 242.246094 13.722656 Z M 242.246094 13.722656 " fill-opacity="0.2" fill-rule="nonzero"/><path fill="#232323" d="M 283.667969 170.082031 C 278.359375 172.199219 273.203125 174.734375 268.28125 177.628906 C 263.527344 180.476562 258.835938 183.773438 255.183594 187.871094 C 253.136719 190.066406 249.824219 187.144531 251.769531 184.839844 C 254.117188 182.707031 256.75 181.015625 259.375 179.472656 C 267.015625 175.210938 275.246094 172.261719 283.667969 170.082031 Z M 283.667969 170.082031 " fill-opacity="1" fill-rule="nonzero"/><path fill="#232323" d="M 104.042969 253.484375 C 113.667969 252.003906 123.542969 251.941406 133.140625 253.796875 C 136.378906 254.433594 139.578125 255.425781 142.742188 256.667969 C 143.90625 257.132812 144.484375 258.449219 144.019531 259.625 C 143.519531 260.917969 141.9375 261.457031 140.757812 260.765625 C 138.085938 259.335938 135.25 258.070312 132.277344 257.105469 C 129.300781 256.164062 126.253906 255.363281 123.128906 254.824219 C 116.84375 253.707031 110.429688 253.21875 104.042969 253.484375 Z M 104.042969 253.484375 " fill-opacity="1" fill-rule="nonzero"/><path fill="#232323" d="M 282.148438 223.855469 C 274.21875 223.316406 266.148438 224.695312 258.746094 227.53125 C 253.074219 229.648438 247.816406 232.894531 243.199219 236.757812 C 242.234375 237.636719 240.703125 237.546875 239.875 236.519531 C 239.082031 235.542969 239.234375 234.113281 240.214844 233.308594 C 240.289062 233.257812 240.351562 233.195312 240.425781 233.160156 L 242.785156 231.667969 C 254.34375 224.445312 268.722656 221.574219 282.148438 223.855469 Z M 282.148438 223.855469 " fill-opacity="1" fill-rule="nonzero"/><path fill="#232323" d="M 261.820312 268.527344 C 251.140625 262.636719 238.667969 259.652344 226.5 260.890625 C 225.59375 261.03125 223.574219 261.332031 222.660156 261.46875 C 219.535156 261.820312 219.046875 257.230469 222.195312 256.941406 C 223.109375 256.894531 225.355469 256.765625 226.234375 256.730469 C 227.113281 256.730469 229.347656 256.804688 230.261719 256.816406 C 238.167969 257.34375 245.972656 259.488281 253.113281 262.847656 C 256.261719 264.339844 259.296875 266.03125 262.148438 268.027344 C 262.285156 268.125 262.308594 268.300781 262.222656 268.441406 C 262.132812 268.578125 261.957031 268.617188 261.820312 268.527344 Z M 261.820312 268.527344 " fill-opacity="1" fill-rule="nonzero"/><path fill="#232323" d="M 208.355469 270.910156 C 204.226562 277.617188 201.742188 285.65625 202.355469 293.578125 C 202.382812 294.582031 202.683594 296.0625 202.832031 297.050781 C 202.632812 296.460938 202.179688 295.09375 201.992188 294.53125 C 200.335938 288.414062 200.597656 281.917969 202.066406 275.761719 C 202.671875 273.328125 203.359375 271.011719 204.390625 268.691406 C 205.84375 265.792969 210.0625 268.113281 208.355469 270.910156 Z M 208.355469 270.910156 " fill-opacity="1" fill-rule="nonzero"/><path fill="#232323" d="M 163.507812 273.253906 C 157.75 274.582031 152.566406 277.945312 148.324219 282.007812 C 146.316406 283.988281 144.558594 286.167969 142.96875 288.476562 C 143.957031 286.433594 144.988281 284.375 146.28125 282.507812 C 150.105469 276.753906 155.453125 271.863281 161.828125 269.066406 C 162.039062 268.964844 162.378906 268.855469 162.640625 268.765625 C 163.847656 268.363281 165.164062 269.003906 165.566406 270.21875 C 166.042969 271.625 164.988281 273.179688 163.507812 273.253906 Z M 163.507812 273.253906 " fill-opacity="1" fill-rule="nonzero"/><path fill="#262e3a" d="M 222.785156 27.964844 C 222.785156 27.964844 207.097656 7.753906 171.613281 26.574219 C 136.128906 45.394531 138.875 68.300781 138.875 77.039062 C 138.875 85.777344 141.738281 107.996094 141.738281 116.070312 C 141.738281 124.144531 148.511719 138.535156 148.511719 138.535156 C 148.511719 138.535156 150.03125 149.972656 142.953125 154.859375 C 142.953125 154.859375 159.40625 180.097656 221.003906 169.328125 C 263.964844 161.820312 272.046875 144.855469 272.046875 144.855469 C 272.046875 144.855469 263.855469 131.027344 266.1875 117.875 C 268.519531 104.722656 273.566406 93.113281 267.757812 69.878906 C 261.945312 46.648438 248.808594 19.890625 222.785156 27.964844 Z M 222.785156 27.964844 " fill-opacity="1" fill-rule="nonzero"/><path fill="#f9c4b2" d="M 269.890625 103.054688 C 270.527344 109.976562 268.535156 114.539062 265.597656 117.5625 C 259.789062 123.527344 250.328125 123.453125 250.328125 123.453125 C 244.328125 136.695312 233.589844 144.816406 215.957031 150.382812 C 215.53125 150.523438 215.105469 150.648438 214.679688 150.773438 C 210.386719 152.066406 205.695312 153.117188 200.5625 153.933594 C 195.503906 154.734375 190.6875 154.984375 186.144531 154.785156 C 182.566406 154.636719 179.167969 154.195312 175.957031 153.519531 C 163.019531 150.824219 153.128906 144.316406 147.648438 136.894531 C 146.933594 135.929688 146.304688 134.964844 145.738281 133.984375 C 143.730469 130.476562 142.503906 126.375 141.75 120.195312 C 140.996094 113.988281 140.734375 107.21875 140.671875 101.425781 C 140.65625 100.285156 140.65625 99.167969 140.671875 98.128906 C 140.683594 94.941406 140.757812 92.246094 140.820312 90.378906 C 140.820312 90.378906 140.808594 90.378906 140.796875 90.378906 C 140.808594 90.203125 140.808594 90.027344 140.820312 89.863281 C 201.703125 78.503906 220.273438 46.144531 220.273438 46.144531 C 220.273438 46.144531 224.214844 83.898438 235.683594 91.832031 C 250.464844 102.050781 255.648438 90.316406 255.648438 90.316406 C 255.648438 90.316406 265.320312 89.890625 268.785156 98.277344 C 269.324219 99.632812 269.714844 101.210938 269.890625 103.054688 Z M 269.890625 103.054688 " fill-opacity="1" fill-rule="nonzero"/><path fill="#f9c4b2" d="M 249.824219 196.722656 C 249.875 197.085938 251.707031 212.410156 240.113281 221.660156 C 235.796875 225.121094 229.609375 227.730469 220.765625 228.40625 L 220.375 228.445312 L 218.792969 209.636719 C 225.984375 207.632812 227.339844 204.925781 227.339844 204.925781 L 227.339844 199.832031 C 237.011719 201.238281 245.269531 198.667969 249.824219 196.722656 Z M 249.824219 196.722656 " fill-opacity="1" fill-rule="nonzero"/><path fill="#f9c4b2" d="M 232.886719 243.039062 C 234.730469 247.980469 232.960938 253.257812 232.886719 253.46875 C 229.925781 255.550781 226.460938 256.941406 223.097656 257.847656 C 218.695312 259.050781 214.453125 259.425781 211.652344 259.425781 C 211.652344 259.425781 205.820312 263.375 196.308594 266.746094 C 187.675781 269.808594 176.003906 272.363281 162.90625 271.046875 C 162.90625 271.046875 149.96875 272.238281 140.644531 256.84375 C 147.058594 259.988281 154.613281 261.933594 161.5 263.222656 C 170.234375 260.730469 176.09375 258.371094 181.851562 250.851562 C 182.757812 249.660156 183.785156 248.492188 184.863281 247.375 C 191.113281 240.90625 199.28125 235.953125 199.28125 235.953125 L 221.003906 235.953125 L 220.601562 231.164062 C 220.878906 231.277344 229.796875 234.765625 232.886719 243.039062 Z M 232.886719 243.039062 " fill-opacity="1" fill-rule="nonzero"/><path fill="#f9c4b2" d="M 223.109375 257.859375 C 223.109375 257.859375 222.972656 258.347656 222.519531 259.1875 C 221.542969 260.980469 219.019531 264.351562 212.972656 267.800781 C 204.113281 272.851562 196.320312 266.761719 196.320312 266.761719 C 205.84375 263.398438 211.667969 259.449219 211.667969 259.449219 C 214.464844 259.449219 218.707031 259.074219 223.109375 257.859375 Z M 223.109375 257.859375 " fill-opacity="1" fill-rule="nonzero"/><path fill="#f9c4b2" d="M 214.664062 150.773438 C 214.664062 150.773438 211.917969 161.503906 200.550781 163.773438 C 189.179688 166.042969 186.132812 154.785156 186.132812 154.785156 C 190.675781 154.984375 195.492188 154.734375 200.550781 153.933594 C 205.667969 153.117188 210.375 152.066406 214.664062 150.773438 Z M 214.664062 150.773438 " fill-opacity="1" fill-rule="nonzero"/><path fill="#f9c4b2" d="M 175.941406 235.96875 C 175.941406 235.96875 178.929688 241.269531 180.398438 246.058594 C 175.929688 244.554688 168.777344 241.507812 162.328125 235.96875 Z M 175.941406 235.96875 " fill-opacity="1" fill-rule="nonzero"/><path fill="#f9c4b2" d="M 184.800781 247.328125 C 184.800781 247.328125 183.082031 246.976562 180.398438 246.058594 C 175.929688 244.554688 168.777344 241.507812 162.328125 235.96875 C 161.5 235.253906 160.671875 234.5 159.867188 233.699219 C 150.394531 224.230469 128.738281 225.773438 125.839844 235.96875 C 125.449219 237.335938 125.398438 238.839844 125.765625 240.507812 C 127.382812 248.066406 133.265625 253.246094 140.644531 256.84375 C 147.058594 259.988281 154.613281 261.933594 161.5 263.222656 C 170.234375 260.730469 176.09375 258.371094 181.851562 250.851562 C 182.757812 249.660156 183.785156 248.492188 184.863281 247.375 Z M 184.800781 247.328125 " fill-opacity="1" fill-rule="nonzero"/><path fill="#f9c4b2" d="M 140.65625 98.113281 C 140.65625 99.167969 140.65625 100.269531 140.65625 101.414062 C 140.695312 107.316406 140.960938 114.300781 141.738281 120.683594 C 134.070312 120.054688 128.046875 113.484375 128.046875 105.460938 C 128.046875 97.789062 133.582031 91.417969 140.785156 90.355469 C 140.722656 92.324219 140.65625 95.003906 140.65625 98.113281 Z M 140.65625 98.113281 " fill-opacity="1" fill-rule="nonzero"/><path fill="#efc03c" d="M 240.113281 221.648438 C 240.113281 221.648438 244.515625 235.464844 239.210938 246.324219 C 237.742188 249.320312 235.507812 251.664062 232.898438 253.484375 C 232.972656 253.269531 234.742188 247.992188 232.898438 243.050781 C 229.8125 234.777344 220.890625 231.289062 220.613281 231.191406 L 220.386719 228.445312 L 220.777344 228.40625 C 229.609375 227.71875 235.785156 225.109375 240.113281 221.648438 Z M 240.113281 221.648438 " fill-opacity="1" fill-rule="nonzero"/><path fill="#232323" d="M 218.855469 93.414062 C 224.441406 93.414062 228.957031 99.519531 228.957031 107.042969 C 228.957031 114.578125 224.441406 120.671875 218.855469 120.671875 C 213.273438 120.671875 208.753906 114.578125 208.753906 107.042969 C 208.742188 99.507812 213.273438 93.414062 218.855469 93.414062 Z M 218.855469 93.414062 " fill-opacity="1" fill-rule="nonzero"/><path fill="#ffffff" d="M 215.945312 100.183594 C 217.550781 100.183594 218.855469 102.125 218.855469 104.535156 C 218.855469 106.929688 217.5625 108.871094 215.945312 108.871094 C 214.339844 108.871094 213.035156 106.929688 213.035156 104.535156 C 213.046875 102.125 214.339844 100.183594 215.945312 100.183594 Z M 215.945312 100.183594 " fill-opacity="1" fill-rule="nonzero"/><path fill="#efc03c" d="M 175.941406 235.96875 L 199.28125 235.96875 C 199.28125 235.96875 191.101562 240.917969 184.863281 247.390625 L 184.789062 247.328125 C 184.789062 247.328125 183.070312 246.976562 180.386719 246.058594 C 178.941406 241.285156 175.941406 235.96875 175.941406 235.96875 Z M 175.941406 235.96875 " fill-opacity="1" fill-rule="nonzero"/><path fill="#8cc63f" d="M 246.539062 168.828125 C 245.609375 166.859375 244.453125 165.089844 243.160156 163.511719 C 233.738281 152.066406 216.371094 150.433594 215.957031 150.382812 C 215.53125 150.523438 215.105469 150.648438 214.679688 150.773438 C 214.679688 150.773438 211.929688 161.492188 200.5625 163.773438 C 189.195312 166.058594 186.144531 154.785156 186.144531 154.785156 C 182.566406 154.636719 179.167969 154.195312 175.957031 153.519531 C 175.957031 153.519531 167.6875 157.378906 163.707031 167.738281 C 163.933594 167.8125 164.171875 167.875 164.410156 167.949219 C 162.691406 170.671875 160.597656 174.921875 158.613281 181.429688 C 154.085938 196.324219 155.714844 212.535156 155.714844 212.535156 C 155.714844 212.535156 199.632812 218.363281 218.792969 209.613281 C 225.984375 207.605469 227.339844 204.898438 227.339844 204.898438 L 227.339844 199.808594 C 237.027344 201.226562 245.269531 198.640625 249.824219 196.699219 C 252.234375 195.671875 253.613281 194.804688 253.613281 194.804688 C 253.613281 194.804688 252.847656 182.207031 246.539062 168.828125 Z M 246.539062 168.828125 " fill-opacity="1" fill-rule="nonzero"/><path fill="#232323" d="M 146.917969 99.066406 C 147.609375 101.222656 149.957031 101.976562 152 101.964844 C 152.640625 101.964844 153.496094 101.875 154.132812 101.789062 C 156.507812 101.5625 156.921875 105.035156 154.5625 105.375 C 154.085938 105.472656 153.105469 105.085938 152.640625 104.984375 C 150.007812 104.234375 146.566406 102.0625 146.917969 99.066406 Z M 146.917969 99.066406 " fill-opacity="1" fill-rule="nonzero"/><path fill="#232323" d="M 230.4375 92.972656 C 231.453125 96.496094 227.992188 99.320312 225.179688 100.746094 C 223.074219 101.863281 221.367188 98.816406 223.410156 97.601562 C 223.824219 97.335938 224.691406 97.324219 225.15625 97.25 C 226.148438 97.074219 227.175781 96.8125 228.066406 96.308594 C 229.382812 95.644531 230.25 94.367188 230.4375 92.972656 Z M 230.4375 92.972656 " fill-opacity="1" fill-rule="nonzero"/><path fill="#232323" d="M 161.5 93.414062 C 167.085938 93.414062 171.601562 99.519531 171.601562 107.042969 C 171.601562 114.578125 167.085938 120.671875 161.5 120.671875 C 155.917969 120.671875 151.398438 114.578125 151.398438 107.042969 C 151.398438 99.507812 155.929688 93.414062 161.5 93.414062 Z M 161.5 93.414062 " fill-opacity="1" fill-rule="nonzero"/><path fill="#ffffff" d="M 158.601562 100.183594 C 160.207031 100.183594 161.5 102.125 161.5 104.535156 C 161.5 106.929688 160.207031 108.871094 158.601562 108.871094 C 156.996094 108.871094 155.691406 106.929688 155.691406 104.535156 C 155.703125 102.125 156.996094 100.183594 158.601562 100.183594 Z M 158.601562 100.183594 " fill-opacity="1" fill-rule="nonzero"/><path fill="#cccccc" d="M 221.003906 235.96875 L 117.445312 235.96875 L 111.875 170.082031 L 215.445312 170.082031 Z M 221.003906 235.96875 " fill-opacity="1" fill-rule="nonzero"/><path fill="#232323" d="M 235.355469 205.574219 C 232.722656 205.261719 230.050781 205.511719 227.578125 206.429688 C 225.644531 207.066406 224.640625 204.257812 226.535156 203.53125 C 228.167969 203.269531 229.875 203.671875 231.441406 204.035156 C 232.773438 204.410156 234.304688 204.875 235.355469 205.574219 Z M 235.355469 205.574219 " fill-opacity="1" fill-rule="nonzero"/><path fill="#232323" d="M 215.292969 252.542969 C 215.066406 255.449219 214.566406 258.234375 212.847656 260.804688 C 211.453125 262.773438 208.503906 260.804688 209.796875 258.761719 C 209.960938 258.523438 210.1875 258.320312 210.425781 258.183594 C 212.457031 257.003906 214.089844 254.6875 215.292969 252.542969 Z M 215.292969 252.542969 " fill-opacity="1" fill-rule="nonzero"/><path fill="#ffffff" d="M 75.207031 113.597656 C 71.796875 115.191406 70.664062 119.71875 71.558594 123.378906 C 72.449219 127.039062 74.84375 130.109375 76.890625 133.28125 C 78.949219 136.441406 80.753906 140.078125 80.277344 143.828125 C 79.824219 147.339844 77.417969 150.273438 74.933594 152.804688 C 72.449219 155.335938 69.710938 157.769531 68.257812 161.003906 C 66.8125 164.238281 67.089844 168.589844 69.949219 170.683594 C 66.398438 171.886719 62.859375 167.914062 62.910156 164.164062 C 62.960938 160.414062 65.257812 157.140625 67.328125 154.019531 C 69.398438 150.898438 71.394531 147.300781 70.742188 143.613281 C 70.1875 140.53125 67.894531 138.097656 66.476562 135.3125 C 64.46875 131.378906 64.253906 126.574219 65.898438 122.476562 C 67.554688 118.363281 71.042969 115.039062 75.207031 113.597656 Z M 75.207031 113.597656 " fill-opacity="0.5" fill-rule="nonzero"/><path fill="#ffffff" d="M 57.617188 141.808594 C 59.925781 141.433594 62.121094 143.375 62.761719 145.621094 C 63.402344 147.863281 63.511719 150.660156 62.019531 152.464844 C 59.625 155.375 60.175781 156.792969 59.835938 159.097656 C 57.617188 159.1875 56.097656 156.640625 56.210938 154.421875 C 56.324219 152.203125 57.492188 150.195312 58.230469 148.101562 C 58.957031 146.007812 59.160156 143.414062 57.617188 141.808594 Z M 57.617188 141.808594 " fill-opacity="0.5" fill-rule="nonzero"/><path fill="#ffffff" d="M 166.28125 196.386719 L 166.683594 197.214844 C 166.984375 197.839844 167.585938 198.265625 168.277344 198.367188 L 169.179688 198.503906 C 170.910156 198.753906 171.601562 200.886719 170.347656 202.101562 L 169.695312 202.742188 C 169.191406 203.230469 168.964844 203.921875 169.089844 204.609375 L 169.242188 205.511719 C 169.542969 207.230469 167.722656 208.546875 166.179688 207.730469 L 165.363281 207.304688 C 164.75 206.980469 164.011719 206.980469 163.394531 207.304688 L 162.578125 207.730469 C 161.035156 208.546875 159.214844 207.230469 159.519531 205.511719 L 159.667969 204.609375 C 159.78125 203.921875 159.554688 203.230469 159.066406 202.742188 L 158.414062 202.101562 C 157.160156 200.886719 157.847656 198.753906 159.582031 198.503906 L 160.484375 198.367188 C 161.175781 198.265625 161.765625 197.839844 162.078125 197.214844 L 162.480469 196.386719 C 163.269531 194.820312 165.515625 194.820312 166.28125 196.386719 Z M 166.28125 196.386719 " fill-opacity="1" fill-rule="nonzero"/><path fill="#2a2433" d="M 221.003906 33.519531 C 221.003906 33.519531 235.898438 31.828125 243.148438 39.074219 C 256.335938 52.25 264.984375 79.082031 263.414062 92.988281 L 268.761719 98.289062 C 268.761719 98.289062 273.289062 73.839844 263.375 55.949219 C 253.464844 38.058594 251.230469 27.664062 235.355469 26.789062 C 224.050781 26.160156 223.035156 27.726562 223.035156 27.726562 C 223.035156 27.726562 214.953125 13.347656 188.679688 20.542969 C 162.402344 27.742188 148.863281 38.257812 141.738281 56.089844 C 141.738281 56.089844 161.5 30.246094 195.503906 25.949219 C 219.660156 22.902344 221.003906 33.519531 221.003906 33.519531 Z M 221.003906 33.519531 " fill-opacity="0.3" fill-rule="nonzero"/><path fill="#2a2433" d="M 257.605469 122.363281 C 257.605469 122.363281 256.210938 146.609375 237.363281 158.183594 C 237.363281 158.183594 225.019531 148.289062 214.664062 150.785156 C 214.664062 150.785156 238.445312 144.71875 250.328125 123.453125 Z M 257.605469 122.363281 " fill-opacity="0.3" fill-rule="nonzero"/><path fill="#2a2433" d="M 148.511719 138.535156 C 148.511719 138.535156 152.238281 157.957031 164.398438 167.058594 C 164.398438 167.058594 166.507812 158.183594 175.957031 153.53125 C 175.941406 153.53125 155.839844 147.613281 148.511719 138.535156 Z M 148.511719 138.535156 " fill-opacity="0.3" fill-rule="nonzero"/><path fill="#232323" d="M 197.539062 154.347656 C 197.539062 154.347656 203.863281 156.152344 212.054688 156.152344 L 213.183594 154.222656 C 213.183594 154.222656 226.007812 154.949219 238.445312 165.617188 C 244.742188 171.035156 249.246094 196.949219 249.246094 196.949219 L 254.492188 193.929688 C 254.492188 193.929688 251.96875 168.640625 240.902344 161.066406 C 229.835938 153.492188 214.664062 150.761719 214.664062 150.761719 Z M 197.539062 154.347656 " fill-opacity="0.3" fill-rule="nonzero"/><path fill="#232323" d="M 245.09375 198.84375 C 245.09375 198.84375 244.003906 221.914062 220.363281 223.480469 L 221.164062 228.355469 C 227.214844 228.382812 241.90625 222.703125 245.984375 214.839844 C 252.835938 201.625 249.234375 196.949219 249.234375 196.949219 Z M 245.09375 198.84375 " fill-opacity="0.3" fill-rule="nonzero"/><path fill="#232323" d="M 243.148438 96.019531 C 243.148438 96.019531 255.609375 126.976562 221.003906 148.527344 C 221.003906 148.527344 242.484375 140.917969 250.3125 123.441406 C 250.3125 123.441406 270.265625 122.113281 269.761719 108.859375 C 269.261719 95.605469 266.738281 91.320312 255.621094 90.316406 C 255.621094 90.316406 252.660156 97.4375 243.148438 96.019531 Z M 243.148438 96.019531 " fill-opacity="0.3" fill-rule="nonzero"/><path fill="#232323" d="M 196.320312 266.761719 L 211.667969 259.449219 C 211.667969 259.449219 218.167969 261.570312 223.539062 258.710938 C 223.539062 258.710938 213.6875 269.808594 206.359375 269.808594 C 199.03125 269.808594 196.320312 266.761719 196.320312 266.761719 Z M 196.320312 266.761719 " fill-opacity="0.3" fill-rule="nonzero"/><path fill="#232323" d="M 162.328125 235.96875 C 162.328125 235.96875 178.390625 247.265625 184.789062 247.328125 C 184.789062 247.328125 192.96875 238.488281 199.28125 235.96875 C 205.59375 233.449219 197.539062 235.96875 197.539062 235.96875 Z M 162.328125 235.96875 " fill-opacity="0.3" fill-rule="nonzero"/><path fill="#232323" d="M 125.777344 240.519531 C 125.777344 240.519531 156.84375 240.855469 170.496094 242.324219 L 161.199219 234.964844 L 124.847656 234.964844 Z M 125.777344 240.519531 " fill-opacity="0.3" fill-rule="nonzero"/><path fill="#232323" d="M 240.1875 221.914062 C 240.1875 221.914062 232.371094 227.71875 226.007812 227.71875 C 226.007812 227.71875 226.007812 230 225.269531 233.648438 L 220.589844 231.164062 L 220.75 235.96875 L 194.976562 235.464844 L 186.757812 245.820312 L 193.972656 239.765625 C 193.972656 239.765625 222.121094 231.992188 213.472656 257.871094 C 213.449219 257.957031 211.730469 259.386719 211.667969 259.449219 C 211.667969 259.449219 238.683594 261.667969 241.820312 235.980469 C 243.148438 225.121094 240.1875 221.914062 240.1875 221.914062 Z M 240.1875 221.914062 " fill-opacity="0.3" fill-rule="nonzero"/><path fill="#232323" d="M 130.519531 249.609375 C 130.519531 249.609375 155.101562 260.453125 162.90625 257.871094 C 170.710938 255.277344 180.496094 252.542969 180.496094 252.542969 C 180.496094 252.542969 171.464844 263.25 161.5 263.25 C 151.539062 263.238281 130.519531 249.609375 130.519531 249.609375 Z M 130.519531 249.609375 " fill-opacity="0.3" fill-rule="nonzero"/><path fill="#232323" d="M 161.5 263.238281 C 161.5 263.238281 163.421875 270.824219 179.332031 270.824219 C 179.332031 270.824219 163.921875 273.945312 152.929688 268.714844 C 141.9375 263.488281 140.65625 256.855469 140.65625 256.855469 Z M 161.5 263.238281 " fill-opacity="0.3" fill-rule="nonzero"/><path fill="#232323" d="M 140.808594 89.863281 L 141.738281 120.695312 C 141.738281 120.695312 128.046875 119.464844 128.046875 107.042969 C 128.046875 94.617188 138.011719 90.402344 140.808594 89.863281 Z M 140.808594 89.863281 " fill-opacity="0.3" fill-rule="nonzero"/><path fill="#232323" d="M 186.773438 156.464844 C 186.773438 156.464844 175.378906 156.078125 164.398438 167.046875 C 164.398438 167.046875 165.941406 156.652344 173.773438 153.519531 C 173.773438 153.53125 185.71875 156.464844 186.773438 156.464844 Z M 186.773438 156.464844 " fill-opacity="0.3" fill-rule="nonzero"/><path fill="#232323" d="M 224.652344 198.203125 C 224.652344 198.203125 224.703125 203.65625 218.441406 205.550781 L 218.792969 209.625 L 227.339844 205.550781 L 227.339844 199.820312 Z M 224.652344 198.203125 " fill-opacity="0.3" fill-rule="nonzero"/><path fill="#232323" d="M 211.667969 170.734375 C 211.667969 170.734375 212.292969 210.855469 173.558594 234.851562 L 220.75 235.96875 L 215.429688 170.082031 Z M 211.667969 170.734375 " fill-opacity="0.3" fill-rule="nonzero"/><path fill="#232323" d="M 194.589844 69.878906 C 194.589844 69.878906 207 66.167969 214.554688 60.902344 C 216.070312 59.847656 218.167969 60.539062 218.78125 62.28125 C 220.074219 65.957031 222.445312 71.421875 226.023438 74.996094 C 226.023438 74.996094 217.4375 54.984375 220.300781 46.535156 C 220.300781 46.535156 204.289062 64.375 194.589844 69.878906 Z M 194.589844 69.878906 " fill-opacity="0.3" fill-rule="nonzero"/><path fill="#ffffff" d="M 118.976562 179.160156 C 120.519531 179.160156 121.785156 177.90625 121.785156 176.351562 C 121.785156 175.609375 121.496094 174.933594 121.03125 174.433594 C 138.460938 173.742188 210.324219 170.882812 211.679688 170.722656 L 111.886719 170.082031 L 117.445312 235.96875 L 122.902344 235.96875 L 117.644531 178.808594 C 118.035156 179.035156 118.484375 179.160156 118.976562 179.160156 Z M 118.976562 179.160156 " fill-opacity="0.4" fill-rule="nonzero"/><path fill="#ffffff" d="M 146.894531 89.863281 C 146.894531 89.863281 143.292969 119.867188 150.433594 131 C 160.910156 147.351562 183.234375 156.089844 228.957031 144.804688 C 228.957031 144.804688 188.367188 164.929688 161.109375 148.203125 C 161.109375 148.203125 143.230469 143.488281 141.699219 119.441406 C 140.167969 95.394531 140.808594 89.878906 140.808594 89.878906 Z M 146.894531 89.863281 " fill-opacity="0.4" fill-rule="nonzero"/><path fill="#ffffff" d="M 223.058594 37.054688 C 223.058594 37.054688 229.609375 101.3125 255.632812 90.316406 C 255.632812 90.316406 245.03125 102.941406 232.898438 87.53125 C 220.765625 72.125 220.601562 46.132812 220.601562 46.132812 C 220.601562 46.132812 200.222656 73.628906 165.441406 83.496094 L 140.808594 89.851562 C 140.808594 89.863281 188.050781 75.171875 223.058594 37.054688 Z M 223.058594 37.054688 " fill-opacity="0.4" fill-rule="nonzero"/><path fill="#ffffff" d="M 224.652344 183.359375 C 224.652344 183.359375 226.007812 193.300781 231.34375 195.835938 C 237.226562 198.617188 246.5 198.203125 246.5 198.203125 L 225.433594 198.980469 Z M 224.652344 183.359375 " fill-opacity="0.4" fill-rule="nonzero"/><path fill="#ffffff" d="M 203.347656 245.308594 C 203.347656 245.773438 203.246094 246.21875 203.039062 246.648438 C 202.832031 247.074219 202.539062 247.453125 202.15625 247.78125 C 201.777344 248.109375 201.335938 248.363281 200.835938 248.539062 C 200.339844 248.71875 199.820312 248.804688 199.28125 248.804688 C 198.742188 248.804688 198.222656 248.71875 197.726562 248.539062 C 197.226562 248.363281 196.789062 248.109375 196.40625 247.78125 C 196.027344 247.453125 195.730469 247.074219 195.527344 246.648438 C 195.320312 246.21875 195.214844 245.773438 195.214844 245.308594 C 195.214844 244.84375 195.320312 244.398438 195.527344 243.96875 C 195.730469 243.539062 196.027344 243.164062 196.40625 242.835938 C 196.789062 242.507812 197.226562 242.253906 197.726562 242.078125 C 198.222656 241.898438 198.742188 241.808594 199.28125 241.808594 C 199.820312 241.808594 200.339844 241.898438 200.835938 242.078125 C 201.335938 242.253906 201.777344 242.507812 202.15625 242.835938 C 202.539062 243.164062 202.832031 243.539062 203.039062 243.96875 C 203.246094 244.398438 203.347656 244.84375 203.347656 245.308594 Z M 203.347656 245.308594 " fill-opacity="0.4" fill-rule="nonzero"/><path fill="#ffffff" d="M 134.222656 245.308594 C 134.222656 245.519531 134.175781 245.722656 134.082031 245.917969 C 133.988281 246.113281 133.855469 246.285156 133.679688 246.433594 C 133.507812 246.582031 133.308594 246.699219 133.082031 246.777344 C 132.855469 246.859375 132.621094 246.898438 132.375 246.898438 C 132.132812 246.898438 131.898438 246.859375 131.671875 246.777344 C 131.445312 246.699219 131.246094 246.582031 131.070312 246.433594 C 130.898438 246.285156 130.765625 246.113281 130.671875 245.917969 C 130.578125 245.722656 130.53125 245.519531 130.53125 245.308594 C 130.53125 245.097656 130.578125 244.894531 130.671875 244.699219 C 130.765625 244.503906 130.898438 244.332031 131.070312 244.183594 C 131.246094 244.03125 131.445312 243.917969 131.671875 243.835938 C 131.898438 243.757812 132.132812 243.714844 132.375 243.714844 C 132.621094 243.714844 132.855469 243.757812 133.082031 243.835938 C 133.308594 243.917969 133.507812 244.03125 133.679688 244.183594 C 133.855469 244.332031 133.988281 244.503906 134.082031 244.699219 C 134.175781 244.894531 134.222656 245.097656 134.222656 245.308594 Z M 134.222656 245.308594 " fill-opacity="0.4" fill-rule="nonzero"/><path fill="#232323" d="M 268.761719 100.058594 C 268.585938 100.058594 268.410156 100.03125 268.234375 99.984375 C 267.304688 99.695312 266.777344 98.703125 267.066406 97.777344 C 267.128906 97.5625 271.308594 83.144531 262.285156 58.121094 C 257.078125 43.675781 249.875 34.308594 240.867188 30.296875 C 231.691406 26.210938 223.777344 29.332031 223.6875 29.359375 C 222.835938 29.707031 221.84375 29.332031 221.429688 28.503906 C 221.339844 28.34375 219.121094 24.167969 212.28125 21.859375 C 205.792969 19.679688 193.835938 18.902344 173.695312 27.566406 C 155.214844 35.539062 144.335938 48.300781 141.375 65.515625 C 139.640625 75.621094 141.273438 84.410156 142.101562 87.820312 C 172.152344 81.953125 191.289062 70.84375 202.105469 62.496094 C 214.011719 53.292969 218.679688 45.34375 218.730469 45.269531 C 219.121094 44.605469 219.886719 44.265625 220.636719 44.414062 C 221.390625 44.578125 221.945312 45.191406 222.03125 45.957031 C 223.109375 56.238281 227.828125 84.246094 236.6875 90.378906 C 241.429688 93.664062 245.519531 94.867188 248.832031 93.953125 C 252.449219 92.949219 254.003906 89.625 254.015625 89.589844 C 254.417969 88.710938 255.460938 88.308594 256.351562 88.699219 C 257.242188 89.101562 257.640625 90.128906 257.253906 91.019531 C 257.164062 91.21875 255.070312 95.859375 249.835938 97.324219 C 245.457031 98.566406 240.351562 97.199219 234.667969 93.261719 C 225.03125 86.59375 220.550781 61.367188 219.082031 50.871094 C 216.460938 54.21875 211.804688 59.410156 204.453125 65.117188 C 193.121094 73.917969 172.929688 85.640625 141.136719 91.582031 C 140.257812 91.746094 139.390625 91.230469 139.128906 90.378906 C 138.976562 89.914062 135.539062 78.804688 137.871094 65.039062 C 140.019531 52.3125 147.746094 34.898438 172.316406 24.328125 C 207.964844 8.984375 220.652344 21.296875 223.789062 25.609375 C 226.761719 24.757812 234.003906 23.378906 242.246094 27.027344 C 252.195312 31.425781 260.0625 41.480469 265.636719 56.902344 C 275.121094 83.234375 270.65625 98.191406 270.453125 98.816406 C 270.214844 99.570312 269.511719 100.058594 268.761719 100.058594 Z M 268.761719 100.058594 " fill-opacity="1" fill-rule="nonzero"/><path fill="#232323" d="M 189.066406 156.617188 C 188.050781 156.617188 187.046875 156.589844 186.054688 156.554688 C 182.46875 156.402344 178.953125 155.964844 175.578125 155.261719 C 163.132812 152.667969 152.429688 146.359375 146.203125 137.960938 C 146.179688 137.933594 146.167969 137.910156 146.140625 137.871094 C 145.4375 136.917969 144.773438 135.902344 144.183594 134.863281 C 142 131.027344 140.734375 126.699219 139.96875 120.40625 C 139.316406 115.027344 138.953125 108.644531 138.875 101.4375 C 138.875 98.175781 138.9375 92.222656 139 90.316406 C 139.015625 90.128906 139.015625 89.992188 139.027344 89.851562 L 140.796875 89.851562 L 142.566406 89.914062 C 142.566406 90.128906 142.554688 90.292969 142.539062 90.464844 C 142.476562 92.296875 142.425781 98.203125 142.414062 101.414062 C 142.476562 108.472656 142.839844 114.714844 143.480469 119.96875 C 144.183594 125.773438 145.3125 129.710938 147.257812 133.109375 C 147.796875 134.046875 148.398438 134.976562 149.039062 135.839844 C 149.066406 135.867188 149.078125 135.890625 149.101562 135.929688 C 154.824219 143.601562 164.726562 149.382812 176.292969 151.789062 C 179.480469 152.453125 182.804688 152.867188 186.207031 153.019531 C 190.785156 153.21875 195.519531 152.929688 200.273438 152.175781 C 205.253906 151.386719 209.921875 150.347656 214.152344 149.066406 C 214.578125 148.941406 214.992188 148.816406 215.40625 148.679688 C 215.429688 148.667969 215.457031 148.667969 215.480469 148.65625 C 232.808594 143.164062 243.0625 135.152344 248.707031 122.703125 C 248.996094 122.0625 249.636719 121.671875 250.339844 121.660156 C 250.554688 121.660156 259.171875 121.609375 264.332031 116.308594 C 267.367188 113.183594 268.648438 108.773438 268.132812 103.191406 C 267.980469 101.601562 267.644531 100.171875 267.128906 98.941406 C 264.167969 91.769531 255.785156 92.058594 255.699219 92.058594 C 254.71875 92.109375 253.890625 91.34375 253.851562 90.367188 C 253.816406 89.386719 254.566406 88.5625 255.535156 88.523438 C 255.972656 88.511719 266.488281 88.148438 270.378906 97.574219 C 271.03125 99.144531 271.445312 100.910156 271.632812 102.855469 C 272.25 109.5 270.640625 114.851562 266.839844 118.75 C 261.757812 123.980469 254.304688 124.957031 251.445312 125.132812 C 245.257812 138.023438 234.417969 146.347656 216.460938 152.027344 C 216.433594 152.039062 216.421875 152.039062 216.398438 152.050781 C 215.984375 152.191406 215.558594 152.316406 215.128906 152.441406 C 210.761719 153.746094 205.933594 154.835938 200.800781 155.652344 C 196.886719 156.300781 192.933594 156.617188 189.066406 156.617188 Z M 189.066406 156.617188 " fill-opacity="1" fill-rule="nonzero"/><path fill="#232323" d="M 185.957031 132.769531 C 176.683594 132.769531 172.480469 126.664062 172.304688 126.398438 C 171.765625 125.585938 171.976562 124.496094 172.792969 123.953125 C 173.597656 123.414062 174.699219 123.628906 175.238281 124.429688 C 175.402344 124.667969 178.980469 129.699219 187.058594 129.207031 C 196.507812 128.644531 200.726562 123.089844 200.902344 122.863281 C 201.476562 122.085938 202.582031 121.910156 203.371094 122.488281 C 204.152344 123.066406 204.339844 124.15625 203.761719 124.945312 C 203.546875 125.234375 198.464844 132.066406 187.273438 132.742188 C 186.820312 132.757812 186.382812 132.769531 185.957031 132.769531 Z M 185.957031 132.769531 " fill-opacity="1" fill-rule="nonzero"/><path fill="#232323" d="M 206.597656 78.378906 C 213.199219 74.71875 221.855469 74.667969 228.015625 79.246094 C 228.40625 79.496094 228.507812 80.023438 228.242188 80.398438 C 227.992188 80.789062 227.476562 80.875 227.101562 80.636719 C 224.90625 79.410156 222.558594 78.605469 220.085938 78.394531 C 216.082031 78.140625 211.957031 79.28125 208.644531 81.515625 C 206.484375 82.980469 204.375 79.746094 206.597656 78.378906 Z M 206.597656 78.378906 " fill-opacity="1" fill-rule="nonzero"/><path fill="#232323" d="M 163.695312 169.515625 C 163.519531 169.515625 163.34375 169.492188 163.15625 169.429688 C 146.945312 164.300781 141.660156 156.140625 141.449219 155.789062 C 141.199219 155.386719 141.109375 154.886719 141.234375 154.421875 C 141.359375 153.957031 141.648438 153.558594 142.074219 153.320312 C 142.316406 153.179688 148.261719 149.445312 145.902344 137.246094 C 145.878906 137.132812 145.867188 137.019531 145.867188 136.90625 C 145.867188 135.929688 146.65625 135.140625 147.636719 135.140625 C 148.511719 135.140625 149.253906 135.789062 149.378906 136.628906 C 151.449219 147.4375 147.722656 152.890625 145.414062 155.125 C 147.460938 157.417969 152.992188 162.507812 164.222656 166.058594 C 165.152344 166.34375 165.667969 167.347656 165.378906 168.277344 C 165.140625 169.039062 164.449219 169.515625 163.695312 169.515625 Z M 163.695312 169.515625 " fill-opacity="1" fill-rule="nonzero"/><path fill="#232323" d="M 243.148438 165.265625 C 242.433594 165.265625 241.757812 164.828125 241.492188 164.113281 C 241.15625 163.199219 241.617188 162.183594 242.535156 161.84375 C 259.488281 155.585938 267.554688 147.578125 269.875 144.941406 C 262.324219 131.964844 264.332031 118.1875 264.429688 117.597656 C 264.582031 116.632812 265.484375 115.96875 266.449219 116.117188 C 267.417969 116.269531 268.082031 117.171875 267.933594 118.136719 C 267.90625 118.277344 265.925781 132.03125 273.539062 144.164062 C 273.929688 144.78125 273.890625 145.558594 273.476562 146.148438 C 273.152344 146.597656 265.234375 157.253906 243.765625 165.179688 C 243.5625 165.230469 243.351562 165.265625 243.148438 165.265625 Z M 243.148438 165.265625 " fill-opacity="1" fill-rule="nonzero"/><path fill="#232323" d="M 232.910156 202.003906 C 231.039062 202.003906 229.082031 201.878906 227.074219 201.589844 C 226.636719 201.527344 226.199219 201.449219 225.757812 201.375 C 225.019531 201.25 224.441406 200.660156 224.328125 199.921875 L 221.804688 184.777344 C 221.640625 183.808594 222.292969 182.90625 223.261719 182.746094 C 224.226562 182.582031 225.128906 183.234375 225.292969 184.199219 L 227.613281 198.089844 C 237.0625 199.46875 245.15625 196.8125 249.136719 195.105469 C 250.039062 194.71875 251.066406 195.132812 251.457031 196.035156 C 251.84375 196.9375 251.429688 197.964844 250.527344 198.355469 C 247.027344 199.832031 240.640625 202.003906 232.910156 202.003906 Z M 232.910156 202.003906 " fill-opacity="1" fill-rule="nonzero"/><path fill="#232323" d="M 249.824219 198.480469 C 249.136719 198.480469 248.480469 198.078125 248.195312 197.402344 C 247.804688 196.5 248.230469 195.46875 249.121094 195.082031 C 250.25 194.605469 251.128906 194.167969 251.746094 193.839844 C 251.394531 190.542969 249.976562 180.25 244.929688 169.566406 C 244.101562 167.824219 243.050781 166.15625 241.78125 164.613281 C 233.011719 153.96875 216.648438 152.214844 215.796875 152.128906 C 214.890625 152.050781 214.175781 151.289062 214.175781 150.371094 C 214.175781 149.394531 214.96875 148.605469 215.945312 148.605469 C 216.007812 148.605469 216.058594 148.605469 216.121094 148.617188 C 218.027344 148.804688 234.941406 150.75 244.515625 162.371094 C 245.972656 164.136719 247.191406 166.058594 248.132812 168.0625 C 254.519531 181.589844 255.332031 194.179688 255.371094 194.707031 C 255.410156 195.359375 255.09375 195.972656 254.542969 196.308594 C 254.480469 196.347656 253.023438 197.25 250.515625 198.328125 C 250.289062 198.429688 250.050781 198.480469 249.824219 198.480469 Z M 249.824219 198.480469 " fill-opacity="1" fill-rule="nonzero"/><path fill="#232323" d="M 220.765625 230.164062 C 219.847656 230.164062 219.070312 229.460938 219.007812 228.53125 C 218.933594 227.554688 219.660156 226.714844 220.636719 226.640625 C 228.292969 226.050781 234.464844 223.917969 239.007812 220.28125 C 249.8125 211.667969 248.09375 197.101562 248.066406 196.949219 C 248.054688 196.875 248.054688 196.800781 248.054688 196.722656 C 248.054688 195.746094 248.847656 194.957031 249.824219 194.957031 C 250.742188 194.957031 251.507812 195.660156 251.582031 196.5625 C 251.730469 197.777344 253.3125 213.386719 241.21875 223.039062 C 236.109375 227.128906 229.273438 229.523438 220.902344 230.164062 C 220.851562 230.164062 220.800781 230.164062 220.765625 230.164062 Z M 220.765625 230.164062 " fill-opacity="1" fill-rule="nonzero"/><path fill="#232323" d="M 218.78125 211.40625 C 218.003906 211.40625 217.300781 210.890625 217.074219 210.113281 C 216.8125 209.175781 217.363281 208.195312 218.304688 207.933594 C 223.109375 206.589844 224.980469 204.972656 225.558594 204.347656 L 225.558594 199.832031 C 225.558594 198.855469 226.347656 198.066406 227.328125 198.066406 C 228.304688 198.066406 229.097656 198.855469 229.097656 199.832031 L 229.097656 204.925781 C 229.097656 205.199219 229.03125 205.464844 228.90625 205.714844 C 228.617188 206.277344 226.824219 209.222656 219.257812 211.332031 C 219.09375 211.378906 218.945312 211.40625 218.78125 211.40625 Z M 218.78125 211.40625 " fill-opacity="1" fill-rule="nonzero"/><path fill="#232323" d="M 162.90625 171.847656 C 162.742188 171.847656 162.578125 171.824219 162.402344 171.773438 C 161.460938 171.5 160.921875 170.519531 161.199219 169.578125 C 161.449219 168.703125 161.738281 167.875 162.039062 167.097656 C 166.230469 156.214844 174.824219 152.078125 175.191406 151.914062 C 176.082031 151.5 177.121094 151.875 177.535156 152.765625 C 177.949219 153.644531 177.574219 154.699219 176.683594 155.113281 C 176.570312 155.160156 168.980469 158.886719 165.328125 168.363281 C 165.0625 169.039062 164.8125 169.78125 164.585938 170.558594 C 164.386719 171.347656 163.671875 171.847656 162.90625 171.847656 Z M 162.90625 171.847656 " fill-opacity="1" fill-rule="nonzero"/><path fill="#232323" d="M 170.09375 273.191406 C 167.6875 273.191406 165.277344 273.078125 162.878906 272.839844 C 161.109375 272.953125 148.414062 273.105469 139.140625 257.78125 C 138.636719 256.941406 138.902344 255.863281 139.742188 255.351562 C 140.582031 254.847656 141.660156 255.113281 142.164062 255.953125 C 150.746094 270.132812 162.265625 269.34375 162.753906 269.304688 C 162.867188 269.292969 162.980469 269.292969 163.09375 269.304688 C 173.808594 270.382812 184.789062 268.964844 195.730469 265.105469 C 204.890625 261.871094 210.625 258.035156 210.675781 257.996094 C 210.964844 257.796875 211.316406 257.695312 211.667969 257.695312 C 213.296875 257.695312 217.628906 257.542969 222.632812 256.179688 C 226.261719 255.1875 229.371094 253.808594 231.867188 252.054688 C 232.671875 251.488281 233.777344 251.691406 234.328125 252.492188 C 234.878906 253.292969 234.691406 254.398438 233.890625 254.949219 C 231.054688 256.929688 227.578125 258.496094 223.5625 259.589844 C 218.617188 260.941406 214.265625 261.191406 212.195312 261.230469 C 210.613281 262.234375 205.128906 265.542969 196.898438 268.453125 C 187.953125 271.601562 178.96875 273.191406 170.09375 273.191406 Z M 170.09375 273.191406 " fill-opacity="1" fill-rule="nonzero"/><path fill="#232323" d="M 232.898438 255.238281 C 232.332031 255.238281 231.792969 254.976562 231.441406 254.484375 C 230.890625 253.683594 231.078125 252.578125 231.882812 252.027344 C 234.453125 250.234375 236.386719 248.054688 237.617188 245.546875 C 242.535156 235.476562 238.46875 222.328125 238.417969 222.1875 C 238.128906 221.261719 238.644531 220.269531 239.574219 219.96875 C 240.5 219.679688 241.492188 220.183594 241.792969 221.121094 C 241.984375 221.710938 246.347656 235.742188 240.789062 247.101562 C 239.296875 250.160156 236.976562 252.792969 233.902344 254.925781 C 233.601562 255.136719 233.25 255.238281 232.898438 255.238281 Z M 232.898438 255.238281 " fill-opacity="1" fill-rule="nonzero"/><path fill="#232323" d="M 161.5 265.003906 C 161.386719 265.003906 161.285156 264.992188 161.175781 264.980469 C 152.476562 263.351562 145.5 261.207031 139.867188 258.449219 C 130.921875 254.085938 125.601562 248.179688 124.03125 240.894531 C 123.628906 239 123.65625 237.183594 124.144531 235.492188 C 124.410156 234.550781 125.386719 234.011719 126.328125 234.273438 C 127.269531 234.539062 127.808594 235.515625 127.546875 236.457031 C 127.230469 237.570312 127.207031 238.8125 127.496094 240.140625 C 128.8125 246.3125 133.503906 251.402344 141.421875 255.261719 C 146.769531 257.882812 153.445312 259.914062 161.828125 261.496094 C 162.792969 261.667969 163.421875 262.597656 163.230469 263.5625 C 163.082031 264.402344 162.339844 265.003906 161.5 265.003906 Z M 161.5 265.003906 " fill-opacity="1" fill-rule="nonzero"/><path fill="#232323" d="M 184.800781 249.09375 C 184.6875 249.09375 184.5625 249.082031 184.4375 249.058594 C 184.363281 249.042969 182.582031 248.667969 179.832031 247.742188 C 174.9375 246.097656 167.738281 242.949219 161.1875 237.308594 C 160.445312 236.667969 160.359375 235.554688 161 234.8125 C 161.636719 234.074219 162.753906 233.988281 163.496094 234.625 C 169.617188 239.890625 176.382812 242.839844 180.972656 244.394531 C 183.507812 245.246094 185.152344 245.597656 185.164062 245.597656 C 186.121094 245.796875 186.734375 246.726562 186.535156 247.691406 C 186.359375 248.53125 185.617188 249.09375 184.800781 249.09375 Z M 184.800781 249.09375 " fill-opacity="1" fill-rule="nonzero"/><path fill="#232323" d="M 161.5 265.003906 C 160.734375 265.003906 160.019531 264.503906 159.804688 263.726562 C 159.542969 262.785156 160.082031 261.808594 161.023438 261.542969 C 170.257812 258.898438 175.265625 256.578125 180.460938 249.796875 C 181.363281 248.617188 182.417969 247.402344 183.609375 246.171875 C 189.933594 239.617188 198.039062 234.675781 198.378906 234.460938 C 199.21875 233.960938 200.296875 234.226562 200.8125 235.050781 C 201.316406 235.890625 201.050781 236.96875 200.222656 237.484375 C 200.148438 237.535156 192.167969 242.410156 186.15625 248.628906 C 185.066406 249.757812 184.097656 250.875 183.285156 251.941406 C 176.984375 260.164062 170.496094 262.511719 162.015625 264.941406 C 161.828125 264.980469 161.664062 265.003906 161.5 265.003906 Z M 161.5 265.003906 " fill-opacity="1" fill-rule="nonzero"/><path fill="#232323" d="M 205.605469 271.585938 C 199.722656 271.585938 195.480469 268.339844 195.230469 268.152344 C 194.464844 267.550781 194.324219 266.445312 194.929688 265.667969 C 195.53125 264.90625 196.632812 264.765625 197.414062 265.367188 C 197.699219 265.59375 204.425781 270.648438 212.105469 266.269531 C 217.839844 263.011719 220.125 259.902344 220.976562 258.347656 C 221.304688 257.746094 221.417969 257.382812 221.417969 257.382812 C 221.691406 256.453125 222.671875 255.914062 223.601562 256.179688 C 224.527344 256.441406 225.082031 257.382812 224.828125 258.320312 C 224.804688 258.433594 224.617188 259.074219 224.078125 260.050781 C 223.046875 261.933594 220.335938 265.644531 213.863281 269.34375 C 210.925781 270.996094 208.117188 271.585938 205.605469 271.585938 Z M 205.605469 271.585938 " fill-opacity="1" fill-rule="nonzero"/><path fill="#232323" d="M 180.398438 247.839844 C 179.644531 247.839844 178.941406 247.351562 178.703125 246.585938 C 177.324219 242.046875 174.425781 236.894531 174.398438 236.84375 C 173.921875 235.992188 174.222656 234.914062 175.078125 234.4375 C 175.929688 233.960938 177.007812 234.261719 177.484375 235.113281 C 177.613281 235.339844 180.585938 240.644531 182.089844 245.558594 C 182.378906 246.488281 181.851562 247.476562 180.910156 247.765625 C 180.734375 247.816406 180.574219 247.839844 180.398438 247.839844 Z M 180.398438 247.839844 " fill-opacity="1" fill-rule="nonzero"/><path fill="#232323" d="M 221.003906 237.734375 L 117.445312 237.734375 C 116.527344 237.734375 115.761719 237.03125 115.6875 236.117188 L 110.128906 170.230469 C 110.089844 169.742188 110.253906 169.253906 110.59375 168.890625 C 110.933594 168.527344 111.394531 168.3125 111.898438 168.3125 L 215.46875 168.3125 C 216.398438 168.3125 217.175781 169.039062 217.238281 169.96875 L 217.238281 170.054688 L 222.394531 231.015625 L 222.796875 235.816406 C 222.835938 236.304688 222.671875 236.792969 222.332031 237.160156 C 221.96875 237.535156 221.503906 237.734375 221.003906 237.734375 Z M 119.0625 234.199219 L 219.082031 234.199219 L 213.8125 171.847656 L 113.804688 171.847656 Z M 119.0625 234.199219 " fill-opacity="1" fill-rule="nonzero"/><path fill="#232323" d="M 197.636719 165.84375 C 189.542969 165.84375 185.492188 159.199219 184.425781 155.25 C 184.175781 154.308594 184.726562 153.34375 185.667969 153.082031 C 186.609375 152.828125 187.574219 153.382812 187.839844 154.320312 C 187.953125 154.722656 190.625 163.949219 200.199219 162.042969 C 210.285156 160.027344 212.847656 150.734375 212.945312 150.335938 C 213.199219 149.394531 214.164062 148.828125 215.105469 149.066406 C 216.046875 149.304688 216.625 150.273438 216.371094 151.210938 C 216.246094 151.6875 213.210938 163.035156 200.886719 165.503906 C 199.746094 165.742188 198.667969 165.84375 197.636719 165.84375 Z M 197.636719 165.84375 " fill-opacity="1" fill-rule="nonzero"/><path fill="#232323" d="M 232.898438 255.238281 C 232.421875 255.238281 231.957031 255.050781 231.605469 254.6875 C 231.117188 254.171875 231.003906 253.445312 231.242188 252.832031 C 231.503906 252.003906 232.722656 247.652344 231.230469 243.652344 C 228.417969 236.117188 220.046875 232.859375 219.960938 232.820312 C 219.734375 232.734375 219.523438 232.59375 219.347656 232.417969 C 218.65625 231.730469 218.65625 230.613281 219.347656 229.925781 C 219.886719 229.386719 220.6875 229.273438 221.339844 229.574219 C 222.484375 230.035156 231.328125 233.824219 234.542969 242.425781 C 236.488281 247.628906 234.90625 252.992188 234.566406 254.023438 C 234.480469 254.296875 234.316406 254.5625 234.089844 254.761719 C 233.761719 255.085938 233.324219 255.238281 232.898438 255.238281 Z M 232.898438 253.46875 Z M 232.898438 253.46875 " fill-opacity="1" fill-rule="nonzero"/><path fill="#232323" d="M 141.738281 122.464844 C 141.6875 122.464844 141.636719 122.464844 141.585938 122.464844 C 132.992188 121.761719 126.265625 114.300781 126.265625 105.488281 C 126.265625 97.097656 132.363281 89.863281 140.457031 88.648438 C 141.046875 88.535156 141.660156 88.722656 142.0625 89.148438 C 142.402344 89.5 142.578125 89.964844 142.566406 90.441406 C 142.503906 92.160156 142.425781 94.878906 142.414062 98.140625 C 142.414062 99.179688 142.414062 100.285156 142.414062 101.425781 C 142.464844 108.671875 142.816406 115.078125 143.480469 120.496094 C 143.542969 121.019531 143.367188 121.546875 143.003906 121.9375 C 142.679688 122.273438 142.214844 122.464844 141.738281 122.464844 Z M 138.976562 92.609375 C 133.632812 94.351562 129.816406 99.554688 129.816406 105.472656 C 129.816406 111.707031 134.019531 117.070312 139.730469 118.5625 C 139.226562 113.546875 138.9375 107.792969 138.902344 101.4375 C 138.890625 100.285156 138.890625 99.167969 138.902344 98.113281 C 138.902344 96.019531 138.9375 94.140625 138.976562 92.609375 Z M 138.976562 92.609375 " fill-opacity="1" fill-rule="nonzero"/><path fill="#232323" d="M 254.503906 111.78125 C 254.742188 107.605469 256.1875 102.164062 260.84375 101.148438 C 262.296875 100.859375 263.742188 101.097656 265.058594 101.511719 C 265.171875 101.550781 265.246094 101.675781 265.207031 101.789062 C 265.171875 101.902344 265.058594 101.964844 264.957031 101.9375 C 263.652344 101.699219 262.285156 101.664062 261.09375 102.078125 C 257.304688 103.417969 256.8125 108.269531 257.039062 111.730469 C 257.128906 113.5 254.480469 113.5625 254.503906 111.78125 Z M 254.503906 111.78125 " fill-opacity="1" fill-rule="nonzero"/><path fill="#232323" d="M 266.113281 106.941406 C 264.128906 104.808594 260.878906 104.960938 258.632812 106.550781 L 257.707031 107.230469 L 257.628906 107.292969 C 257.066406 107.707031 256.261719 107.582031 255.847656 107.015625 C 255.359375 106.363281 255.632812 105.398438 256.386719 105.085938 C 257.152344 104.746094 258.21875 104.320312 259.023438 104.15625 C 261.683594 103.441406 264.933594 104.457031 266.261719 106.855469 C 266.324219 106.941406 266.1875 107.027344 266.113281 106.941406 Z M 266.113281 106.941406 " fill-opacity="1" fill-rule="nonzero"/></svg>