<svg xmlns="http://www.w3.org/2000/svg" xmlns:xlink="http://www.w3.org/1999/xlink" width="500" zoomAndPan="magnify" viewBox="0 0 375 374.999991" height="500" preserveAspectRatio="xMidYMid meet" version="1.0"><defs><filter x="0%" y="0%" width="100%" height="100%" id="0e57cf8929"><feColorMatrix values="0 0 0 0 1 0 0 0 0 1 0 0 0 0 1 0 0 0 1 0" color-interpolation-filters="sRGB"/></filter><clipPath id="12ece5a45f"><path d="M 53.203125 265 L 156 265 L 156 294 L 53.203125 294 Z M 53.203125 265 " clip-rule="nonzero"/></clipPath><clipPath id="e794357f1c"><path d="M 53.203125 277 L 156 277 L 156 317 L 53.203125 317 Z M 53.203125 277 " clip-rule="nonzero"/></clipPath><clipPath id="408e50ae82"><path d="M 58 337 L 278 337 L 278 342.1875 L 58 342.1875 Z M 58 337 " clip-rule="nonzero"/></clipPath><mask id="768c355a1a"><g filter="url(#0e57cf8929)"><rect x="-37.5" width="450" fill="#000000" y="-37.499999" height="449.999989" fill-opacity="0.3"/></g></mask><clipPath id="11f044c8de"><path d="M 1 1 L 37.761719 1 L 37.761719 35.601562 L 1 35.601562 Z M 1 1 " clip-rule="nonzero"/></clipPath><clipPath id="b6b7cb590d"><path d="M 0.800781 0.558594 L 37.761719 0.558594 L 37.761719 35.601562 L 0.800781 35.601562 Z M 0.800781 0.558594 " clip-rule="nonzero"/></clipPath><clipPath id="e1bf210e63"><rect x="0" width="38" y="0" height="36"/></clipPath></defs><path fill="#fdd800" d="M 327.382812 165.726562 L 286.964844 253.632812 L 279.429688 250.871094 L 281.488281 241.960938 L 319.664062 162.109375 C 320.390625 160.574219 321.925781 159.683594 323.515625 159.683594 C 324.148438 159.683594 324.796875 159.824219 325.410156 160.128906 C 327.46875 161.164062 328.335938 163.636719 327.382812 165.726562 Z M 327.382812 165.726562 " fill-opacity="1" fill-rule="nonzero"/><path fill="#371a45" d="M 287.121094 254.003906 L 279.085938 251.058594 L 281.226562 241.835938 L 319.402344 161.984375 C 320.148438 160.410156 321.765625 159.390625 323.515625 159.390625 C 324.214844 159.390625 324.917969 159.558594 325.542969 159.867188 C 327.75 160.976562 328.675781 163.605469 327.648438 165.847656 L 327.648438 165.851562 Z M 279.773438 250.683594 L 286.8125 253.265625 L 327.117188 165.605469 C 328.011719 163.648438 327.203125 161.359375 325.277344 160.394531 C 324.734375 160.121094 324.125 159.976562 323.515625 159.976562 C 321.988281 159.976562 320.578125 160.867188 319.929688 162.238281 L 281.765625 242.058594 Z M 279.773438 250.683594 " fill-opacity="1" fill-rule="nonzero"/><path fill="#fccfa5" d="M 281.488281 241.960938 L 278.6875 249.398438 C 275.242188 251.878906 272.722656 254.941406 271.054688 258.535156 C 268.402344 264.203125 267.863281 271.1875 269.097656 279.273438 L 265.183594 279.28125 C 265.183594 279.28125 261.082031 273.269531 259.003906 266.363281 C 256.914062 259.457031 262.515625 254.878906 262.515625 254.878906 C 263.03125 253.9375 263.554688 253.015625 264.089844 252.113281 C 268.511719 244.558594 273.488281 238.679688 281.488281 241.960938 Z M 281.488281 241.960938 " fill-opacity="1" fill-rule="nonzero"/><path fill="#fccfa5" d="M 153.851562 235.964844 C 163.539062 253.875 173.222656 253.875 182.910156 235.964844 Z M 153.851562 235.964844 " fill-opacity="1" fill-rule="nonzero"/><path fill="#b671db" d="M 271.054688 279.28125 L 267.925781 287.757812 L 237.894531 305.261719 C 231.898438 308.761719 224.558594 309.066406 218.289062 306.085938 L 209.976562 302.125 L 209.726562 302.007812 L 208.160156 305.960938 L 213.136719 337.46875 L 115.425781 338.464844 L 101.957031 336.113281 L 97.023438 329.46875 L 99.625 327.214844 C 110.941406 327.136719 111.785156 323.183594 114.664062 314.375 C 117.539062 305.570312 104.367188 305.285156 104.367188 305.285156 L 105.664062 273.082031 L 123.65625 249.398438 L 138.675781 242.117188 L 144.851562 254.878906 L 159.136719 264.796875 L 169.695312 250.683594 L 184.824219 262.707031 L 194.097656 244.703125 L 200.539062 245.773438 C 206.980469 246.847656 212.804688 250.238281 216.929688 255.300781 L 232.511719 274.449219 L 254.089844 255.261719 C 255.703125 253.828125 257.910156 253.15625 260.003906 253.65625 C 260.828125 253.851562 261.6875 254.226562 262.515625 254.878906 C 258.691406 258.800781 258.117188 265.125 259.832031 270.363281 C 261.570312 275.664062 265.640625 279.835938 271.054688 279.28125 Z M 271.054688 279.28125 " fill-opacity="1" fill-rule="nonzero"/><path fill="#fe6dcb" d="M 271.054688 279.28125 L 267.925781 287.757812 L 237.894531 305.261719 C 231.898438 308.761719 224.558594 309.066406 218.289062 306.085938 L 209.976562 302.125 L 209.726562 302.007812 L 208.160156 305.960938 L 213.136719 337.46875 L 115.425781 338.464844 L 101.957031 336.113281 L 97.023438 329.46875 L 99.625 327.214844 C 110.941406 327.136719 111.785156 323.183594 114.664062 314.375 C 117.539062 305.570312 104.367188 305.285156 104.367188 305.285156 L 105.664062 273.082031 L 123.65625 249.398438 L 138.675781 242.117188 L 144.851562 254.878906 L 148.515625 257.421875 L 159.136719 264.796875 L 169.695312 250.683594 L 177.199219 256.648438 L 184.824219 262.707031 C 184.832031 262.699219 184.839844 262.699219 184.832031 262.691406 L 191.019531 250.683594 L 191.019531 250.675781 L 194.097656 244.703125 L 200.539062 245.773438 C 206.980469 246.847656 212.804688 250.234375 216.929688 255.300781 L 232.511719 274.449219 L 254.089844 255.261719 C 255.703125 253.828125 257.910156 253.15625 260.003906 253.65625 C 260.207031 253.703125 260.414062 253.765625 260.625 253.835938 C 261.25 254.054688 261.890625 254.382812 262.519531 254.875 C 260.851562 256.582031 259.804688 258.75 259.292969 261.09375 C 258.628906 264.105469 258.871094 267.410156 259.832031 270.359375 C 261.570312 275.664062 265.640625 279.835938 271.054688 279.28125 Z M 271.054688 279.28125 " fill-opacity="1" fill-rule="nonzero"/><path fill="#fe6dcb" d="M 194.097656 244.703125 C 193.738281 246.894531 193.175781 248.960938 192.429688 250.910156 C 190.746094 255.371094 188.140625 259.246094 184.832031 262.691406 C 184.839844 262.699219 184.832031 262.699219 184.824219 262.707031 C 184.660156 262.878906 184.488281 263.058594 184.316406 263.230469 L 177.199219 256.648438 L 169.367188 249.398438 L 159.136719 264.796875 C 154.660156 262.769531 151.191406 260.15625 148.515625 257.421875 C 141.199219 249.964844 139.765625 241.59375 139.765625 241.59375 C 141.527344 233.007812 152.71875 233.789062 152.71875 233.789062 C 161.398438 251.089844 170.585938 254.589844 180.417969 241.367188 C 181.707031 239.636719 183.007812 237.617188 184.316406 235.308594 C 188.632812 238.15625 192.070312 241.242188 194.097656 244.703125 Z M 194.097656 244.703125 " fill-opacity="1" fill-rule="nonzero"/><path fill="#ffffff" d="M 260.621094 253.835938 L 259.292969 261.09375 L 254.03125 263.363281 L 234.835938 281.332031 C 231.867188 284.109375 227.839844 285.457031 223.800781 285.015625 L 227.710938 278.496094 C 227.710938 278.496094 211.574219 260.097656 207.011719 256.1875 C 203.425781 253.117188 195.625 251.472656 192.429688 250.910156 C 191.554688 250.753906 191.019531 250.683594 191.019531 250.683594 L 191.019531 250.675781 C 188.046875 245.8125 182.332031 242.410156 180.417969 241.367188 C 181.707031 239.636719 183.007812 237.617188 184.316406 235.308594 C 188.632812 238.15625 192.070312 241.242188 194.097656 244.703125 L 200.539062 245.773438 C 206.980469 246.847656 212.804688 250.234375 216.929688 255.300781 L 232.511719 274.449219 L 254.089844 255.261719 C 255.703125 253.828125 257.910156 253.15625 260.007812 253.65625 C 260.207031 253.707031 260.410156 253.769531 260.621094 253.835938 Z M 260.621094 253.835938 " fill-opacity="0.55" fill-rule="nonzero"/><path fill="#0f227a" d="M 159.132812 267.355469 C 158.78125 267.355469 158.421875 267.28125 158.078125 267.125 C 140.351562 259.089844 137.363281 242.71875 137.242188 242.023438 C 137.191406 241.710938 137.195312 241.390625 137.257812 241.078125 C 139.007812 232.550781 148.257812 230.910156 152.898438 231.234375 C 153.800781 231.296875 154.601562 231.832031 155.007812 232.640625 C 159.609375 241.820312 164.273438 246.730469 168.492188 246.835938 C 172.601562 246.929688 177.289062 242.515625 182.089844 234.046875 C 182.441406 233.429688 183.027344 232.984375 183.71875 232.820312 C 184.40625 232.652344 185.132812 232.78125 185.726562 233.171875 C 190.753906 236.484375 194.214844 239.835938 196.304688 243.410156 C 196.605469 243.921875 196.714844 244.527344 196.617188 245.117188 C 195.371094 252.667969 191.9375 259.179688 186.132812 265.03125 C 185.160156 266.007812 183.589844 266.042969 182.578125 265.105469 L 169.832031 253.316406 L 161.265625 266.207031 C 160.78125 266.945312 159.96875 267.355469 159.132812 267.355469 Z M 142.386719 241.636719 C 142.945312 244.082031 146.066406 255.0625 158.246094 261.507812 L 164.992188 251.351562 C 160.140625 249.71875 155.582031 244.765625 151.15625 236.34375 C 148.667969 236.457031 143.613281 237.238281 142.386719 241.636719 Z M 174.316406 250.496094 L 184.1875 259.621094 C 187.984375 255.285156 190.355469 250.546875 191.402344 245.21875 C 190.007812 243.125 187.933594 241.066406 185.117188 238.984375 C 181.546875 244.757812 177.972656 248.574219 174.316406 250.496094 Z M 174.316406 250.496094 " fill-opacity="1" fill-rule="nonzero"/><path fill="#0f227a" d="M 227.316406 310.863281 C 223.835938 310.863281 220.347656 310.097656 217.109375 308.554688 L 208.546875 304.480469 C 207.179688 303.828125 206.601562 302.195312 207.25 300.828125 C 207.902344 299.460938 209.535156 298.882812 210.898438 299.53125 L 219.460938 303.609375 C 224.917969 306.207031 231.296875 305.941406 236.515625 302.894531 L 265.695312 285.886719 L 267.234375 281.71875 C 263.503906 280.773438 260.292969 277.972656 258.234375 273.722656 C 255.8125 268.714844 255.277344 261.691406 258.160156 256.261719 C 257.367188 256.359375 256.574219 256.722656 255.90625 257.316406 L 234.324219 276.5 C 233.765625 276.996094 233.03125 277.242188 232.285156 277.183594 C 231.542969 277.121094 230.851562 276.761719 230.382812 276.183594 L 214.796875 257.03125 C 211.09375 252.484375 205.871094 249.445312 200.085938 248.480469 L 193.640625 247.40625 C 192.148438 247.160156 191.140625 245.746094 191.390625 244.253906 C 191.640625 242.761719 193.050781 241.753906 194.542969 242.003906 L 200.988281 243.078125 C 208.089844 244.261719 214.5 247.988281 219.046875 253.570312 L 232.824219 270.503906 L 252.265625 253.21875 C 254.605469 251.136719 257.734375 250.304688 260.628906 250.992188 C 261.929688 251.300781 263.128906 251.882812 264.203125 252.722656 C 264.816406 253.203125 265.195312 253.921875 265.25 254.699219 C 265.300781 255.476562 265.019531 256.238281 264.476562 256.792969 C 260.851562 260.511719 261.097656 267.058594 263.164062 271.335938 C 263.996094 273.054688 266.398438 277.003906 270.769531 276.554688 C 271.710938 276.457031 272.636719 276.851562 273.214844 277.597656 C 273.792969 278.347656 273.949219 279.339844 273.621094 280.230469 L 270.492188 288.710938 C 270.269531 289.308594 269.847656 289.808594 269.300781 290.128906 L 239.269531 307.632812 C 235.589844 309.78125 231.457031 310.863281 227.316406 310.863281 Z M 227.316406 310.863281 " fill-opacity="1" fill-rule="nonzero"/><path fill="#0f227a" d="M 234.277344 275.878906 C 233.753906 276.90625 233.050781 277.796875 232.300781 278.644531 C 231.546875 279.492188 230.699219 280.265625 229.84375 281.027344 C 228.988281 281.789062 228.089844 282.519531 227.167969 283.230469 C 226.234375 283.929688 225.28125 284.617188 224.234375 285.226562 C 224.070312 285.324219 223.855469 285.269531 223.761719 285.101562 C 223.707031 285.011719 223.699219 284.910156 223.730469 284.820312 C 224.101562 283.667969 224.574219 282.589844 225.058594 281.527344 C 225.554688 280.476562 226.082031 279.445312 226.644531 278.445312 C 227.207031 277.445312 227.78125 276.457031 228.453125 275.539062 C 229.121094 274.625 229.839844 273.753906 230.734375 273.019531 C 231.730469 272.210938 233.195312 272.359375 234.007812 273.355469 C 234.609375 274.089844 234.683594 275.082031 234.277344 275.878906 Z M 234.277344 275.878906 " fill-opacity="1" fill-rule="nonzero"/><path fill="#0f227a" d="M 105.667969 278.757812 C 105.140625 278.757812 104.605469 278.605469 104.136719 278.285156 C 102.882812 277.4375 102.550781 275.734375 103.398438 274.480469 L 116.226562 255.503906 C 120.8125 248.714844 127.132812 243.519531 134.5 240.476562 C 135.992188 239.859375 137.261719 239.4375 138.382812 239.191406 C 139.863281 238.863281 141.324219 239.792969 141.652344 241.269531 C 141.980469 242.746094 141.050781 244.210938 139.570312 244.539062 C 138.773438 244.714844 137.773438 245.054688 136.589844 245.539062 C 130.21875 248.171875 124.746094 252.675781 120.765625 258.570312 L 107.9375 277.550781 C 107.410156 278.332031 106.546875 278.757812 105.667969 278.757812 Z M 105.667969 278.757812 " fill-opacity="1" fill-rule="nonzero"/><path fill="#ffffff" d="M 152.242188 273.8125 L 152.734375 281.710938 C 136.347656 278.429688 119.691406 281.421875 109.066406 289.171875 C 109.046875 289.1875 109.03125 289.195312 109.019531 289.207031 C 106.261719 291.222656 102.570312 291.230469 99.8125 289.21875 C 99.78125 289.191406 99.757812 289.179688 99.726562 289.152344 C 89.097656 281.410156 72.453125 278.429688 56.078125 281.707031 L 57.171875 272.40625 C 57.382812 270.605469 58.765625 269.152344 60.558594 268.855469 C 77.84375 266.011719 91.757812 269.183594 104.40625 277.191406 C 116.695312 269.414062 130.742188 266.195312 147.441406 268.625 C 150.066406 269.007812 152.074219 271.167969 152.242188 273.8125 Z M 152.242188 273.8125 " fill-opacity="1" fill-rule="nonzero"/><g clip-path="url(#12ece5a45f)"><path fill="#0f227a" d="M 104.40625 293.460938 C 102.230469 293.460938 100.054688 292.785156 98.195312 291.429688 L 98.078125 291.339844 C 87.960938 283.972656 72.0625 281.300781 56.617188 284.394531 C 55.757812 284.566406 54.867188 284.316406 54.222656 283.722656 C 53.578125 283.128906 53.257812 282.261719 53.359375 281.390625 L 54.453125 272.085938 C 54.804688 269.082031 57.132812 266.644531 60.113281 266.152344 C 76.820312 263.402344 90.945312 265.890625 104.410156 273.972656 C 117.40625 266.195312 131.632812 263.558594 147.835938 265.917969 C 151.726562 266.484375 154.726562 269.730469 154.976562 273.640625 L 155.472656 281.539062 C 155.523438 282.386719 155.179688 283.214844 154.539062 283.773438 C 153.898438 284.332031 153.035156 284.5625 152.199219 284.398438 C 136.777344 281.308594 120.898438 283.96875 110.742188 291.339844 C 110.707031 291.367188 110.671875 291.394531 110.632812 291.421875 C 108.769531 292.78125 106.585938 293.460938 104.40625 293.460938 Z M 110.691406 291.375 Z M 110.703125 291.367188 C 110.699219 291.371094 110.695312 291.371094 110.691406 291.375 C 110.695312 291.371094 110.699219 291.371094 110.703125 291.367188 Z M 110.707031 291.367188 Z M 69.257812 277.660156 C 81.476562 277.660156 93.058594 280.90625 101.339844 286.941406 L 101.453125 287.023438 C 103.191406 288.292969 105.558594 288.304688 107.34375 287.039062 C 107.378906 287.007812 107.414062 286.980469 107.449219 286.957031 C 118.023438 279.246094 133.980469 276.078125 149.78125 278.417969 L 149.503906 273.984375 C 149.421875 272.644531 148.386719 271.535156 147.046875 271.339844 C 131.578125 269.089844 118.113281 271.761719 105.871094 279.507812 C 104.976562 280.074219 103.835938 280.074219 102.941406 279.507812 C 90.238281 271.464844 76.910156 268.941406 61 271.558594 C 60.417969 271.65625 59.960938 272.136719 59.890625 272.726562 L 59.226562 278.386719 C 62.582031 277.898438 65.945312 277.660156 69.257812 277.660156 Z M 107.394531 287 C 107.386719 287.007812 107.375 287.011719 107.367188 287.023438 C 107.375 287.015625 107.386719 287.007812 107.394531 287 Z M 107.398438 286.996094 Z M 107.398438 286.996094 " fill-opacity="1" fill-rule="nonzero"/></g><path fill="#0f227a" d="M 107.148438 277.195312 L 104.410156 290.71875 L 101.667969 277.195312 C 101.363281 275.679688 102.34375 274.207031 103.855469 273.898438 C 105.367188 273.589844 106.84375 274.570312 107.148438 276.082031 C 107.226562 276.457031 107.21875 276.84375 107.148438 277.195312 Z M 107.148438 277.195312 " fill-opacity="1" fill-rule="nonzero"/><path fill="#4cabf2" d="M 152.734375 281.710938 L 136.738281 306.339844 C 135.085938 308.882812 132.199219 310.320312 129.175781 310.125 C 124.339844 309.804688 116.597656 309.851562 109.699219 312.359375 C 106.289062 313.601562 102.527344 313.601562 99.117188 312.359375 C 92.222656 309.851562 84.476562 309.804688 79.636719 310.128906 C 76.613281 310.324219 73.726562 308.882812 72.074219 306.339844 L 56.078125 281.710938 C 72.453125 278.429688 89.097656 281.414062 99.726562 289.15625 C 99.757812 289.179688 99.78125 289.195312 99.8125 289.21875 C 102.566406 291.230469 106.261719 291.222656 109.015625 289.210938 C 109.03125 289.195312 109.046875 289.1875 109.0625 289.171875 C 119.691406 281.421875 136.347656 278.429688 152.734375 281.710938 Z M 152.734375 281.710938 " fill-opacity="1" fill-rule="nonzero"/><path fill="#0f227a" d="M 147.40625 292.878906 L 136.761719 307.160156 C 135.121094 309.367188 132.238281 310.621094 129.214844 310.464844 C 124.375 310.203125 116.636719 310.269531 109.742188 312.46875 C 106.339844 313.550781 102.578125 313.5625 99.167969 312.507812 C 92.257812 310.355469 84.515625 310.34375 79.671875 310.636719 C 76.652344 310.816406 73.757812 309.582031 72.101562 307.386719 L 61.351562 293.171875 C 75.925781 291.625 90.195312 294.269531 99.6875 300.210938 C 99.71875 300.230469 99.742188 300.246094 99.773438 300.265625 C 102.535156 301.996094 106.230469 301.976562 108.976562 300.226562 C 108.992188 300.210938 109.007812 300.207031 109.023438 300.191406 C 118.496094 294.171875 132.777344 291.421875 147.40625 292.878906 Z M 147.40625 292.878906 " fill-opacity="0.3" fill-rule="nonzero"/><g clip-path="url(#e794357f1c)"><path fill="#0f227a" d="M 104.410156 316.03125 C 102.300781 316.03125 100.1875 315.664062 98.183594 314.933594 C 91.859375 312.632812 84.707031 312.535156 79.816406 312.859375 C 75.804688 313.121094 71.960938 311.191406 69.777344 307.832031 L 53.78125 283.203125 C 53.289062 282.441406 53.203125 281.484375 53.554688 280.648438 C 53.90625 279.808594 54.652344 279.199219 55.539062 279.023438 C 72.4375 275.636719 89.988281 278.671875 101.339844 286.941406 L 101.453125 287.023438 C 103.191406 288.292969 105.5625 288.304688 107.34375 287.039062 C 107.378906 287.007812 107.414062 286.980469 107.449219 286.957031 C 118.800781 278.675781 136.363281 275.636719 153.273438 279.023438 C 154.164062 279.199219 154.910156 279.808594 155.261719 280.644531 C 155.613281 281.484375 155.527344 282.441406 155.035156 283.199219 L 139.039062 307.828125 C 136.855469 311.191406 133.011719 313.117188 129.003906 312.859375 C 124.113281 312.535156 116.960938 312.632812 110.636719 314.933594 C 108.628906 315.664062 106.519531 316.03125 104.410156 316.03125 Z M 83.859375 307.246094 C 88.738281 307.246094 94.605469 307.804688 100.054688 309.785156 C 102.863281 310.808594 105.953125 310.808594 108.761719 309.785156 C 115.984375 307.15625 123.949219 307.035156 129.359375 307.390625 C 131.382812 307.523438 133.335938 306.546875 134.441406 304.84375 L 148.164062 283.71875 C 134.054688 281.804688 120.015625 284.609375 110.742188 291.335938 C 110.707031 291.367188 110.671875 291.394531 110.632812 291.421875 C 106.910156 294.136719 101.914062 294.140625 98.199219 291.429688 L 98.078125 291.339844 C 88.84375 284.613281 74.785156 281.800781 60.652344 283.714844 L 74.375 304.84375 C 75.480469 306.546875 77.429688 307.523438 79.460938 307.390625 C 80.789062 307.304688 82.269531 307.246094 83.859375 307.246094 Z M 110.691406 291.375 Z M 110.695312 291.375 C 110.695312 291.375 110.695312 291.375 110.691406 291.375 C 110.695312 291.375 110.695312 291.375 110.695312 291.375 Z M 110.703125 291.367188 C 110.699219 291.367188 110.699219 291.371094 110.695312 291.375 C 110.699219 291.371094 110.703125 291.367188 110.703125 291.367188 Z M 110.707031 291.367188 Z M 107.375 287.015625 Z M 107.378906 287.011719 Z M 107.382812 287.007812 C 107.378906 287.007812 107.378906 287.011719 107.378906 287.011719 C 107.378906 287.011719 107.378906 287.011719 107.382812 287.007812 Z M 107.382812 287.007812 Z M 107.382812 287.007812 " fill-opacity="1" fill-rule="nonzero"/></g><path fill="#0f227a" d="M 104.367188 314.996094 C 103.425781 314.996094 102.660156 314.230469 102.660156 313.289062 L 102.660156 290.71875 C 102.660156 289.777344 103.425781 289.015625 104.367188 289.015625 C 105.308594 289.015625 106.074219 289.777344 106.074219 290.71875 L 106.074219 313.289062 C 106.074219 314.230469 105.308594 314.996094 104.367188 314.996094 Z M 104.367188 314.996094 " fill-opacity="1" fill-rule="nonzero"/><path fill="#fccfa5" d="M 114.4375 320.886719 C 111.628906 329.015625 103.921875 328.503906 93.894531 323.894531 C 90.636719 322.394531 88.488281 319.058594 88.742188 315.480469 C 89.320312 307.363281 101.050781 303.71875 111.039062 308.636719 C 113.65625 309.925781 115.238281 312.65625 115.179688 315.574219 C 115.144531 317.367188 114.964844 319.371094 114.4375 320.886719 Z M 114.4375 320.886719 " fill-opacity="1" fill-rule="nonzero"/><path fill="#ffffff" d="M 115.183594 315.574219 C 115.144531 317.363281 114.960938 319.367188 114.4375 320.886719 C 114.132812 321.773438 113.765625 322.554688 113.34375 323.246094 C 113.429688 322.46875 113.46875 321.6875 113.484375 320.933594 C 113.546875 318.015625 111.957031 315.289062 109.34375 314 C 101.429688 310.101562 92.414062 311.582031 88.738281 316.410156 C 88.71875 316.105469 88.71875 315.792969 88.746094 315.480469 C 89.316406 307.363281 101.054688 303.722656 111.035156 308.636719 C 113.65625 309.929688 115.238281 312.652344 115.183594 315.574219 Z M 115.183594 315.574219 " fill-opacity="0.55" fill-rule="nonzero"/><path fill="#0f227a" d="M 105.777344 329.964844 C 102.234375 329.964844 97.972656 328.785156 92.75 326.382812 C 88.390625 324.378906 85.679688 319.917969 86.007812 315.285156 C 86.285156 311.425781 88.46875 308.132812 92.15625 306.011719 C 97.699219 302.832031 105.585938 302.894531 112.25 306.179688 C 115.773438 307.914062 118 311.625 117.917969 315.625 C 117.867188 318.148438 117.566406 320.21875 117.023438 321.785156 C 115.800781 325.328125 113.695312 327.757812 110.765625 329.007812 C 109.277344 329.644531 107.625 329.964844 105.777344 329.964844 Z M 101.671875 309.15625 C 98.964844 309.15625 96.578125 309.792969 94.886719 310.765625 C 93.429688 311.601562 91.652344 313.132812 91.472656 315.671875 C 91.304688 318.042969 92.738281 320.347656 95.039062 321.402344 C 101.292969 324.277344 105.863281 325.140625 108.613281 323.96875 C 110.082031 323.339844 111.140625 322.039062 111.847656 319.992188 C 111.847656 319.988281 111.847656 319.988281 111.847656 319.988281 C 112.09375 319.285156 112.394531 317.9375 112.441406 315.515625 C 112.480469 313.628906 111.453125 311.894531 109.828125 311.09375 C 107.035156 309.71875 104.210938 309.15625 101.671875 309.15625 Z M 101.671875 309.15625 " fill-opacity="1" fill-rule="nonzero"/><path fill="#0f227a" d="M 110.667969 341.183594 C 106.519531 341.183594 102.542969 340.023438 99.480469 337.742188 C 95.316406 334.648438 93.390625 329.914062 94.195312 324.753906 C 94.429688 323.257812 95.828125 322.238281 97.324219 322.46875 C 98.820312 322.703125 99.839844 324.101562 99.609375 325.597656 C 98.984375 329.605469 100.96875 332.023438 102.746094 333.347656 C 106.6875 336.277344 112.917969 336.527344 118.253906 333.972656 C 122.875 331.757812 130.722656 325.542969 131.363281 308.800781 C 131.421875 307.289062 132.714844 306.113281 134.203125 306.167969 C 135.714844 306.226562 136.894531 307.5 136.835938 309.011719 C 136.085938 328.628906 126.351562 336.167969 120.617188 338.914062 C 117.449219 340.433594 114 341.183594 110.667969 341.183594 Z M 110.667969 341.183594 " fill-opacity="1" fill-rule="nonzero"/><path fill="#0f227a" d="M 208.519531 271.949219 C 210.054688 274.558594 211.164062 277.359375 212.058594 280.257812 C 212.921875 283.164062 213.492188 286.175781 213.773438 289.242188 C 213.933594 290.777344 213.933594 292.324219 213.960938 293.878906 C 213.9375 294.65625 213.878906 295.433594 213.824219 296.210938 C 213.789062 296.601562 213.769531 296.992188 213.726562 297.382812 L 213.535156 298.539062 C 213.402344 299.3125 213.292969 300.089844 213.113281 300.851562 C 212.90625 301.613281 212.703125 302.371094 212.472656 303.121094 C 212.351562 303.496094 212.253906 303.878906 212.117188 304.246094 L 211.660156 305.335938 C 211.351562 306.0625 211.03125 306.777344 210.683594 307.480469 L 210.867188 305.988281 L 215.847656 338.042969 C 216.078125 339.539062 215.054688 340.9375 213.5625 341.171875 C 213.425781 341.191406 213.277344 341.203125 213.140625 341.203125 L 110.613281 341.203125 C 109.101562 341.203125 107.875 339.976562 107.875 338.464844 C 107.875 336.949219 109.101562 335.722656 110.613281 335.722656 L 213.140625 335.722656 L 210.433594 338.882812 L 205.457031 306.828125 C 205.382812 306.359375 205.4375 305.898438 205.589844 305.480469 L 205.644531 305.335938 L 205.644531 305.332031 C 206.355469 302.691406 207.257812 300.160156 207.761719 297.472656 L 207.992188 296.476562 L 208.164062 295.464844 C 208.273438 294.792969 208.421875 294.121094 208.527344 293.4375 C 208.703125 292.074219 208.917969 290.699219 208.976562 289.304688 C 209.175781 286.523438 209.183594 283.6875 208.972656 280.835938 C 208.777344 277.984375 208.386719 275.101562 207.804688 272.253906 L 207.796875 272.230469 C 207.753906 272.015625 207.890625 271.808594 208.105469 271.761719 C 208.269531 271.726562 208.4375 271.808594 208.519531 271.949219 Z M 208.519531 271.949219 " fill-opacity="1" fill-rule="nonzero"/><path fill="#0f227a" d="M 169.363281 340.738281 C 169.347656 340.738281 169.332031 340.738281 169.316406 340.738281 C 168.0625 340.714844 167.0625 339.671875 167.089844 338.417969 C 167.128906 336.597656 168.039062 293.679688 169.992188 280.070312 C 171.859375 267.085938 167.21875 250.179688 167.171875 250.007812 C 166.835938 248.800781 167.542969 247.546875 168.753906 247.207031 C 169.960938 246.871094 171.214844 247.578125 171.554688 248.789062 C 171.753906 249.515625 176.496094 266.777344 174.496094 280.71875 C 172.582031 294.054688 171.644531 338.070312 171.636719 338.511719 C 171.609375 339.753906 170.597656 340.738281 169.363281 340.738281 Z M 169.363281 340.738281 " fill-opacity="1" fill-rule="nonzero"/><path fill="#0f227a" d="M 262.515625 257.617188 C 262.070312 257.617188 261.617188 257.507812 261.195312 257.277344 C 259.871094 256.546875 259.390625 254.878906 260.121094 253.554688 C 264.046875 246.441406 270.617188 234.539062 282.53125 239.425781 C 283.902344 239.988281 284.578125 241.539062 284.054688 242.929688 L 281.25 250.367188 C 280.714844 251.78125 279.132812 252.496094 277.71875 251.960938 C 276.304688 251.429688 275.589844 249.847656 276.125 248.433594 L 277.863281 243.820312 C 273.035156 243.351562 269.53125 247.847656 264.917969 256.203125 C 264.417969 257.109375 263.480469 257.617188 262.515625 257.617188 Z M 262.515625 257.617188 " fill-opacity="1" fill-rule="nonzero"/><path fill="#fccfa5" d="M 271.054688 279.277344 C 265.425781 269.53125 272.003906 247.953125 283.183594 250.964844 C 297.890625 257.269531 285.761719 285.582031 271.054688 279.277344 Z M 271.054688 279.277344 " fill-opacity="1" fill-rule="nonzero"/><path fill="#0f227a" d="M 271.054688 279.28125 C 267.816406 273.675781 268.621094 264.148438 272.015625 257.644531 C 271.957031 259.359375 272.066406 261.042969 272.355469 262.625 C 273.023438 266.289062 276.46875 268.886719 280.136719 268.222656 C 284.082031 267.507812 287.507812 264.515625 289.800781 260.671875 C 290.605469 270.824219 281.480469 283.75 271.054688 279.28125 Z M 271.054688 279.28125 " fill-opacity="0.3" fill-rule="nonzero"/><path fill="#0f227a" d="M 275.296875 282.925781 C 273.570312 282.925781 271.789062 282.574219 269.976562 281.796875 C 269.433594 281.5625 268.980469 281.160156 268.683594 280.648438 C 264.53125 273.457031 265.886719 260.640625 271.582031 253.21875 C 274.953125 248.828125 279.328125 247.089844 283.898438 248.320312 C 284.023438 248.355469 284.144531 248.394531 284.265625 248.445312 C 293.160156 252.257812 294.21875 262.644531 290.667969 270.929688 C 287.839844 277.527344 282.035156 282.925781 275.296875 282.925781 Z M 273.003906 277.082031 C 275.289062 277.796875 277.5625 277.460938 279.765625 276.078125 C 282.140625 274.585938 284.28125 271.925781 285.632812 268.769531 C 286.984375 265.613281 287.4375 262.230469 286.878906 259.480469 C 286.308594 256.675781 284.765625 254.6875 282.292969 253.5625 C 280.003906 253.027344 277.863281 254.03125 275.925781 256.554688 C 271.792969 261.941406 270.488281 271.582031 273.003906 277.082031 Z M 273.003906 277.082031 " fill-opacity="1" fill-rule="nonzero"/><path fill="#0f227a" d="M 286.96875 256.371094 C 286.585938 256.371094 286.195312 256.289062 285.824219 256.121094 C 284.449219 255.488281 283.847656 253.859375 284.480469 252.484375 L 324.890625 164.582031 C 325.238281 163.832031 324.929688 162.953125 324.191406 162.585938 C 323.820312 162.402344 323.40625 162.375 323.015625 162.507812 C 322.628906 162.640625 322.316406 162.921875 322.140625 163.292969 L 283.964844 243.144531 C 283.308594 244.511719 281.675781 245.089844 280.308594 244.433594 C 278.945312 243.78125 278.367188 242.148438 279.019531 240.78125 L 317.195312 160.925781 C 318.011719 159.21875 319.449219 157.941406 321.238281 157.324219 C 323.027344 156.710938 324.945312 156.839844 326.636719 157.683594 C 330.039062 159.382812 331.457031 163.417969 329.871094 166.871094 L 289.460938 254.777344 C 288.996094 255.777344 288.003906 256.371094 286.96875 256.371094 Z M 286.96875 256.371094 " fill-opacity="1" fill-rule="nonzero"/><path fill="#0f227a" d="M 271.054688 279.28125 L 267.925781 287.757812 L 237.894531 305.261719 C 231.898438 308.761719 224.558594 309.066406 218.289062 306.085938 L 209.976562 302.125 L 211.371094 288.558594 L 227.53125 293.929688 C 229.53125 294.59375 231.730469 294.167969 233.335938 292.808594 L 259.832031 270.363281 C 261.570312 275.664062 265.640625 279.835938 271.054688 279.28125 Z M 271.054688 279.28125 " fill-opacity="0.3" fill-rule="nonzero"/><path fill="#0f227a" d="M 115.226562 324.71875 C 115.226562 324.71875 123.34375 331.042969 129.695312 325.992188 C 129.695312 325.992188 127.085938 341.617188 110.515625 338.464844 C 105.152344 337.070312 101.910156 334.144531 101.785156 328.96875 L 112.023438 328.292969 Z M 115.226562 324.71875 " fill-opacity="0.3" fill-rule="nonzero"/><path fill="#0f227a" d="M 156.738281 240.746094 C 156.738281 240.746094 144.070312 243.136719 145.242188 252.921875 L 136.109375 256.128906 C 133.183594 257.15625 130.777344 259.285156 129.402344 262.0625 L 125.695312 269.558594 L 106.726562 274.453125 L 123.097656 250.226562 L 139.964844 242.121094 C 139.964844 242.121094 144.378906 231.789062 152.738281 235.308594 Z M 156.738281 240.746094 " fill-opacity="0.3" fill-rule="nonzero"/><path fill="#0f227a" d="M 210.675781 281.46875 C 208.167969 295.753906 200.832031 304.179688 188.667969 306.746094 C 186.664062 307.167969 185.375 309.117188 185.832031 311.113281 C 186.140625 312.449219 187.171875 313.496094 188.5 313.824219 C 194.183594 315.226562 209.160156 318.914062 209.976562 319.070312 C 210.988281 319.269531 208.160156 306.410156 208.160156 306.410156 C 208.160156 306.410156 213.890625 287.707031 210.675781 281.46875 Z M 210.675781 281.46875 " fill-opacity="0.3" fill-rule="nonzero"/><path fill="#0f227a" d="M 269.097656 279.273438 L 265.1875 279.28125 C 265.1875 279.28125 261.085938 273.269531 259.003906 266.363281 C 256.914062 259.457031 262.515625 254.878906 262.515625 254.878906 C 263.035156 253.9375 263.558594 253.015625 264.089844 252.113281 C 264.089844 252.113281 263.230469 264.148438 271.054688 258.535156 C 268.402344 264.203125 267.863281 271.1875 269.097656 279.273438 Z M 269.097656 279.273438 " fill-opacity="0.3" fill-rule="nonzero"/><path fill="#ac3d50" d="M 262.589844 181.59375 C 259.960938 243.230469 193.496094 239.714844 165.535156 238.519531 C 137.8125 237.339844 71.050781 235.175781 73.675781 173.539062 C 75.773438 124.359375 101.839844 59.121094 143.453125 47.925781 C 157.785156 44.070312 168.4375 54.636719 178.976562 55.085938 C 194.746094 55.757812 202.878906 50.046875 217.179688 56.714844 C 240.191406 67.449219 264.421875 138.589844 262.589844 181.59375 Z M 262.589844 181.59375 " fill-opacity="1" fill-rule="nonzero"/><path fill="#102770" d="M 182.765625 239.433594 C 176.609375 239.433594 171.015625 239.191406 166.425781 238.996094 L 164.613281 238.917969 C 150.554688 238.324219 127.023438 237.328125 107.417969 228.832031 C 83.613281 218.519531 72.117188 199.910156 73.238281 173.523438 C 74.324219 148.089844 81.84375 119.21875 93.355469 96.292969 C 102.71875 77.652344 118.988281 54.058594 143.339844 47.507812 C 152.265625 45.105469 159.902344 48.257812 166.644531 51.035156 C 170.9375 52.808594 174.992188 54.480469 178.996094 54.652344 C 184.605469 54.890625 189.15625 54.328125 193.558594 53.785156 C 201.34375 52.820312 208.070312 51.984375 217.367188 56.320312 C 228.082031 61.320312 240.136719 80.230469 249.613281 106.910156 C 258.890625 133.027344 263.90625 160.957031 263.023438 181.613281 C 261.902344 208.007812 248.890625 225.574219 224.355469 233.816406 C 210.710938 238.402344 195.527344 239.433594 182.765625 239.433594 Z M 149.847656 47.511719 C 147.835938 47.511719 145.75 47.761719 143.566406 48.351562 C 119.527344 54.816406 103.417969 78.207031 94.136719 96.6875 C 82.679688 119.503906 75.191406 148.242188 74.113281 173.5625 C 73.003906 199.550781 84.328125 217.875 107.765625 228.027344 C 127.222656 236.460938 150.652344 237.453125 164.652344 238.046875 L 166.464844 238.121094 C 180.503906 238.722656 204 239.734375 224.078125 232.988281 C 248.234375 224.871094 261.042969 207.574219 262.152344 181.578125 L 262.589844 181.59375 L 262.152344 181.578125 C 263.015625 161.328125 257.894531 132.832031 248.789062 107.199219 C 239.390625 80.738281 227.503906 62.011719 216.996094 57.113281 C 207.929688 52.886719 201.320312 53.703125 193.667969 54.652344 C 189.4375 55.175781 184.640625 55.769531 178.960938 55.527344 C 174.804688 55.347656 170.675781 53.648438 166.3125 51.84375 C 161.125 49.707031 155.808594 47.511719 149.847656 47.511719 Z M 149.847656 47.511719 " fill-opacity="1" fill-rule="nonzero"/><path fill="#102770" d="M 167.507812 220.847656 C 141.003906 220.15625 78.832031 219.152344 74.777344 165.238281 C 74.417969 169.070312 74.1875 172.84375 74.089844 176.523438 C 72.484375 238.191406 139.273438 239.25 167.011719 239.972656 C 194.988281 240.703125 261.5 243.125 263.109375 181.457031 C 263.199219 178.117188 263.125 174.609375 262.90625 170.980469 C 255.53125 223.757812 194.109375 221.539062 167.507812 220.847656 Z M 167.507812 220.847656 " fill-opacity="0.2" fill-rule="nonzero"/><path fill="#ffffff" d="M 262.84375 174.417969 C 259.113281 131.851562 238.046875 76.238281 217.925781 66.84375 C 203.617188 60.175781 195.488281 65.886719 179.71875 65.214844 C 169.347656 64.773438 158.886719 54.558594 144.925781 57.875 C 144.949219 57.917969 144.964844 57.96875 144.988281 58.011719 C 146.128906 60.695312 142.269531 64.917969 136.363281 67.445312 C 131.285156 69.605469 126.351562 69.8125 124.335938 68.132812 C 94.398438 91 76.152344 142.867188 74.414062 183.671875 C 74.410156 183.789062 74.414062 183.910156 74.40625 184.035156 C 73.851562 179.992188 73.640625 175.632812 73.839844 170.925781 C 75.9375 121.746094 102 56.503906 143.613281 45.3125 C 157.941406 41.449219 168.601562 52.019531 179.136719 52.46875 C 194.90625 53.140625 203.046875 47.425781 217.34375 54.097656 C 239.554688 64.457031 262.910156 131.125 262.84375 174.417969 Z M 262.84375 174.417969 " fill-opacity="0.6" fill-rule="nonzero"/><path fill="#102770" d="M 182.777344 241.621094 C 176.582031 241.621094 170.953125 241.378906 166.332031 241.179688 L 164.519531 241.101562 C 150.3125 240.5 126.527344 239.492188 106.546875 230.835938 C 81.832031 220.128906 69.890625 200.8125 71.058594 173.429688 C 72.152344 147.703125 79.757812 118.5 91.402344 95.3125 C 100.964844 76.273438 117.640625 52.15625 142.773438 45.394531 C 152.414062 42.804688 160.414062 46.105469 167.476562 49.015625 C 171.585938 50.710938 175.46875 52.3125 179.089844 52.46875 C 184.519531 52.699219 188.976562 52.148438 193.289062 51.613281 C 201.074219 50.652344 208.425781 49.742188 218.289062 54.339844 C 243.070312 65.898438 267.027344 138.984375 265.207031 181.707031 C 264.039062 209.097656 250.53125 227.328125 225.050781 235.886719 C 211.121094 240.570312 195.707031 241.621094 182.777344 241.621094 Z M 149.804688 49.710938 C 147.972656 49.710938 146.089844 49.9375 144.136719 50.460938 C 125.988281 55.34375 108.925781 72.109375 96.089844 97.667969 C 84.761719 120.222656 77.363281 148.628906 76.296875 173.65625 C 75.21875 198.996094 85.792969 216.128906 108.632812 226.023438 C 127.722656 234.292969 150.894531 235.277344 164.742188 235.863281 L 166.558594 235.941406 C 180.449219 236.535156 203.691406 237.53125 223.382812 230.917969 C 246.921875 223.007812 258.886719 206.835938 259.96875 181.484375 L 262.589844 181.597656 L 259.96875 181.484375 C 260.820312 161.5 255.746094 133.316406 246.730469 107.933594 C 237.519531 82.011719 226.0625 63.753906 216.074219 59.09375 C 207.574219 55.132812 201.554688 55.878906 193.933594 56.820312 C 189.621094 57.355469 184.726562 57.957031 178.867188 57.710938 C 174.324219 57.515625 170.027344 55.742188 165.476562 53.867188 C 160.503906 51.8125 155.40625 49.710938 149.804688 49.710938 Z M 149.804688 49.710938 " fill-opacity="1" fill-rule="nonzero"/><path fill="#ffc099" d="M 233.574219 127.378906 L 231.449219 177.304688 C 230.078125 209.398438 202.964844 234.304688 170.878906 232.933594 L 163.382812 232.617188 C 131.292969 231.246094 106.390625 204.121094 107.757812 172.023438 L 109.886719 122.105469 C 110.707031 102.867188 126.960938 87.9375 146.191406 88.757812 L 200.238281 91.0625 C 219.46875 91.882812 234.394531 108.144531 233.574219 127.378906 Z M 233.574219 127.378906 " fill-opacity="1" fill-rule="nonzero"/><path fill="#102770" d="M 173.417969 235.613281 C 172.535156 235.613281 171.652344 235.59375 170.765625 235.558594 L 163.269531 235.238281 C 129.789062 233.808594 103.707031 205.402344 105.136719 171.910156 L 107.261719 121.992188 C 107.691406 111.988281 111.984375 102.75 119.359375 95.976562 C 126.730469 89.203125 136.304688 85.710938 146.300781 86.136719 L 200.351562 88.441406 C 210.351562 88.867188 219.589844 93.164062 226.359375 100.539062 C 233.132812 107.914062 236.625 117.484375 236.199219 127.488281 L 234.070312 177.414062 C 233.378906 193.636719 226.414062 208.617188 214.457031 219.597656 C 203.15625 229.984375 188.667969 235.613281 173.417969 235.613281 Z M 144.671875 91.347656 C 136.582031 91.347656 128.902344 94.335938 122.90625 99.84375 C 116.5625 105.667969 112.871094 113.613281 112.503906 122.21875 L 110.375 172.132812 C 109.070312 202.734375 132.902344 228.695312 163.496094 230 L 170.988281 230.316406 C 185.808594 230.949219 199.988281 225.773438 210.910156 215.738281 C 221.835938 205.703125 228.199219 192.015625 228.832031 177.191406 L 230.957031 127.269531 C 231.324219 118.664062 228.320312 110.433594 222.496094 104.089844 C 216.675781 97.746094 208.730469 94.050781 200.128906 93.683594 L 146.078125 91.378906 C 145.609375 91.359375 145.140625 91.347656 144.671875 91.347656 Z M 144.671875 91.347656 " fill-opacity="1" fill-rule="nonzero"/><path fill="#102770" d="M 232.359375 155.933594 C 224.382812 127.101562 208.796875 109.703125 208.148438 108.996094 C 208.46875 109.570312 213.335938 119.78125 167.082031 129.339844 C 133.15625 136.355469 115.761719 147.394531 108.5625 153.171875 L 109.816406 123.753906 C 110.636719 104.511719 126.886719 89.585938 146.121094 90.40625 L 200.167969 92.710938 C 219.40625 93.53125 234.324219 109.785156 233.507812 129.027344 Z M 232.359375 155.933594 " fill-opacity="0.2" fill-rule="nonzero"/><path fill="#ac3d50" d="M 239.414062 114.628906 C 240.722656 83.980469 211.539062 72.128906 174.167969 70.535156 C 136.800781 68.941406 104.917969 84.730469 103.050781 116.839844 C 101.183594 148.945312 103.679688 148.898438 103.679688 148.898438 L 108.972656 143.523438 C 108.855469 147.03125 108.945312 149.125 108.945312 149.125 C 108.90625 146.976562 110.402344 144.570312 113.175781 142.066406 C 121.496094 134.558594 141.300781 126.195312 165.617188 121.421875 C 198.042969 115.054688 205.019531 97.398438 205.019531 97.398438 C 226.011719 103.785156 231.21875 151.964844 231.21875 151.964844 L 232.835938 145.066406 C 234.980469 144.535156 235.296875 159.660156 235.8125 158.175781 C 239.773438 146.765625 238.261719 141.753906 239.414062 114.628906 Z M 239.414062 114.628906 " fill-opacity="1" fill-rule="nonzero"/><path fill="#102770" d="M 232.425781 157.011719 C 231.125 157.011719 229.996094 156.042969 229.828125 154.71875 C 228.171875 141.695312 220.800781 107.808594 206.25 100.699219 C 203.082031 105.988281 192.878906 118.742188 166.125 123.996094 C 140.511719 129.023438 121.960938 137.671875 114.933594 144.015625 C 112.769531 145.964844 111.546875 147.808594 111.566406 149.078125 C 111.59375 150.527344 110.441406 151.722656 108.992188 151.746094 C 107.539062 151.785156 106.347656 150.621094 106.324219 149.171875 C 106.273438 146.261719 107.988281 143.21875 111.417969 140.121094 C 120.648438 131.789062 141.722656 123.441406 165.113281 118.847656 C 195.515625 112.878906 202.519531 96.582031 202.585938 96.417969 C 203.101562 95.167969 204.488281 94.496094 205.78125 94.890625 C 228.140625 101.691406 234.757812 151.925781 235.027344 154.058594 C 235.210938 155.496094 234.195312 156.808594 232.757812 156.992188 C 232.644531 157.003906 232.535156 157.011719 232.425781 157.011719 Z M 232.425781 157.011719 " fill-opacity="1" fill-rule="nonzero"/><path fill="#102770" d="M 177.421875 217.839844 L 154.53125 216.671875 C 126.703125 215.253906 107.214844 187.464844 108.632812 159.628906 L 107.726562 177.46875 C 106.308594 205.304688 132.933594 226.902344 155.539062 230.429688 L 178.429688 231.59375 C 202.085938 231.875 229.953125 211.601562 231.367188 183.773438 L 232.277344 165.9375 C 230.859375 193.761719 205.242188 219.253906 177.421875 217.839844 Z M 177.421875 217.839844 " fill-opacity="0.2" fill-rule="nonzero"/><path fill="#102770" d="M 129.257812 148.761719 C 129.914062 147.6875 130.703125 146.804688 131.582031 145.96875 C 132.464844 145.140625 133.433594 144.398438 134.488281 143.761719 C 136.59375 142.5 139.085938 141.632812 141.753906 141.582031 C 143.082031 141.558594 144.441406 141.726562 145.722656 142.164062 C 147 142.59375 148.1875 143.238281 149.21875 144.035156 C 151.246094 145.671875 152.652344 147.792969 153.453125 150.035156 C 153.589844 150.421875 153.386719 150.84375 153 150.984375 C 152.730469 151.078125 152.4375 151.007812 152.242188 150.824219 L 152.234375 150.8125 C 150.601562 149.261719 148.96875 147.921875 147.25 147.027344 C 145.515625 146.183594 143.75 145.773438 141.890625 145.890625 C 140.039062 145.992188 138.125 146.503906 136.191406 147.226562 C 134.253906 147.9375 132.289062 148.882812 130.257812 149.808594 L 130.207031 149.832031 C 129.832031 150.003906 129.386719 149.835938 129.21875 149.460938 C 129.109375 149.230469 129.136719 148.964844 129.257812 148.761719 Z M 129.257812 148.761719 " fill-opacity="1" fill-rule="nonzero"/><path fill="#102770" d="M 216.921875 154.085938 C 214.988281 152.964844 213.125 151.832031 211.269531 150.933594 C 209.414062 150.023438 207.5625 149.324219 205.730469 149.042969 C 203.890625 148.742188 202.09375 148.976562 200.285156 149.648438 C 198.488281 150.367188 196.730469 151.542969 194.953125 152.921875 L 194.941406 152.929688 C 194.621094 153.183594 194.152344 153.125 193.902344 152.800781 C 193.722656 152.574219 193.703125 152.273438 193.816406 152.027344 C 194.832031 149.875 196.4375 147.90625 198.621094 146.472656 C 199.726562 145.78125 200.96875 145.257812 202.285156 144.957031 C 203.601562 144.648438 204.972656 144.613281 206.289062 144.769531 C 208.941406 145.082031 211.335938 146.191406 213.304688 147.652344 C 214.292969 148.390625 215.1875 149.226562 215.980469 150.132812 C 216.773438 151.054688 217.46875 152.007812 218.015625 153.144531 C 218.195312 153.515625 218.042969 153.960938 217.667969 154.140625 C 217.441406 154.253906 217.179688 154.234375 216.972656 154.117188 Z M 216.921875 154.085938 " fill-opacity="1" fill-rule="nonzero"/><path fill="#102770" d="M 180.417969 202.171875 C 178.398438 205.566406 175.105469 208.277344 169.742188 208.015625 C 164.546875 207.757812 161.566406 204.910156 159.859375 201.480469 C 157.09375 195.9375 157.679688 188.882812 157.679688 188.882812 C 157.679688 188.882812 173.601562 195.292969 183.636719 190.164062 C 183.636719 190.164062 183.53125 196.964844 180.417969 202.171875 Z M 180.417969 202.171875 " fill-opacity="1" fill-rule="nonzero"/><path fill="#ff457d" d="M 180.417969 202.171875 C 178.398438 205.566406 175.105469 208.277344 169.742188 208.015625 C 164.546875 207.757812 161.566406 204.910156 159.859375 201.480469 C 162.539062 199.636719 166.347656 198.582031 170.515625 198.789062 C 174.449219 198.984375 177.949219 200.261719 180.417969 202.171875 Z M 180.417969 202.171875 " fill-opacity="1" fill-rule="nonzero"/><path fill="#102770" d="M 170.464844 209.894531 C 170.199219 209.894531 169.929688 209.886719 169.652344 209.871094 C 165.816406 209.683594 162.683594 208.226562 160.335938 205.546875 C 155.003906 199.453125 155.789062 189.167969 155.828125 188.734375 C 155.875 188.144531 156.199219 187.617188 156.703125 187.304688 C 157.203125 186.996094 157.824219 186.945312 158.371094 187.164062 C 158.523438 187.222656 173.636719 193.191406 182.792969 188.515625 C 183.371094 188.21875 184.066406 188.246094 184.621094 188.589844 C 185.171875 188.9375 185.503906 189.546875 185.496094 190.199219 C 185.488281 190.636719 185.257812 200.949219 179.355469 206.484375 C 176.941406 208.746094 173.953125 209.894531 170.464844 209.894531 Z M 159.503906 191.503906 C 159.605469 194.566406 160.234375 199.796875 163.136719 203.105469 C 164.820312 205.019531 167.011719 206.019531 169.835938 206.160156 C 172.664062 206.296875 174.941406 205.519531 176.804688 203.777344 C 179.875 200.90625 181.054688 196.089844 181.503906 193.015625 C 173.601562 195.40625 163.992188 192.953125 159.503906 191.503906 Z M 159.503906 191.503906 " fill-opacity="1" fill-rule="nonzero"/><path fill="#102770" d="M 142.5625 155.839844 C 139.191406 155.671875 136.125 158.195312 134.429688 162.054688 C 134.347656 162.089844 134.265625 162.132812 134.183594 162.160156 C 133.675781 162.390625 133.152344 162.480469 132.5625 162.558594 C 131.386719 162.691406 129.964844 162.429688 128.332031 161.886719 C 128.835938 163.558594 130.226562 164.96875 132.121094 165.542969 C 132.507812 165.65625 132.914062 165.726562 133.324219 165.765625 C 133.199219 166.488281 133.105469 167.230469 133.066406 167.992188 C 132.722656 174.949219 136.417969 180.78125 141.320312 181.023438 C 146.21875 181.265625 150.472656 175.824219 150.816406 168.871094 C 151.15625 161.914062 147.464844 156.082031 142.5625 155.839844 Z M 142.5625 155.839844 " fill-opacity="1" fill-rule="nonzero"/><path fill="#ffffff" d="M 144.230469 162.289062 C 144.546875 162.304688 144.847656 162.417969 145.132812 162.621094 C 145.414062 162.828125 145.660156 163.113281 145.867188 163.476562 C 146.074219 163.84375 146.226562 164.257812 146.324219 164.726562 C 146.421875 165.195312 146.460938 165.679688 146.433594 166.179688 C 146.410156 166.679688 146.324219 167.15625 146.183594 167.613281 C 146.039062 168.070312 145.84375 168.46875 145.601562 168.808594 C 145.363281 169.152344 145.089844 169.414062 144.789062 169.589844 C 144.484375 169.765625 144.175781 169.847656 143.859375 169.832031 C 143.542969 169.816406 143.242188 169.703125 142.957031 169.5 C 142.675781 169.292969 142.429688 169.007812 142.222656 168.644531 C 142.015625 168.277344 141.863281 167.863281 141.765625 167.394531 C 141.667969 166.925781 141.628906 166.441406 141.652344 165.941406 C 141.679688 165.441406 141.761719 164.964844 141.90625 164.507812 C 142.050781 164.054688 142.242188 163.652344 142.484375 163.3125 C 142.726562 162.96875 143 162.710938 143.300781 162.53125 C 143.605469 162.355469 143.914062 162.273438 144.230469 162.289062 Z M 144.230469 162.289062 " fill-opacity="1" fill-rule="nonzero"/><path fill="#102770" d="M 203.121094 158.828125 C 206.492188 158.992188 209.292969 161.808594 210.601562 165.8125 C 210.679688 165.859375 210.757812 165.910156 210.835938 165.945312 C 211.316406 166.226562 211.832031 166.363281 212.40625 166.5 C 213.570312 166.75 215.007812 166.628906 216.6875 166.246094 C 216.023438 167.859375 214.5 169.128906 212.554688 169.511719 C 212.160156 169.585938 211.75 169.617188 211.335938 169.613281 C 211.390625 170.34375 211.410156 171.09375 211.371094 171.855469 C 211.027344 178.8125 206.777344 184.253906 201.878906 184.011719 C 196.976562 183.769531 193.28125 177.933594 193.625 170.980469 C 193.96875 164.027344 198.21875 158.585938 203.121094 158.828125 Z M 203.121094 158.828125 " fill-opacity="1" fill-rule="nonzero"/><path fill="#ffffff" d="M 200.835938 165.082031 C 201.152344 165.097656 201.453125 165.210938 201.738281 165.414062 C 202.019531 165.621094 202.265625 165.90625 202.472656 166.269531 C 202.679688 166.636719 202.832031 167.050781 202.929688 167.519531 C 203.027344 167.988281 203.066406 168.472656 203.039062 168.972656 C 203.015625 169.472656 202.929688 169.949219 202.785156 170.40625 C 202.644531 170.863281 202.449219 171.261719 202.207031 171.605469 C 201.96875 171.945312 201.695312 172.207031 201.390625 172.382812 C 201.089844 172.558594 200.78125 172.640625 200.464844 172.625 C 200.144531 172.609375 199.847656 172.496094 199.5625 172.292969 C 199.28125 172.085938 199.035156 171.800781 198.828125 171.4375 C 198.621094 171.070312 198.46875 170.65625 198.371094 170.1875 C 198.269531 169.71875 198.234375 169.234375 198.257812 168.734375 C 198.285156 168.234375 198.367188 167.757812 198.511719 167.300781 C 198.65625 166.847656 198.847656 166.445312 199.089844 166.105469 C 199.332031 165.761719 199.605469 165.503906 199.90625 165.324219 C 200.207031 165.148438 200.519531 165.066406 200.835938 165.082031 Z M 200.835938 165.082031 " fill-opacity="1" fill-rule="nonzero"/><g clip-path="url(#408e50ae82)"><path fill="#0f227a" d="M 59.101562 338.855469 C 63.652344 337.675781 68.199219 337.363281 72.746094 337.238281 C 77.296875 337.074219 81.84375 337.160156 86.394531 337.25 C 90.941406 337.347656 95.488281 337.324219 100.039062 337.328125 L 250.136719 337.328125 L 256.957031 337.324219 C 259.234375 337.328125 261.507812 337.222656 263.78125 337.171875 C 266.054688 337.125 268.328125 337.199219 270.605469 337.390625 C 272.878906 337.617188 275.152344 337.996094 277.425781 338.855469 C 277.847656 339.015625 278.0625 339.484375 277.902344 339.90625 C 277.816406 340.132812 277.636719 340.300781 277.425781 340.382812 C 275.152344 341.238281 272.878906 341.617188 270.605469 341.84375 C 268.328125 342.039062 266.054688 342.113281 263.78125 342.066406 C 261.507812 342.015625 259.234375 341.910156 256.957031 341.914062 L 250.136719 341.910156 L 100.039062 341.910156 C 95.488281 341.914062 90.941406 341.890625 86.394531 341.984375 C 81.84375 342.074219 77.296875 342.164062 72.746094 342 C 68.199219 341.875 63.652344 341.5625 59.101562 340.382812 C 58.679688 340.273438 58.425781 339.84375 58.535156 339.421875 C 58.609375 339.132812 58.835938 338.925781 59.101562 338.855469 Z M 59.101562 338.855469 " fill-opacity="1" fill-rule="nonzero"/></g><path fill="#41e53c" d="M 220.261719 302.558594 C 226.601562 301.769531 232.171875 296.015625 233.707031 289.902344 C 234.179688 288.03125 232.335938 286.410156 230.53125 287.097656 C 223.523438 289.78125 219.4375 295.90625 220.261719 302.558594 Z M 220.261719 302.558594 " fill-opacity="1" fill-rule="nonzero"/><path fill="#ffffff" d="M 234.089844 287.597656 C 226.308594 289.605469 221.40625 295.578125 221.550781 302.324219 C 221.121094 302.421875 220.695312 302.5 220.261719 302.554688 C 219.300781 294.84375 224.953125 287.832031 234.113281 286.082031 C 234.136719 286.582031 234.128906 287.089844 234.089844 287.597656 Z M 234.089844 287.597656 " fill-opacity="0.55" fill-rule="nonzero"/><path fill="#102770" d="M 220.261719 303.648438 C 220.019531 303.648438 219.785156 303.566406 219.59375 303.417969 C 219.363281 303.238281 219.21875 302.980469 219.179688 302.691406 C 218.210938 294.875 223.554688 287.773438 232.175781 285.417969 C 232.917969 285.214844 233.71875 285.394531 234.3125 285.894531 C 234.910156 286.398438 235.222656 287.167969 235.148438 287.941406 C 234.414062 295.546875 227.660156 302.734375 220.394531 303.636719 C 220.351562 303.644531 220.304688 303.648438 220.261719 303.648438 Z M 232.796875 287.511719 C 232.78125 287.511719 232.765625 287.515625 232.75 287.515625 C 225.632812 289.460938 221.054688 295.019531 221.25 301.277344 C 227.050781 299.925781 232.390625 293.886719 232.984375 287.734375 C 232.996094 287.640625 232.941406 287.582031 232.910156 287.554688 C 232.875 287.527344 232.835938 287.511719 232.796875 287.511719 Z M 232.796875 287.511719 " fill-opacity="1" fill-rule="nonzero"/><path fill="#102770" d="M 219.632812 303.492188 C 220.140625 302.226562 220.707031 300.980469 221.328125 299.753906 C 221.964844 298.539062 222.636719 297.328125 223.4375 296.195312 C 224.234375 295.058594 225.105469 293.964844 226.113281 293.011719 C 227.109375 292.046875 228.222656 291.203125 229.40625 290.511719 C 229.476562 290.472656 229.570312 290.496094 229.613281 290.566406 C 229.652344 290.632812 229.636719 290.71875 229.578125 290.761719 C 228.527344 291.617188 227.558594 292.542969 226.695312 293.558594 C 225.835938 294.578125 225.0625 295.660156 224.382812 296.804688 C 223.707031 297.953125 223.078125 299.128906 222.5 300.34375 L 220.746094 303.988281 C 220.597656 304.289062 220.234375 304.417969 219.933594 304.269531 C 219.644531 304.132812 219.515625 303.792969 219.632812 303.5 Z M 219.632812 303.492188 " fill-opacity="1" fill-rule="nonzero"/><path fill="#f6404f" d="M 238.628906 321.902344 C 236.402344 330.050781 231.816406 341.230469 222.609375 338.628906 C 220.679688 338.085938 218.644531 338.089844 216.714844 338.648438 C 207.527344 341.316406 202.863281 330.167969 200.578125 322.039062 C 197.601562 309.84375 204.222656 302.007812 214.265625 303.261719 C 217.875 303.710938 221.523438 303.683594 225.152344 303.40625 C 235.4375 302.632812 241.476562 309.855469 238.628906 321.902344 Z M 238.628906 321.902344 " fill-opacity="1" fill-rule="nonzero"/><path fill="#102770" d="M 214.023438 339.414062 C 212.539062 339.414062 211.125 339.046875 209.796875 338.308594 C 205.84375 336.109375 202.625 330.667969 200.226562 322.136719 C 198.675781 315.792969 199.59375 310.320312 202.804688 306.710938 C 205.515625 303.667969 209.605469 302.316406 214.3125 302.902344 C 217.539062 303.304688 221.074219 303.351562 225.121094 303.046875 C 230.023438 302.679688 234.140625 304.128906 236.707031 307.136719 C 239.628906 310.558594 240.4375 315.832031 238.980469 321.988281 L 238.976562 322 C 236.640625 330.546875 233.460938 336.011719 229.523438 338.238281 C 227.390625 339.441406 225.03125 339.691406 222.511719 338.980469 C 220.644531 338.453125 218.679688 338.460938 216.816406 339 C 215.863281 339.277344 214.929688 339.414062 214.023438 339.414062 Z M 212.203125 303.496094 C 208.601562 303.496094 205.503906 304.777344 203.351562 307.195312 C 200.300781 310.617188 199.441406 315.859375 200.929688 321.953125 C 203.269531 330.277344 206.375 335.570312 210.148438 337.667969 C 212.113281 338.761719 214.289062 338.972656 216.613281 338.300781 C 218.605469 337.722656 220.710938 337.714844 222.707031 338.28125 C 225.035156 338.9375 227.207031 338.710938 229.164062 337.601562 C 232.929688 335.476562 235.992188 330.164062 238.273438 321.8125 C 239.671875 315.894531 238.921875 310.847656 236.15625 307.605469 C 233.707031 304.742188 229.914062 303.414062 225.175781 303.773438 C 221.078125 304.082031 217.496094 304.03125 214.222656 303.625 C 213.535156 303.539062 212.859375 303.496094 212.203125 303.496094 Z M 212.203125 303.496094 " fill-opacity="1" fill-rule="nonzero"/><path fill="#f6404f" d="M 238.628906 321.902344 C 236.402344 330.050781 231.816406 341.230469 222.609375 338.628906 C 220.679688 338.085938 218.644531 338.089844 216.714844 338.648438 C 207.527344 341.316406 202.863281 330.167969 200.578125 322.039062 C 197.601562 309.84375 204.222656 302.007812 214.265625 303.261719 C 217.875 303.710938 221.523438 303.683594 225.152344 303.40625 C 235.4375 302.632812 241.476562 309.855469 238.628906 321.902344 Z M 238.628906 321.902344 " fill-opacity="1" fill-rule="nonzero"/><path fill="#102770" d="M 214.023438 339.414062 C 212.539062 339.414062 211.125 339.046875 209.796875 338.308594 C 205.84375 336.109375 202.625 330.667969 200.226562 322.136719 C 198.675781 315.792969 199.59375 310.320312 202.804688 306.710938 C 205.515625 303.667969 209.605469 302.316406 214.3125 302.902344 C 217.539062 303.304688 221.074219 303.351562 225.121094 303.046875 C 230.023438 302.679688 234.140625 304.128906 236.707031 307.136719 C 239.628906 310.558594 240.4375 315.832031 238.980469 321.988281 L 238.976562 322 C 236.640625 330.546875 233.460938 336.011719 229.523438 338.238281 C 227.390625 339.441406 225.03125 339.691406 222.511719 338.980469 C 220.644531 338.453125 218.679688 338.460938 216.816406 339 C 215.863281 339.277344 214.929688 339.414062 214.023438 339.414062 Z M 212.203125 303.496094 C 208.601562 303.496094 205.503906 304.777344 203.351562 307.195312 C 200.300781 310.617188 199.441406 315.859375 200.929688 321.953125 C 203.269531 330.277344 206.375 335.570312 210.148438 337.667969 C 212.113281 338.761719 214.289062 338.972656 216.613281 338.300781 C 218.605469 337.722656 220.710938 337.714844 222.707031 338.28125 C 225.035156 338.9375 227.207031 338.710938 229.164062 337.601562 C 232.929688 335.476562 235.992188 330.164062 238.273438 321.8125 C 239.671875 315.894531 238.921875 310.847656 236.15625 307.605469 C 233.707031 304.742188 229.914062 303.414062 225.175781 303.773438 C 221.078125 304.082031 217.496094 304.03125 214.222656 303.625 C 213.535156 303.539062 212.859375 303.496094 212.203125 303.496094 Z M 212.203125 303.496094 " fill-opacity="1" fill-rule="nonzero"/><path fill="#ec1c24" d="M 239.332031 316.265625 C 239.332031 318 239.105469 319.882812 238.628906 321.902344 C 238.53125 322.261719 238.429688 322.625 238.320312 322.992188 C 238.289062 323.097656 238.261719 323.199219 238.226562 323.300781 C 238.207031 323.382812 238.183594 323.464844 238.15625 323.542969 C 238.125 323.65625 238.089844 323.765625 238.054688 323.878906 C 238.019531 323.992188 237.984375 324.105469 237.949219 324.214844 C 237.914062 324.328125 237.878906 324.441406 237.84375 324.554688 C 235.382812 332.246094 230.847656 340.953125 222.609375 338.628906 C 220.675781 338.082031 218.640625 338.089844 216.714844 338.648438 C 210.210938 340.535156 205.972656 335.5 203.242188 329.515625 C 203.242188 329.511719 203.242188 329.511719 203.242188 329.511719 C 202.113281 327.042969 201.246094 324.410156 200.578125 322.039062 C 197.597656 309.84375 204.222656 302.007812 214.265625 303.261719 C 217.875 303.710938 221.523438 303.679688 225.148438 303.40625 C 229.09375 303.109375 232.417969 303.988281 234.851562 305.867188 C 234.898438 305.902344 234.941406 305.933594 234.984375 305.972656 C 235.011719 305.992188 235.039062 306.015625 235.070312 306.039062 C 235.101562 306.0625 235.132812 306.089844 235.164062 306.117188 C 235.191406 306.140625 235.21875 306.160156 235.246094 306.183594 C 235.289062 306.222656 235.335938 306.261719 235.375 306.296875 C 235.417969 306.332031 235.460938 306.371094 235.5 306.40625 C 235.542969 306.445312 235.585938 306.488281 235.628906 306.527344 C 235.660156 306.554688 235.6875 306.582031 235.71875 306.613281 C 235.769531 306.660156 235.816406 306.707031 235.863281 306.753906 C 235.894531 306.785156 235.921875 306.8125 235.949219 306.84375 C 236 306.894531 236.050781 306.945312 236.101562 306.996094 C 236.15625 307.058594 236.214844 307.121094 236.269531 307.183594 C 236.585938 307.539062 236.882812 307.917969 237.15625 308.320312 C 237.179688 308.351562 237.195312 308.378906 237.214844 308.410156 C 237.257812 308.472656 237.300781 308.539062 237.34375 308.605469 C 237.347656 308.609375 237.347656 308.613281 237.351562 308.621094 C 237.398438 308.691406 237.445312 308.769531 237.492188 308.84375 C 237.535156 308.921875 237.582031 309 237.625 309.078125 C 237.644531 309.113281 237.664062 309.148438 237.683594 309.183594 C 237.6875 309.1875 237.691406 309.195312 237.695312 309.203125 C 237.734375 309.269531 237.769531 309.339844 237.804688 309.40625 C 237.851562 309.492188 237.894531 309.578125 237.9375 309.667969 C 237.941406 309.671875 237.941406 309.675781 237.945312 309.679688 C 237.976562 309.75 238.011719 309.820312 238.042969 309.890625 C 238.058594 309.921875 238.074219 309.953125 238.089844 309.988281 C 238.097656 310.003906 238.105469 310.019531 238.109375 310.035156 C 238.140625 310.097656 238.167969 310.160156 238.195312 310.226562 C 238.234375 310.3125 238.269531 310.398438 238.304688 310.484375 C 238.324219 310.53125 238.339844 310.578125 238.359375 310.625 C 238.382812 310.6875 238.40625 310.753906 238.433594 310.820312 C 238.445312 310.84375 238.453125 310.871094 238.460938 310.898438 C 238.484375 310.960938 238.507812 311.03125 238.53125 311.09375 C 238.558594 311.175781 238.585938 311.257812 238.613281 311.339844 C 238.628906 311.390625 238.644531 311.441406 238.660156 311.492188 C 238.664062 311.5 238.667969 311.507812 238.667969 311.515625 C 238.691406 311.59375 238.714844 311.671875 238.738281 311.75 C 238.796875 311.953125 238.851562 312.160156 238.902344 312.371094 C 238.90625 312.386719 238.910156 312.40625 238.914062 312.425781 C 238.9375 312.519531 238.957031 312.609375 238.976562 312.703125 C 238.980469 312.734375 238.988281 312.769531 238.996094 312.804688 C 239.011719 312.882812 239.027344 312.960938 239.042969 313.039062 C 239.042969 313.050781 239.046875 313.058594 239.046875 313.070312 C 239.066406 313.164062 239.082031 313.257812 239.097656 313.355469 C 239.101562 313.375 239.105469 313.394531 239.109375 313.417969 C 239.121094 313.5 239.136719 313.582031 239.148438 313.664062 C 239.152344 313.699219 239.160156 313.734375 239.164062 313.773438 C 239.164062 313.78125 239.164062 313.785156 239.167969 313.792969 C 239.179688 313.886719 239.191406 313.980469 239.203125 314.078125 C 239.214844 314.175781 239.226562 314.273438 239.234375 314.375 C 239.238281 314.402344 239.242188 314.433594 239.246094 314.464844 C 239.253906 314.539062 239.257812 314.609375 239.265625 314.683594 C 239.269531 314.753906 239.277344 314.828125 239.28125 314.902344 C 239.289062 314.957031 239.289062 315.015625 239.292969 315.070312 C 239.296875 315.113281 239.300781 315.15625 239.300781 315.199219 C 239.308594 315.304688 239.3125 315.410156 239.316406 315.515625 C 239.320312 315.621094 239.324219 315.726562 239.328125 315.835938 C 239.328125 315.863281 239.328125 315.894531 239.328125 315.929688 C 239.332031 316.039062 239.332031 316.152344 239.332031 316.265625 Z M 239.332031 316.265625 " fill-opacity="1" fill-rule="nonzero"/><path fill="#ffffff" d="M 237.445312 308.777344 C 237.414062 308.753906 237.390625 308.730469 237.359375 308.714844 C 237.320312 308.675781 237.273438 308.644531 237.226562 308.605469 C 234.796875 306.726562 231.46875 305.847656 227.527344 306.148438 C 223.902344 306.417969 220.25 306.453125 216.640625 306 C 206.59375 304.75 199.976562 312.582031 202.953125 324.777344 C 203.617188 327.152344 204.488281 329.78125 205.613281 332.25 C 205.613281 332.25 205.613281 332.25 205.621094 332.25 C 206.324219 333.796875 207.132812 335.285156 208.050781 336.597656 C 206.078125 334.832031 204.496094 332.273438 203.246094 329.519531 C 203.238281 329.511719 203.238281 329.511719 203.238281 329.511719 C 202.113281 327.046875 201.242188 324.410156 200.578125 322.042969 C 197.601562 309.847656 204.21875 302.007812 214.265625 303.257812 C 217.875 303.710938 221.527344 303.679688 225.152344 303.410156 C 229.09375 303.109375 232.417969 303.988281 234.851562 305.871094 C 234.898438 305.902344 234.945312 305.933594 234.984375 305.976562 C 235.015625 306 235.039062 306.015625 235.070312 306.039062 C 235.105469 306.070312 235.136719 306.09375 235.167969 306.117188 C 235.191406 306.140625 235.222656 306.167969 235.246094 306.191406 C 235.292969 306.230469 235.335938 306.261719 235.375 306.300781 C 235.421875 306.339844 235.460938 306.371094 235.5 306.410156 C 235.539062 306.449219 235.585938 306.492188 235.625 306.527344 C 235.65625 306.554688 235.6875 306.585938 235.722656 306.617188 C 235.769531 306.664062 235.816406 306.710938 235.863281 306.757812 C 235.894531 306.78125 235.917969 306.816406 235.949219 306.847656 C 236 306.894531 236.046875 306.949219 236.101562 306.996094 C 236.15625 307.058594 236.210938 307.121094 236.265625 307.179688 C 236.585938 307.542969 236.882812 307.921875 237.152344 308.320312 C 237.175781 308.351562 237.195312 308.382812 237.21875 308.40625 C 237.257812 308.480469 237.296875 308.542969 237.34375 308.605469 C 237.34375 308.613281 237.351562 308.613281 237.351562 308.621094 C 237.382812 308.667969 237.421875 308.722656 237.445312 308.777344 Z M 237.445312 308.777344 " fill-opacity="0.55" fill-rule="nonzero"/><g mask="url(#768c355a1a)"><g transform="matrix(1, 0, 0, 1, 202, 304)"><g clip-path="url(#e1bf210e63)"><g clip-path="url(#11f044c8de)"><path fill="#262f6a" d="M 37.332031 12.265625 C 37.332031 14 37.105469 15.882812 36.628906 17.902344 C 36.53125 18.261719 36.429688 18.625 36.320312 18.992188 C 36.289062 19.097656 36.261719 19.199219 36.226562 19.300781 C 36.207031 19.382812 36.183594 19.464844 36.15625 19.542969 C 36.125 19.65625 36.089844 19.765625 36.054688 19.878906 C 36.019531 19.992188 35.984375 20.105469 35.949219 20.214844 C 35.914062 20.328125 35.878906 20.441406 35.84375 20.554688 C 33.382812 28.246094 28.847656 36.953125 20.609375 34.628906 C 18.675781 34.082031 16.640625 34.089844 14.714844 34.648438 C 8.210938 36.535156 3.972656 31.5 1.242188 25.515625 C 1.242188 25.511719 1.242188 25.511719 1.242188 25.511719 C 8.15625 31.785156 26.761719 32.761719 32.695312 17.09375 C 32.695312 17.09375 32.699219 17.09375 32.699219 17.089844 C 33.023438 16.089844 33.3125 15.101562 33.570312 14.15625 C 34.757812 9.152344 34.40625 4.980469 32.855469 1.867188 C 32.898438 1.902344 32.941406 1.9375 32.988281 1.972656 C 33.015625 1.996094 33.042969 2.015625 33.070312 2.039062 C 33.101562 2.066406 33.132812 2.089844 33.167969 2.117188 C 33.195312 2.140625 33.21875 2.164062 33.246094 2.183594 C 33.292969 2.222656 33.335938 2.261719 33.378906 2.300781 C 33.417969 2.335938 33.460938 2.371094 33.5 2.410156 C 33.542969 2.445312 33.589844 2.488281 33.632812 2.527344 C 33.660156 2.554688 33.691406 2.585938 33.722656 2.613281 C 33.769531 2.660156 33.820312 2.707031 33.867188 2.757812 C 33.894531 2.785156 33.921875 2.816406 33.953125 2.84375 C 34.003906 2.894531 34.050781 2.945312 34.101562 2.996094 C 34.15625 3.058594 34.214844 3.121094 34.269531 3.183594 C 34.589844 3.539062 34.886719 3.921875 35.160156 4.324219 C 35.179688 4.351562 35.199219 4.378906 35.21875 4.410156 C 35.261719 4.476562 35.304688 4.542969 35.34375 4.605469 C 35.347656 4.613281 35.351562 4.617188 35.351562 4.621094 C 35.398438 4.695312 35.445312 4.769531 35.492188 4.84375 C 35.539062 4.921875 35.582031 5 35.628906 5.078125 C 35.648438 5.113281 35.667969 5.148438 35.683594 5.183594 C 35.691406 5.191406 35.691406 5.199219 35.695312 5.203125 C 35.734375 5.269531 35.769531 5.339844 35.804688 5.40625 C 35.851562 5.496094 35.894531 5.582031 35.941406 5.667969 C 35.941406 5.675781 35.945312 5.679688 35.945312 5.683594 C 35.980469 5.75 36.011719 5.820312 36.046875 5.890625 C 36.0625 5.921875 36.074219 5.957031 36.089844 5.988281 C 36.097656 6.003906 36.105469 6.019531 36.113281 6.035156 C 36.140625 6.097656 36.167969 6.164062 36.199219 6.226562 C 36.234375 6.3125 36.269531 6.398438 36.304688 6.488281 C 36.324219 6.53125 36.34375 6.578125 36.359375 6.625 C 36.382812 6.6875 36.410156 6.753906 36.433594 6.820312 C 36.445312 6.847656 36.453125 6.871094 36.460938 6.898438 C 36.488281 6.964844 36.507812 7.03125 36.53125 7.09375 C 36.558594 7.175781 36.585938 7.257812 36.613281 7.339844 C 36.632812 7.390625 36.648438 7.445312 36.664062 7.496094 C 36.664062 7.5 36.667969 7.507812 36.667969 7.519531 C 36.695312 7.59375 36.714844 7.671875 36.738281 7.75 C 36.796875 7.953125 36.851562 8.160156 36.902344 8.371094 C 36.90625 8.390625 36.910156 8.410156 36.914062 8.425781 C 36.9375 8.519531 36.957031 8.613281 36.976562 8.703125 C 36.984375 8.738281 36.992188 8.769531 36.996094 8.804688 C 37.011719 8.882812 37.027344 8.960938 37.042969 9.039062 C 37.046875 9.050781 37.046875 9.0625 37.050781 9.070312 C 37.066406 9.164062 37.082031 9.261719 37.097656 9.355469 C 37.105469 9.375 37.109375 9.398438 37.109375 9.417969 C 37.125 9.5 37.136719 9.582031 37.148438 9.664062 C 37.152344 9.699219 37.160156 9.738281 37.164062 9.773438 C 37.164062 9.78125 37.167969 9.789062 37.167969 9.792969 C 37.179688 9.890625 37.191406 9.980469 37.203125 10.078125 C 37.214844 10.175781 37.226562 10.277344 37.238281 10.375 C 37.242188 10.40625 37.242188 10.433594 37.246094 10.464844 C 37.253906 10.539062 37.261719 10.609375 37.265625 10.683594 C 37.273438 10.753906 37.277344 10.828125 37.285156 10.902344 C 37.289062 10.957031 37.292969 11.015625 37.296875 11.070312 C 37.296875 11.113281 37.300781 11.15625 37.304688 11.199219 C 37.308594 11.304688 37.3125 11.410156 37.316406 11.519531 C 37.324219 11.625 37.324219 11.726562 37.328125 11.835938 C 37.328125 11.867188 37.328125 11.898438 37.328125 11.929688 C 37.332031 12.039062 37.332031 12.152344 37.332031 12.265625 Z M 37.332031 12.265625 " fill-opacity="1" fill-rule="nonzero"/></g><g clip-path="url(#b6b7cb590d)"><path fill="#102770" d="M 11.988281 35.421875 C 7.589844 35.421875 3.871094 32.15625 0.914062 25.667969 L 0.878906 25.59375 L 0.878906 24.691406 L 1.488281 25.242188 C 5.429688 28.820312 12.847656 30.324219 19.117188 28.816406 C 23.5 27.761719 29.339844 24.863281 32.332031 17.027344 L 32.332031 16.949219 L 32.378906 16.902344 C 32.664062 16.011719 32.949219 15.054688 33.222656 14.0625 C 34.339844 9.34375 34.101562 5.179688 32.527344 2.03125 L 31.820312 0.613281 L 33.746094 2.140625 C 33.789062 2.179688 33.835938 2.222656 33.878906 2.265625 L 34.125 2.503906 C 34.148438 2.523438 34.179688 2.558594 34.207031 2.589844 L 34.359375 2.746094 C 34.421875 2.8125 34.480469 2.875 34.539062 2.941406 C 34.867188 3.308594 35.175781 3.707031 35.457031 4.121094 L 35.519531 4.214844 C 35.554688 4.265625 35.59375 4.328125 35.636719 4.390625 L 35.679688 4.460938 C 35.703125 4.496094 35.75 4.574219 35.796875 4.648438 C 35.847656 4.738281 35.894531 4.820312 35.941406 4.902344 L 36.003906 5.011719 C 36.050781 5.097656 36.089844 5.171875 36.128906 5.242188 C 36.171875 5.328125 36.21875 5.417969 36.265625 5.507812 L 36.289062 5.570312 C 36.304688 5.59375 36.339844 5.667969 36.375 5.742188 C 36.386719 5.765625 36.40625 5.804688 36.421875 5.84375 L 36.699219 6.496094 C 36.722656 6.558594 36.75 6.628906 36.773438 6.699219 L 37.007812 7.386719 C 37.039062 7.492188 37.0625 7.570312 37.085938 7.652344 C 37.148438 7.855469 37.203125 8.070312 37.253906 8.285156 L 37.269531 8.34375 C 37.289062 8.4375 37.3125 8.535156 37.332031 8.628906 L 37.402344 8.972656 C 37.425781 9.097656 37.441406 9.195312 37.457031 9.292969 C 37.460938 9.308594 37.46875 9.339844 37.472656 9.375 C 37.484375 9.445312 37.496094 9.53125 37.507812 9.613281 L 37.527344 9.726562 L 37.171875 9.832031 L 37.535156 9.785156 L 37.566406 10.03125 C 37.578125 10.128906 37.589844 10.234375 37.601562 10.335938 L 37.667969 11.179688 C 37.671875 11.285156 37.679688 11.394531 37.683594 11.503906 C 37.6875 11.609375 37.691406 11.714844 37.691406 11.824219 L 37.332031 11.925781 L 37.695312 11.917969 C 37.695312 12.03125 37.699219 12.148438 37.699219 12.265625 C 37.699219 14.054688 37.457031 15.976562 36.980469 17.984375 C 36.882812 18.355469 36.777344 18.722656 36.671875 19.09375 L 36.59375 19.351562 C 36.554688 19.484375 36.53125 19.570312 36.503906 19.652344 L 36.191406 20.664062 C 32.546875 32.070312 27.273438 36.886719 20.511719 34.976562 C 18.644531 34.453125 16.675781 34.460938 14.816406 34.996094 C 13.847656 35.28125 12.902344 35.421875 11.988281 35.421875 Z M 2.265625 26.796875 C 5.566406 33.199219 9.714844 35.722656 14.617188 34.300781 C 16.605469 33.722656 18.710938 33.71875 20.707031 34.28125 C 27.019531 36.0625 31.996094 31.40625 35.5 20.445312 L 35.808594 19.441406 C 35.835938 19.359375 35.859375 19.28125 35.878906 19.203125 L 35.972656 18.894531 C 36.078125 18.523438 36.183594 18.164062 36.277344 17.808594 C 36.738281 15.867188 36.972656 14 36.972656 12.265625 C 36.972656 12.15625 36.972656 12.046875 36.96875 11.9375 L 37.332031 11.835938 L 36.96875 11.84375 C 36.964844 11.738281 36.960938 11.636719 36.957031 11.535156 C 36.953125 11.425781 36.949219 11.324219 36.941406 11.222656 L 36.878906 10.425781 C 36.867188 10.316406 36.855469 10.21875 36.84375 10.125 L 36.789062 9.722656 C 36.777344 9.640625 36.765625 9.5625 36.753906 9.488281 L 36.738281 9.417969 C 36.726562 9.324219 36.710938 9.234375 36.691406 9.140625 L 36.621094 8.785156 C 36.601562 8.691406 36.582031 8.601562 36.558594 8.511719 L 36.902344 8.371094 L 36.546875 8.457031 C 36.496094 8.253906 36.445312 8.050781 36.386719 7.851562 C 36.367188 7.777344 36.34375 7.699219 36.320312 7.625 L 36.09375 6.953125 C 36.066406 6.882812 36.042969 6.820312 36.019531 6.761719 L 35.71875 6.058594 C 35.683594 5.976562 35.652344 5.910156 35.617188 5.847656 C 35.570312 5.746094 35.527344 5.664062 35.484375 5.582031 C 35.449219 5.511719 35.414062 5.445312 35.378906 5.382812 L 35.308594 5.257812 C 35.265625 5.183594 35.222656 5.109375 35.179688 5.03125 C 35.132812 4.957031 35.089844 4.886719 35.046875 4.820312 L 34.863281 4.535156 C 34.59375 4.140625 34.304688 3.769531 34 3.425781 C 33.945312 3.367188 33.890625 3.308594 33.835938 3.25 L 33.816406 3.230469 C 34.875 6.300781 34.917969 10.066406 33.929688 14.246094 C 33.648438 15.269531 33.359375 16.242188 33.0625 17.152344 L 33.0625 17.238281 L 33.015625 17.292969 C 30.585938 23.636719 25.714844 27.980469 19.289062 29.523438 C 13.316406 30.960938 6.585938 29.835938 2.265625 26.796875 Z M 2.265625 26.796875 " fill-opacity="1" fill-rule="nonzero"/></g></g></g></g><path fill="#102770" d="M 214.015625 340.816406 C 212.300781 340.816406 210.664062 340.382812 209.121094 339.527344 C 204.828125 337.140625 201.386719 331.417969 198.882812 322.515625 C 198.878906 322.496094 198.875 322.476562 198.871094 322.457031 C 197.210938 315.664062 198.238281 309.746094 201.765625 305.785156 C 204.789062 302.386719 209.3125 300.871094 214.484375 301.519531 C 217.617188 301.910156 221.0625 301.953125 225.015625 301.65625 C 230.378906 301.25 234.90625 302.875 237.769531 306.230469 C 240.988281 310 241.902344 315.710938 240.339844 322.308594 C 240.335938 322.328125 240.332031 322.347656 240.324219 322.367188 C 237.886719 331.289062 234.484375 337.035156 230.210938 339.453125 C 227.742188 340.847656 225.023438 341.140625 222.132812 340.324219 C 220.519531 339.871094 218.816406 339.875 217.207031 340.34375 C 216.117188 340.65625 215.050781 340.816406 214.015625 340.816406 Z M 202.28125 321.59375 C 204.484375 329.429688 207.441406 334.566406 210.828125 336.449219 C 212.480469 337.367188 214.246094 337.535156 216.226562 336.960938 C 218.46875 336.308594 220.839844 336.300781 223.085938 336.9375 C 225.070312 337.496094 226.835938 337.316406 228.480469 336.386719 C 231.855469 334.480469 234.773438 329.320312 236.921875 321.46875 C 238.210938 316.003906 237.5625 311.40625 235.09375 308.515625 C 232.949219 306 229.554688 304.84375 225.285156 305.164062 C 221.09375 305.480469 217.417969 305.429688 214.050781 305.011719 C 210.054688 304.511719 206.628906 305.621094 204.394531 308.125 C 201.664062 311.1875 200.914062 315.972656 202.28125 321.59375 Z M 238.628906 321.902344 L 238.632812 321.902344 Z M 238.628906 321.902344 " fill-opacity="1" fill-rule="nonzero"/><path fill="#102770" d="M 213.382812 291.632812 C 214.730469 292.183594 215.777344 293.070312 216.59375 294.011719 C 217.414062 294.960938 218.03125 295.988281 218.53125 297.035156 C 219.515625 299.136719 220.078125 301.332031 220.234375 303.605469 C 220.277344 304.21875 219.8125 304.75 219.199219 304.792969 C 218.636719 304.832031 218.140625 304.445312 218.03125 303.90625 L 218.023438 303.875 C 217.632812 301.980469 216.859375 300.113281 215.824219 298.53125 C 215.304688 297.746094 214.714844 297.03125 214.070312 296.472656 C 213.429688 295.910156 212.734375 295.523438 212.09375 295.375 C 211.023438 295.128906 210.355469 294.0625 210.605469 292.992188 C 210.851562 291.921875 211.917969 291.253906 212.988281 291.5 C 213.089844 291.523438 213.1875 291.554688 213.28125 291.589844 Z M 213.382812 291.632812 " fill-opacity="1" fill-rule="nonzero"/><path fill="#ffffff" d="M 214.839844 310.070312 C 216.167969 311.238281 214.9375 313.289062 212.882812 315.621094 C 210.832031 317.953125 208.730469 319.683594 207.40625 318.515625 C 206.078125 317.34375 206.667969 314.507812 208.71875 312.175781 C 210.773438 309.84375 213.515625 308.898438 214.839844 310.070312 Z M 214.839844 310.070312 " fill-opacity="0.2" fill-rule="nonzero"/></svg>